<svg id="Слой_1" data-name="Слой 1" xmlns="http://www.w3.org/2000/svg" viewBox="0 0 496.04 173.77"><defs><style>.cls-1{fill:#ccc;}</style></defs><path class="cls-1" d="M70,23.2V43.5l-12.3.1c-9.9.1-13.3.5-18.2,2.3Q11.9,55.8,11.9,87.5c-.1,29,14.1,43.4,44.6,45.1,9.1.5,31.5-1.3,39.1-3.2l2.4-.6V3H70ZM68.6,66.7c1.2.4,1.4,4.3,1.2,21.7l-.3,21.1-6,.3c-10.7.6-18-3.2-21.6-11.3-2.2-4.7-2.4-13-.7-18.9,1.6-5.3,8.3-12,13.4-13.4C58.2,65.2,65.4,65.5,68.6,66.7Z" transform="translate(-11.9 -3)"/><path class="cls-1" d="M113,17.5V32h28V3H113Z" transform="translate(-11.9 -3)"/><path class="cls-1" d="M176,44.6c-3.6.8-9.3,2.4-12.7,3.5L157,50.2V61.1c0,6,.1,10.9.3,10.9s3.9-1.3,8.4-2.9a78.64,78.64,0,0,1,14.7-3.9c6.2-.8,14.9-.3,16.2,1.1.3.3.6,2.7.7,5.3l.2,4.9-6.5.7c-29.1,3.2-40,11.5-40,30.3,0,9.5,1.9,14.5,7.3,19.2,4.9,4.3,9.2,5.4,22.2,6,9.5.5,33.6-.9,40.1-2.2,2-.4,2.1-1.1,2.7-32.7.8-36,.2-41.6-5.1-47.1-5.5-5.9-9.5-7.1-23.2-7.4C186.9,43.2,180.2,43.6,176,44.6Zm22.8,59.1-.3,8.8-5,.8c-6.8,1-14.2-1-16.8-4.5-2-2.6-2-2.7,0-6,2.8-4.8,6.8-6.3,21.1-7.7C198.8,95,199,97.1,198.8,103.7Z" transform="translate(-11.9 -3)"/><path class="cls-1" d="M262.5,43.6c-6.8,1-19.2,3.5-22.7,4.4L236,49.1V131h27V67.2l6.9-1c7.4-1.1,13.5-.3,15.6,2,3,3.2,3.5,8.5,3.5,35.4V131h26.7l.6-27.8c.7-30.5.1-39-3.4-45.4-3-5.3-9.5-10.3-16.2-12.4C291.6,43.8,269.1,42.6,262.5,43.6Z" transform="translate(-11.9 -3)"/><path class="cls-1" d="M369.5,44C349,47.3,335.8,55.5,329,69.3c-3.8,7.9-5.3,16-4.8,26.7,1.2,25.2,22.1,40.7,47.9,35.5,4.4-.9,8.2-1.5,8.4-1.3.8.8-1.9,11.6-3.6,14.5a20,20,0,0,1-6.7,5.5c-4.1,2-6.1,2.3-15.2,2.2-8.8,0-11.7-.5-18-2.8-4.1-1.5-8.3-2.9-9.2-3.3-1.7-.5-1.8.5-1.8,12.1V171l2.8,1.1c17,6.5,41,6.2,55.2-.8,6.8-3.3,14.9-11.3,17.8-17.6,5.4-11.6,5.7-14.5,5.5-52L407,67h3.1c2.8,0,3.3-.6,6.9-8.3,5.8-12.3,5.8-11.9-3-13.4C403.9,43.6,376.9,42.9,369.5,44Zm10.1,22.4c.1,0,.5,9.4.9,20.8l.7,20.7-4.4,1.1c-9.4,2.6-17.9-.9-22.1-9.1-2.5-4.6-2.8-6.2-2.4-11.4a32.46,32.46,0,0,1,2.5-10.2c4.3-8.3,14-13.9,21.7-12.6A15.79,15.79,0,0,1,379.6,66.4Z" transform="translate(-11.9 -3)"/><path class="cls-1" d="M449.8,44.6c-16.7,4-26.4,14.7-30.4,33.6-4.8,22.6,6.1,45.3,25.6,53,7.5,3,26.7,3.2,35.1.5,10.8-3.6,20.3-13.3,25-25.6,3.1-8.1,3.8-24.9,1.4-33.8a39.15,39.15,0,0,0-26.4-27.4C472.6,42.6,458.5,42.4,449.8,44.6Zm17.9,21.5c3.8,1.4,7.1,4.6,9.6,9.4,2.8,5.3,3,17.9.4,24.7-2,5.1-7.2,10.4-11.3,11.4-3.8,1-10.4-1.4-13.6-4.8-8.1-8.7-7.3-29.4,1.5-37.6C458.2,65.5,463.2,64.4,467.7,66.1Z" transform="translate(-11.9 -3)"/><path class="cls-1" d="M113,82.2c0,21.3-.5,40.1-1.1,43.8-2,12.4-6.3,18.8-18,26.5-3.9,2.6-6.9,4.8-6.7,5.1,1.5,1.5,23.3,11.4,25.1,11.4,4.7,0,18.3-11.4,21.9-18.4,4.7-9.1,6.8-33.2,6.8-78.9V45H113Z" transform="translate(-11.9 -3)"/></svg>