<svg id="Слой_1" data-name="Слой 1" xmlns="http://www.w3.org/2000/svg" viewBox="0 0 1509.02 427.65"><defs><style>.cls-1{fill:#ccc;}</style></defs><path class="cls-1" d="M127.5,92c-4.6.7-14.2,5.4-22.4,10.9C71.9,125.6,45.9,170.2,45.6,205c-.2,19.1,4.9,31.7,17.8,44.5,9.2,9.2,17.9,14.3,25.7,15.2,4.3.5,5.4.3,6.5-1.2,2.2-3,1.6-6.7-1.8-12.1A86.28,86.28,0,0,1,83.9,229c-2.1-8.2-1.8-33.3.5-43.9,3.7-17.4,11.2-35.7,19.5-47.9,5.2-7.6,14.9-18.2,16.7-18.2,1.2,0,1.4,12.6,1.3,82.2,0,45.3-.4,101.9-.9,125.8-.9,47.1-1.5,53.4-7,71.7-1.6,5.6-3,11.6-3,13.3,0,11.6,24.1-.2,36.2-17.7,8.2-12,13.9-29.9,16-50.2.8-8.1,1.2-45.8,1.2-124.6.1-105.9,0-113.3-1.6-115.7C158.1,96.6,139.3,90.4,127.5,92Z" transform="translate(-45.59 -91.75)"/><path class="cls-1" d="M537.6,93.9c-2.8,3.1-3.4,8.3-4.2,34.4l-.7,23.7-15.6-.5c-8.6-.3-17.5-.8-19.9-1s-5.3,0-6.4.6c-3.3,1.8-7.1,11.4-7.5,19.3-.7,11.4-1.6,11,24.4,11.7,12,.4,21.9.7,22.1.8s.2,20.9.2,46.4c0,43.7-.1,46.7-2.1,53.7a105,105,0,0,1-22.3,40.8l-5.1,5.5-.5-11c-.5-10.6-.8-11.5-4.9-19.7-5.6-11.4-13.3-19.1-37.1-37-10.2-7.7-18.9-14.2-19.3-14.6s1.3-3.6,3.9-7.1a119.07,119.07,0,0,0,9.7-16.9c4.7-9.7,5.1-11.1,5.2-18.2,0-8.3-1.2-11-6.9-15.2-2.4-1.8-4.2-2.1-13.4-2.1-9.7,0-11.2.3-16.4,2.8C405.2,198,395,214,395,230.8c0,8.7,1.2,12.6,6,20.1l4,6.2-7.1,13.2c-16,29.7-31.7,55.6-39.6,65.3-3.8,4.7-9.3,8-11.7,7.1-3.2-1.3-4.7-7.6-5.7-23.6-.5-8.6-.7-21.7-.4-29.1,2.7-73.3,2.8-74.3,1-78.8-2.3-5.6-8-10.3-19.4-16-8.7-4.3-10-4.7-16.5-4.6-9,.1-15.7,3.1-24.4,10.9-13.5,12.3-25.2,34-38.3,71.5l-4.4,12.5-.5-42.9-.5-42.9-2.5-1.9c-3.8-2.8-15.7-6.6-23-7.4-5.6-.5-6.8-.4-9,1.4l-2.5,2v84.9c0,94.5-.2,91.3,6.8,98.1,6.7,6.5,29.2,7.1,31.7.9.5-1.2,1.6-7.3,2.5-13.5,2.6-18.4,11.2-49.9,20-73.8,5.6-15,16.4-36.7,24.3-48.4,6.9-10.3,14.6-19,15.8-17.8.3.3-.2,18.1-1.1,39.5-3.2,73.5-.6,99.4,11.3,111.6,3.8,3.9,10.8,6.7,16.7,6.7,12.8,0,29.5-12.2,44.7-32.5,3.3-4.4,15.2-23.4,26.5-42.3S420.6,273,421,273s6.2,5,12.9,11.2c19.2,17.6,25.9,27.9,26.8,41.3,1.1,14.9-5.4,25.2-16.5,26.3-6.8.6-11-1-21.9-8.4-7.9-5.5-9.9-6.4-13.7-6.4-4.1,0-4.8.4-9.4,5.5-5.2,5.7-9.2,14.1-9.2,19.5,0,6.3,9.7,12.8,25.5,17.2,6.8,1.8,10.7,2.2,26,2.2,16.2.1,18.7-.1,25.5-2.2,25.2-8,43.5-25.1,58.6-54.9,5.8-11.4,5.2-11.7,7.5,2.7,2.7,17.1,10.3,34.5,18.9,43.1,11.3,11.3,27.9,14.7,41.3,8.6,10.9-5,25.4-22.2,32.2-38l2.8-6.8,1.7,5.4c7,22.4,22.3,38.1,40.8,41.8,21.5,4.1,46.4-8.3,59.5-29.8,1.8-2.9,3.5-5.3,3.8-5.3s.9,1.7,1.3,3.8c.9,6.1,6.3,15.6,11.5,20.5,20.1,18.8,49,13.7,63.1-11.1,1.9-3.4,3.7-6.1,4-6.2s2.2,2.7,4.3,5.9c15.9,24.7,46,30.1,71.4,12.8a76.81,76.81,0,0,0,13-11.5L908,354v6.4c0,3.5.2,7.1.5,7.8.4.9-6.6,7.9-19,19.3-24.7,22.5-42.4,40.8-49.4,50.9-10.3,15-14.3,29-12.1,42.8,2.7,17.5,12.8,29,31.2,35.6,6.4,2.2,8.9,2.6,19.8,2.6,11.2,0,13.2-.3,19.3-2.7,9.3-3.6,16.4-8.5,24.1-16.8,10.3-10.9,16.4-25.1,20.8-48.4,1.8-9.5,2.1-16.3,2.5-50.3l.5-39.2,6.4-7.8c25.5-30.6,51.2-76.4,64.7-115.3.4-1.3,3-1.7,14.7-2.3,7.8-.4,14.4-.5,14.8-.2s-.7,6.8-2.2,14.3c-8.7,44.5-7.3,80,4,102.6,9.1,17.9,29.2,30.3,45.9,28.2,11.6-1.4,24.6-10.7,31.2-22.4l3-5.2,3.3,5c4.3,6.8,13.7,15.4,20.4,18.5a62.15,62.15,0,0,0,12.4,3.8c20.3,3.4,44.3-8.4,57-28,2-3.2,4.1-5.9,4.6-6s1.8,2.3,2.8,5.5c4.2,12.3,14.4,22.9,26.1,27,7.5,2.6,20.7,2.4,26.9-.4,6.7-3,13.4-9.6,18.3-18l4.2-7.3.6,9.1c.4,5.5,1.2,10,2.1,11.4,2.8,4.3,11.7,6.8,24.1,6.9s16.7-1.1,18.4-5.2c.6-1.5,1.5-13.7,2.1-27.2,1.2-28,2.6-39.2,7.4-57.5,4.7-17.5,8.8-29,14.8-41.3,4.7-9.4,6.4-12,7.3-11.1.2.2.8,10.7,1.5,23.4,1.8,36.8,5.6,70.5,9.5,84.1,2.3,8.2,7.1,14.5,13.5,17.7,5,2.6,6.3,2.8,14.2,2.5,12.6-.4,13.3-1.3,14.2-16.6a320.8,320.8,0,0,1,21.9-97.2l6.2-15.5.6,37c.9,49.4,3.2,65.6,11.7,82,4.1,7.9,12.8,17.2,19,20.4,25.5,13,48.7-.2,57.2-32.5,5-19.2,4.8-31.2-.5-33.6-5.9-2.7-9.1,1.1-12.5,14.7-4.4,18.3-8.7,26.6-14.6,29.1-11,4.6-19.8-10.4-22.4-38.1-1.2-12.9-1.2-62-.1-85.4.5-9,.5-18,0-19.9-1.6-7.3-14.5-15.9-29.7-19.7-13.4-3.4-19,.3-25.6,17.1-9.7,24.7-19.4,57.2-23.2,77.9-.9,4.9-1.7,9.1-1.8,9.3-.7.7-2.9-35.5-3.5-58.8-.7-24.2-.9-26.9-2.9-30.6-3.8-7.5-12.7-13.1-24.7-15.5-7-1.4-12.2-.7-15.9,2.2-4.3,3.4-12,20.7-21,47.4l-8.4,25-.4-32.8-.3-32.9-2.7-2.3c-3.1-2.7-18.4-6.6-26.6-6.8-8.5-.2-8.7.4-9.5,23-.4,10.3-.7,36.3-.7,57.8,0,38.6,0,39.1-2.5,48.5-4.5,16.6-13.2,31.7-20.6,35.5-6.3,3.3-12.7.9-16.3-6.3-6.1-12.2-7.3-31.9-5.7-95.7l1.3-49.9-3.1-2.8c-5.8-5.2-25.7-9.4-32.1-6.8-3.8,1.6-5,3.7-5,9v4.2l-4.9-5.4c-5.8-6.3-13.9-11.4-21.3-13.4-10.2-2.7-24-1.4-32.8,3.1-18.6,9.4-34.7,36.5-40.5,68-2.4,12.5-3.2,47.2-1.4,59.1,1.8,12.4,1.6,15.4-2.1,23.1-10,21.5-26.3,20.3-33.9-2.3-3.4-10.3-4.4-18.4-4.4-35.4.1-18.6,1.3-27.7,7.4-56,5-23.5,5.1-29.7.3-35.7-6.5-8-14.3-9-37.4-4.5-8.5,1.7-17.5,3.3-20,3.7l-4.5.7V202.1c0-8.6-.3-10.3-2.1-12.8-3-4-7.5-6.4-13.7-7-17.5-1.8-30.9,11.8-31,31.7-.1,8.7,2.2,14.2,8.1,19.8l3.5,3.4-2.7,9.5c-6.9,24.3-22.5,56.8-38.2,79.6l-3.6,5.2.7-61.5c.9-72.2,1-66.8-1-69-3.7-4.1-22.9-8.9-30.2-7.5-5.1.9-8.3,4.5-8.3,9.4v4l-5.7-6c-8.4-8.8-17.3-13-29.3-13.7-6.8-.4-10.7,0-15.6,1.3-23.2,6.3-41.8,34.4-49,74-2.2,12.1-3,45-1.5,56.5,1.2,8.4,1.1,9.1-1.3,16-6.4,18.6-17.7,26.8-26.6,19.4-10.4-8.8-12.4-27.7-10.7-103.2,1-45.7.9-47.3-.9-49.3-2.9-3.2-8.1-5.5-16.7-7.4-14.4-3.2-21.7-.3-21.7,8.5v3.9l-5.7-6a45.22,45.22,0,0,0-13-9.6c-6.3-3.1-8.4-3.6-16.6-4.1-19.4-1-33.3,6.9-46.2,26.3s-17.9,37.6-20.9,75.9c-1.2,14.6-1.8,18.3-4.5,25.5-6.6,18-18.5,33.4-28,36.1-7.1,2-13.2-6.1-16.8-22.5-1.5-6.8-1.8-12.8-1.7-41,.1-30.3,2.2-102.5,3-103.4.2-.2,11.7-.6,25.6-.9s26-.8,26.9-1.3c4.1-2.1,8-16.9,5.7-21.6-1.7-3.6-3.8-4-30.8-5.3-12.4-.6-23.6-1.3-24.9-1.6-2.2-.5-2.3-.8-1.7-6.7.3-3.4.8-14.6,1.2-24.8.6-18.3.6-18.6-1.6-20.7-3.5-3.2-20.4-8.4-29.5-8.9C540.3,91.8,539.3,92,537.6,93.9Zm168,125.6c9.1,2.7,15.7,12.2,19.1,27.7,2.1,9.2,2.3,42.5.4,54.3-3.6,22.4-10.2,38.5-19.4,47.2s-17.3,9.5-25.2,2.2c-10.3-9.5-15.3-31.4-14.2-62.4,1.6-43.6,13.3-68.5,33.3-70.4A29.4,29.4,0,0,1,705.6,219.5ZM893,222.9c4.5,3.6,8.6,11.6,10.7,21.1,2.4,10.7,2.4,46.8,0,59.7-4,21.4-10.2,36.5-18.1,44.5C863,370.8,843,341.9,845.3,290c1.6-34.7,10.4-59.5,24.2-68C876.8,217.5,886.7,217.9,893,222.9Zm308.8-2.2c7.2,3.4,13.2,14.6,15.8,29.3,2,11.3,2.2,37.2.5,50-3.7,27.1-13.9,47.9-26.4,53.9-13.9,6.7-25.2-3.9-30.5-28.9-1.2-5.5-1.6-13.3-1.6-29.5,0-22.7.9-31.8,4.5-45.4C1170.8,225.2,1186,213.3,1201.8,220.7Zm-292.1,204c-.7,27.1-2.3,39.7-7.1,54.1-3.3,9.7-7,15.2-12.8,18.6-14.6,8.5-29.3,2.3-32.2-13.6-1.8-10,6.1-29.8,18.6-46.3,7-9.2,32.3-37.5,33.5-37.5C910,400,910,411.1,909.7,424.7Z" transform="translate(-45.59 -91.75)"/></svg>