<svg id="Слой_1" data-name="Слой 1" xmlns="http://www.w3.org/2000/svg" viewBox="0 0 1599 485.54"><defs><style>.cls-1{fill:#ccc;}</style></defs><path class="cls-1" d="M659,1.1C647.6,3.3,636.8,11.9,631.6,23c-2.9,6-3.1,7.3-3.1,17,0,9.9.2,11,3.2,17.1a41.2,41.2,0,0,0,19.1,18.7c5.1,2.4,6.9,2.7,16.7,2.7,10.1,0,11.5-.2,17-2.9,15.7-7.8,24.7-25.4,21.6-42.3S690.9,4.2,674,1C668-.1,665.3-.1,659,1.1Z" transform="translate(0 -0.19)"/><path class="cls-1" d="M0,175.5V344H60V7H0Z" transform="translate(0 -0.19)"/><path class="cls-1" d="M1369,175.5V344h59.9l.4-69.8c.4-74.8.2-73,5.6-85.4,9.6-22.2,37.8-35,64.6-29.3a45.52,45.52,0,0,1,24.1,12.9c6.4,6.4,10.2,13.2,13.1,23.1,1.5,5.4,1.7,13.3,2.1,77.2l.3,71.3H1599V272.6c0-42.3-.4-75.5-1-81.5-2.9-27.6-14.2-52.1-31.4-67.8-16.8-15.4-38.7-23.3-64.6-23.6-28.2-.2-50.2,7.9-68.2,25.2l-4.8,4.5V7h-60Z" transform="translate(0 -0.19)"/><path class="cls-1" d="M754,70.5V107H722v54h32V344h60V161h32V107H814V34H754Z" transform="translate(0 -0.19)"/><path class="cls-1" d="M967,100.1c-36.3,2.5-67.8,19.6-89.5,48.4-6.2,8.2-15.9,28.1-19,39-11.1,38.8-5.1,82.2,15.8,112.9,4.9,7.2,16,19.1,23,24.4,50.6,39,134.9,33.6,182.8-11.6,3.8-3.5,6.9-7,6.9-7.6,0-1.3-38.1-39.6-39.4-39.6-.4,0-3.6,2.4-6.9,5.4-19.7,17.1-40,25.8-60.7,25.9-19.2.1-33.5-5.6-46.1-18.2-8.2-8.3-11.7-13.6-15.4-23.6L916,249h184V235.7c0-34.5-7.7-62.1-24.3-87-18.4-27.5-49.8-46-82-48.2-4.5-.3-10-.7-12.2-.9S972.8,99.7,967,100.1Zm26.9,54.5c18.7,4.8,34.2,18.5,40,35.6,1,2.9,2.1,6.5,2.5,8l.6,2.8H914.8l.6-2.5a62.35,62.35,0,0,1,9.9-20.7C940,157.2,967.5,147.9,993.9,154.6Z" transform="translate(0 -0.19)"/><path class="cls-1" d="M1234.6,100.1a127,127,0,0,0-79.7,36.9c-18.3,18.2-30.2,40.6-34.5,65-2.2,12.3-2,34.1.5,46.5,10.1,52.3,47,89.2,100.1,100.2,13.4,2.7,40.4,2.5,53.9-.5,26.2-5.9,46.1-16.5,64.6-34.4l10-9.7-21.2-21.2-21.1-21.2-6.8,6.7c-21.8,21.6-50,29.5-75.3,21-11.2-3.7-17.7-7.8-26.3-16.5-6.2-6.2-8.5-9.5-12.1-17-6-12.5-7.2-18.1-7.1-31.9.1-9.5.6-12.9,2.7-19.5,9-27.5,31.7-44.9,60.3-46.3,12.9-.6,22.1,1.4,34.1,7.2,9,4.4,21.4,13.5,26.9,19.8l3.1,3.5,21.4-20.7,21.4-20.7-7.5-7.8c-14.2-14.6-34.8-27.7-53-33.5A146.83,146.83,0,0,0,1234.6,100.1Z" transform="translate(0 -0.19)"/><path class="cls-1" d="M188,101.5c-27,4.6-48.1,15-66.9,32.9C89.5,164.7,76.5,206.5,85,251c9.6,50.3,48.9,88.5,100.3,97.4,66.1,11.5,127-22.3,146.7-81.2,4.9-14.9,6.4-24.2,6.4-41.2.1-17.6-1.1-25.9-5.9-40.6A118.79,118.79,0,0,0,302,136c-18.9-18.8-41.2-30-68.5-34.5C222.6,99.7,198.5,99.7,188,101.5ZM231.8,161c19.9,6.4,36.6,23.1,43.4,43.5,1.9,5.9,2.3,9.1,2.3,20.5s-.4,14.6-2.3,20.5a69.58,69.58,0,0,1-44.7,44.2c-10,3.3-26.2,3.7-36.5,1-36.4-9.6-57.6-46.1-48.3-83.2,5.3-21.2,25.5-41.9,46.3-47.5C203.6,156.9,220.1,157.3,231.8,161Z" transform="translate(0 -0.19)"/><path class="cls-1" d="M465.5,101.1a127.8,127.8,0,0,0-71.7,36.2c-47.7,48.5-47.4,129.9.7,177.2,17.9,17.6,41.3,29.4,67.5,34.1,14.2,2.6,38.4,2.4,51.7-.4,26.3-5.6,45.7-15.8,64-33.5,21.3-20.6,33.2-46,36.4-77.6,2.5-25.7-3.2-54.6-14.1-70.7-1.6-2.5-3-4.8-3-5.3s3.4-1.8,7.5-3.1l7.5-2.4V107H570.9c-38,0-41.7-.2-47.8-2C507.2,100.3,482.5,98.6,465.5,101.1Zm43.3,60.3c17.6,6.6,30.1,17.6,38.4,33.9,18.3,36.3-1.2,81.8-40.4,94.2-25.6,8.1-54.8-.2-71.4-20.4-10.8-13-15.8-27-15.8-44.1,0-12.2,1.8-20.2,6.9-30.5a66.51,66.51,0,0,1,30-30c10.8-5.3,17-6.5,32-6.1C499.7,158.6,502.5,159.1,508.8,161.4Z" transform="translate(0 -0.19)"/><path class="cls-1" d="M637,225.5V344h60V107H637Z" transform="translate(0 -0.19)"/><path class="cls-1" d="M358,366.2c0,20.5,8.7,47.7,21.1,65.9,6,8.9,18.9,22.1,28.4,29.1,13.6,10.1,33.2,18.6,51.6,22.3,11.6,2.4,35.5,3,47.4,1.1,21.3-3.2,42.5-11.8,58.1-23.4,9.3-6.9,22.3-20.3,28.1-28.7a124.35,124.35,0,0,0,21-62.3l.6-10.2h-60l-1.2,8.7A68.62,68.62,0,0,1,517,420.5c-18.7,9.7-41.2,9.8-61,.3-6.8-3.3-10.1-5.7-16.6-12.2-12.1-12.2-18.8-25.8-20.1-41.1l-.6-7.5H358Z" transform="translate(0 -0.19)"/></svg>