<svg id="Слой_1" data-name="Слой 1" xmlns="http://www.w3.org/2000/svg" xmlns:xlink="http://www.w3.org/1999/xlink" viewBox="0 0 446.12 178.34"><defs><style>.cls-1{fill:none;}.cls-2{clip-path:url(#clip-path);}.cls-3{fill:#ccc;}</style><clipPath id="clip-path" transform="translate(0 0)"><rect class="cls-1" width="446.12" height="178.34"/></clipPath></defs><g id="surface1"><g class="cls-2"><path class="cls-3" d="M137.75,71.1h-88a13.84,13.84,0,0,1-13.58-14V51.48a13.84,13.84,0,0,1,13.58-14H221.16V54.27H258.6V18.71a19.16,19.16,0,0,0-5.27-13.23A17.88,17.88,0,0,0,240.55,0H49.75C22.34,0,0,23.11,0,51.51v5.54c0,28.38,22.34,51.48,49.75,51.48h88a13.87,13.87,0,0,1,13.55,14.08v4.23a13.85,13.85,0,0,1-13.57,14H0v37.45H137.75c27.41,0,49.75-23.12,49.75-51.5v-4.23c0-28.4-22.34-51.5-49.75-51.51M396.37,0H292.27V37.44s102.9,0,104.27.17l-.17-.17A13.89,13.89,0,0,1,410,51.51v5.54a13.88,13.88,0,0,1-13.6,14H239.27a17.82,17.82,0,0,0-12.8,5.47,19.29,19.29,0,0,0-5.31,13.26v70.43a18,18,0,0,0,5.48,12.81,19.35,19.35,0,0,0,13.22,5.27h35.57V140.89H258.6V108.53H396.37c27.43,0,49.75-23.1,49.75-51.48V51.51C446.12,23.11,423.8,0,396.37,0" transform="translate(0 0)"/></g></g></svg>