<svg id="svg" version="1.1" xmlns="http://www.w3.org/2000/svg" xmlns:xlink="http://www.w3.org/1999/xlink" width="400" height="357.1428571428571" viewBox="0, 0, 400,357.1428571428571"><g id="svgg"><path id="path0" d="M66.452 133.733 C 64.556 134.108,63.993 134.392,63.237 135.354 C 62.734 135.996,61.411 137.424,60.298 138.528 C 56.867 141.933,56.761 144.942,59.957 148.235 C 60.668 148.967,61.706 150.143,62.262 150.849 C 64.033 153.092,58.706 152.963,150.726 152.980 L 235.202 152.996 236.879 152.184 C 243.244 149.103,245.148 140.341,240.027 137.693 C 239.465 137.402,238.497 136.522,237.874 135.736 C 237.216 134.905,236.192 134.119,235.425 133.856 C 233.477 133.188,69.802 133.069,66.452 133.733 M66.871 177.488 C 63.124 178.836,58.325 184.002,57.640 187.424 C 57.418 188.534,58.866 191.429,59.643 191.429 C 59.786 191.429,60.355 192.082,60.909 192.880 C 62.123 194.633,64.161 195.864,66.733 196.397 C 69.986 197.072,232.087 196.952,234.684 196.273 C 240.478 194.757,242.702 191.982,242.649 186.337 C 242.616 182.794,242.173 182.002,239.464 180.642 C 238.679 180.247,237.473 179.393,236.786 178.744 C 234.644 176.723,237.405 176.785,149.574 176.799 C 71.181 176.811,68.693 176.832,66.871 177.488 M150.536 221.421 C 149.946 221.573,148.741 222.035,147.857 222.448 C 146.973 222.861,146.034 223.202,145.769 223.206 C 144.732 223.223,143.213 224.757,142.302 226.705 C 141.777 227.830,140.968 229.256,140.504 229.875 L 139.662 230.999 140.378 231.910 C 140.772 232.411,141.475 233.673,141.939 234.714 C 142.866 236.790,144.238 238.277,145.893 239.000 C 146.482 239.257,147.705 239.911,148.611 240.453 L 150.257 241.438 188.789 241.344 L 227.321 241.250 230.000 239.935 C 233.942 237.999,236.540 235.532,237.439 232.872 L 238.158 230.742 237.267 228.955 C 236.303 227.019,233.016 223.772,231.266 223.027 C 226.248 220.889,230.176 221.068,188.970 221.108 C 168.421 221.128,151.125 221.269,150.536 221.421 " stroke="none" fill="#89b61e" fill-rule="evenodd"></path><path id="path1" d="M208.504 1.327 C 208.363 3.009,206.500 3.663,199.521 4.479 C 193.491 5.183,192.093 5.558,189.921 7.052 C 188.446 8.067,187.285 8.463,183.432 9.265 C 178.472 10.297,177.506 10.655,176.071 11.989 C 174.888 13.089,173.113 13.792,170.714 14.109 C 168.312 14.427,167.330 14.915,165.719 16.591 C 164.857 17.488,163.870 18.052,162.505 18.427 C 158.638 19.488,157.533 20.034,156.429 21.428 C 155.544 22.546,154.815 22.979,152.556 23.731 C 150.470 24.426,149.428 25.012,148.395 26.069 C 147.637 26.846,146.282 27.820,145.383 28.236 C 144.485 28.651,142.946 29.759,141.964 30.698 C 140.982 31.637,139.318 32.863,138.266 33.423 C 137.215 33.982,135.661 35.050,134.814 35.795 C 133.306 37.123,130.665 38.548,129.684 38.564 C 129.413 38.568,128.107 39.124,126.783 39.798 C 123.431 41.507,121.292 42.049,115.584 42.636 C 110.711 43.138,110.569 43.177,106.655 45.127 C 103.266 46.816,102.283 47.142,100.000 47.339 C 96.941 47.603,95.126 48.292,92.785 50.078 C 91.685 50.919,90.176 51.592,88.198 52.126 C 84.468 53.132,83.680 53.477,82.161 54.769 C 80.951 55.799,79.626 56.458,76.427 57.621 C 75.542 57.943,74.070 58.824,73.157 59.579 C 72.244 60.333,70.525 61.305,69.336 61.739 C 67.827 62.289,66.815 62.948,65.977 63.927 C 65.153 64.890,63.816 65.770,61.702 66.742 C 59.905 67.568,58.386 68.522,58.050 69.036 C 57.733 69.519,56.502 70.432,55.315 71.065 C 54.021 71.755,52.773 72.758,52.203 73.567 C 51.679 74.310,50.688 75.289,50.000 75.742 C 49.313 76.196,47.851 77.460,46.752 78.551 C 45.654 79.643,43.120 82.143,41.121 84.107 C 39.123 86.071,36.486 88.766,35.262 90.094 C 34.038 91.423,32.127 93.431,31.015 94.558 C 29.904 95.685,28.745 97.109,28.440 97.723 C 28.135 98.336,27.099 99.497,26.137 100.302 C 24.797 101.424,24.210 102.257,23.621 103.870 C 23.199 105.027,22.222 106.693,21.449 107.571 C 20.676 108.449,19.624 110.118,19.112 111.280 C 18.600 112.442,17.471 114.116,16.605 115.000 C 15.288 116.343,14.935 117.014,14.455 119.085 C 13.749 122.139,13.483 122.668,11.761 124.464 C 10.506 125.772,10.315 126.249,9.498 130.117 C 8.625 134.245,8.388 134.815,6.310 137.786 C 5.535 138.892,5.219 139.889,4.961 142.027 C 3.655 152.874,3.045 155.000,1.236 155.000 L 0.000 155.000 0.000 178.036 L 0.000 201.071 1.236 201.071 C 2.871 201.071,3.645 203.454,4.633 211.527 C 5.364 217.497,5.419 217.653,7.842 220.714 C 8.243 221.220,8.880 223.155,9.313 225.179 C 10.151 229.102,10.527 229.995,12.342 232.372 C 13.014 233.254,13.828 234.888,14.149 236.005 C 14.895 238.600,15.532 239.842,17.005 241.568 C 17.657 242.332,18.460 243.770,18.790 244.763 C 19.196 245.985,19.935 247.094,21.079 248.195 C 22.292 249.362,23.091 250.596,23.908 252.564 C 24.699 254.472,25.409 255.584,26.236 256.215 C 26.891 256.715,27.781 257.855,28.214 258.750 C 28.647 259.644,29.810 261.055,30.798 261.884 C 31.786 262.714,32.976 263.994,33.442 264.729 C 33.909 265.463,34.945 266.497,35.745 267.027 C 36.754 267.695,37.531 268.653,38.281 270.155 C 38.876 271.347,39.665 272.651,40.035 273.054 C 41.570 274.731,42.375 289.903,42.695 323.214 C 42.930 347.733,42.770 345.972,44.962 348.176 C 45.902 349.121,46.898 350.209,47.175 350.594 C 49.951 354.453,59.196 354.125,62.138 350.063 C 62.728 349.249,63.831 348.191,64.589 347.713 C 65.347 347.234,66.303 346.273,66.713 345.578 C 67.124 344.883,68.232 343.757,69.176 343.076 C 70.120 342.396,71.200 341.263,71.576 340.558 C 71.952 339.854,72.936 338.849,73.763 338.327 C 74.589 337.804,75.647 336.750,76.115 335.985 C 76.582 335.221,77.724 334.046,78.652 333.376 C 79.580 332.705,80.754 331.500,81.260 330.698 C 81.767 329.895,82.750 328.903,83.446 328.493 C 84.141 328.083,85.138 327.059,85.661 326.219 C 86.184 325.378,87.292 324.199,88.122 323.597 C 88.952 322.996,90.037 321.862,90.532 321.077 C 91.028 320.292,92.047 319.244,92.797 318.747 C 93.547 318.251,94.521 317.205,94.960 316.424 C 95.399 315.642,96.351 314.566,97.076 314.033 C 97.800 313.499,99.149 312.374,100.074 311.531 C 101.040 310.651,102.103 310.002,102.574 310.006 C 104.348 310.018,107.448 311.001,108.953 312.029 C 111.151 313.532,112.365 313.860,117.871 314.443 C 123.530 315.042,125.215 315.385,129.286 316.769 C 135.573 318.906,138.159 319.107,159.286 319.107 C 180.645 319.107,182.641 318.939,189.135 316.588 C 192.338 315.429,194.666 314.995,201.511 314.284 C 204.817 313.941,208.675 312.843,209.123 312.117 C 209.594 311.355,211.770 310.594,215.735 309.803 C 220.551 308.843,221.778 308.385,223.709 306.832 C 225.146 305.676,226.567 305.163,229.420 304.772 C 231.064 304.547,234.286 302.832,234.286 302.183 C 234.286 301.701,237.004 300.502,239.276 299.981 C 240.797 299.633,241.633 299.152,243.052 297.810 C 244.312 296.618,245.637 295.802,247.348 295.162 C 248.772 294.629,250.353 293.721,251.076 293.022 C 251.766 292.353,253.309 291.332,254.506 290.753 C 255.867 290.094,257.118 289.148,257.847 288.227 C 258.488 287.417,259.773 286.370,260.702 285.899 C 261.631 285.428,263.259 284.296,264.321 283.384 C 265.382 282.471,267.134 281.271,268.214 280.717 C 269.295 280.163,270.661 279.199,271.250 278.573 C 272.755 276.976,273.975 276.429,276.030 276.429 C 279.034 276.429,282.804 275.437,285.540 273.926 C 287.572 272.805,289.063 272.320,292.713 271.596 C 296.152 270.914,297.672 270.437,298.702 269.716 C 302.627 266.968,305.564 266.162,310.017 266.609 C 312.489 266.857,312.519 266.873,314.177 268.813 C 315.095 269.888,316.434 271.067,317.153 271.434 C 317.872 271.801,318.938 272.645,319.522 273.310 C 320.105 273.974,321.376 275.055,322.345 275.711 C 323.314 276.367,324.856 277.593,325.770 278.435 C 326.685 279.277,328.292 280.517,329.342 281.191 C 330.391 281.865,331.777 282.999,332.421 283.710 C 333.066 284.422,334.212 285.395,334.969 285.873 C 335.726 286.351,336.946 287.476,337.682 288.373 C 338.417 289.271,339.601 290.342,340.313 290.754 C 341.025 291.166,342.089 292.158,342.679 292.960 C 343.268 293.761,344.572 294.910,345.576 295.512 C 346.581 296.114,347.914 297.199,348.538 297.922 C 349.163 298.645,350.350 299.566,351.176 299.967 C 352.003 300.368,353.445 301.331,354.381 302.107 C 357.995 305.101,362.955 305.389,365.268 302.739 C 365.808 302.120,367.165 300.729,368.284 299.646 C 371.072 296.950,371.346 295.342,370.355 287.511 C 367.633 266.016,366.804 252.464,366.793 229.286 C 366.788 220.085,366.904 219.526,369.191 217.727 C 369.691 217.334,370.627 215.857,371.270 214.445 C 371.976 212.897,373.071 211.256,374.030 210.310 C 374.905 209.448,375.977 207.914,376.413 206.902 C 376.848 205.890,377.822 204.507,378.578 203.829 C 379.612 202.901,380.097 202.074,380.536 200.494 C 381.455 197.182,381.807 196.466,383.115 195.248 C 384.736 193.739,385.184 192.802,385.688 189.861 C 386.107 187.418,387.075 185.225,388.767 182.889 C 389.772 181.500,390.714 178.627,390.714 176.948 C 390.714 174.582,391.491 171.857,393.052 168.744 C 394.904 165.052,394.962 164.676,395.888 150.179 C 396.584 139.291,396.584 134.580,395.887 122.857 C 395.081 109.294,394.871 107.963,392.978 104.375 C 391.695 101.941,391.309 100.742,390.849 97.755 C 390.025 92.403,389.762 91.609,388.214 89.821 C 386.855 88.250,386.390 87.120,385.867 84.107 C 385.545 82.252,384.826 80.848,383.359 79.212 C 382.585 78.348,381.903 76.984,381.396 75.283 C 380.748 73.111,380.332 72.404,378.890 71.029 C 377.532 69.733,376.961 68.813,376.228 66.743 C 375.521 64.746,374.922 63.757,373.754 62.660 C 372.907 61.865,371.865 60.472,371.439 59.566 C 370.957 58.542,370.135 57.569,369.263 56.992 C 368.492 56.482,367.437 55.383,366.917 54.550 C 366.398 53.717,365.152 52.221,364.147 51.226 C 363.143 50.231,361.912 48.945,361.413 48.369 C 360.913 47.793,360.029 46.903,359.448 46.391 C 358.868 45.879,357.804 44.835,357.083 44.070 C 356.363 43.305,354.543 41.554,353.039 40.179 C 351.536 38.804,349.393 36.778,348.278 35.677 C 347.162 34.577,345.607 33.315,344.821 32.874 C 344.036 32.432,342.927 31.510,342.357 30.824 C 341.725 30.062,340.333 29.125,338.785 28.420 C 337.390 27.784,335.686 26.736,334.999 26.091 C 334.312 25.445,332.753 24.455,331.534 23.891 C 330.315 23.326,328.528 22.163,327.563 21.306 C 326.246 20.137,325.210 19.586,323.411 19.099 C 321.635 18.618,320.581 18.063,319.346 16.958 C 317.215 15.052,316.817 14.860,313.489 14.131 C 311.589 13.714,310.151 13.129,308.878 12.253 C 306.264 10.455,304.571 9.790,300.893 9.117 C 298.457 8.671,297.116 8.191,295.357 7.136 C 292.860 5.638,290.031 4.857,285.714 4.474 C 279.533 3.926,276.786 2.925,276.786 1.220 L 276.786 0.000 242.700 -0.000 L 208.615 -0.000 208.504 1.327 M262.321 19.641 C 266.912 20.005,268.165 20.295,273.813 22.303 C 276.563 23.280,278.393 23.678,281.330 23.935 C 286.093 24.353,287.881 24.870,290.287 26.525 C 291.459 27.332,292.914 27.956,294.201 28.205 C 299.506 29.232,299.209 29.116,303.749 31.927 C 304.667 32.496,306.673 33.315,308.206 33.748 C 310.264 34.328,311.447 34.917,312.729 35.996 C 313.683 36.800,315.380 37.808,316.500 38.236 C 317.620 38.664,319.319 39.683,320.276 40.500 C 321.233 41.317,323.028 42.382,324.265 42.868 C 325.910 43.513,326.857 44.165,327.787 45.295 C 328.486 46.145,329.832 47.232,330.778 47.711 C 331.793 48.225,332.866 49.139,333.397 49.943 C 333.893 50.692,334.978 51.675,335.810 52.129 C 336.641 52.582,338.142 53.775,339.144 54.780 C 340.147 55.785,341.513 57.101,342.180 57.704 C 342.847 58.308,344.438 59.973,345.714 61.403 C 346.991 62.834,348.859 64.832,349.866 65.842 C 350.873 66.852,352.041 68.361,352.462 69.196 C 352.900 70.062,353.851 71.125,354.678 71.673 C 355.655 72.320,356.467 73.304,357.168 74.694 C 357.741 75.827,358.704 77.319,359.310 78.008 C 359.915 78.698,360.963 80.592,361.638 82.217 C 362.574 84.471,363.232 85.486,364.407 86.490 C 365.825 87.702,365.985 88.016,366.410 90.422 C 366.955 93.505,367.513 94.737,369.131 96.429 C 370.365 97.719,371.056 99.894,371.622 104.279 C 371.957 106.868,372.609 108.640,373.898 110.464 C 375.950 113.367,376.854 128.010,376.124 146.525 C 375.646 158.669,375.526 159.421,373.385 163.723 C 372.049 166.407,371.708 167.516,371.400 170.179 C 370.969 173.902,370.569 174.968,368.820 177.060 C 367.841 178.231,367.406 179.224,366.941 181.346 C 366.221 184.629,366.118 184.847,364.295 186.953 C 363.361 188.033,362.630 189.403,362.142 190.990 C 361.531 192.978,361.075 193.708,359.498 195.216 C 358.152 196.503,357.418 197.563,357.000 198.821 C 356.675 199.800,355.671 201.466,354.770 202.521 C 353.869 203.577,352.736 205.277,352.252 206.299 C 351.675 207.517,350.894 208.473,349.982 209.077 C 346.967 211.072,346.571 214.517,347.113 234.024 C 347.327 241.730,347.582 251.170,347.680 255.000 C 347.777 258.830,347.951 262.695,348.066 263.589 C 348.486 266.854,346.196 268.114,342.883 266.441 C 340.930 265.456,339.760 264.470,334.643 259.497 C 333.563 258.447,332.195 257.343,331.603 257.043 C 331.012 256.744,329.845 255.689,329.010 254.699 C 328.175 253.709,326.853 252.539,326.073 252.101 C 325.292 251.662,324.244 250.713,323.744 249.992 C 322.626 248.378,322.042 248.075,318.214 247.127 C 316.545 246.713,314.475 246.066,313.615 245.687 C 311.400 244.713,309.084 244.822,305.484 246.069 L 302.399 247.138 301.199 246.397 C 300.009 245.662,300.000 245.636,300.000 242.950 L 300.000 240.244 302.271 238.068 C 304.428 236.002,304.555 235.787,304.805 233.773 C 305.159 230.921,305.472 230.206,307.226 228.241 C 308.662 226.632,308.765 226.357,309.682 221.665 C 310.503 217.463,310.822 216.504,311.927 214.899 C 313.632 212.423,313.845 211.567,314.473 204.643 C 314.980 199.062,316.069 191.670,316.788 188.929 C 318.076 184.016,317.857 174.239,316.264 165.536 C 315.068 159.005,315.073 159.040,314.474 152.500 C 313.840 145.590,313.592 144.557,312.005 142.251 C 310.771 140.457,309.868 137.468,309.438 133.750 C 309.101 130.840,308.785 130.124,306.988 128.203 C 305.615 126.735,305.393 126.254,305.000 123.900 C 304.453 120.623,304.028 119.772,302.212 118.313 C 300.935 117.287,300.709 116.860,300.133 114.384 C 299.545 111.857,299.321 111.446,297.641 109.817 C 296.625 108.832,295.533 107.399,295.212 106.633 C 294.892 105.866,293.896 104.454,292.999 103.495 C 292.102 102.537,290.903 100.726,290.334 99.471 C 289.669 98.004,288.838 96.838,288.006 96.203 C 287.295 95.661,286.242 94.382,285.666 93.362 C 285.068 92.303,284.015 91.108,283.210 90.575 C 282.434 90.062,281.476 89.008,281.081 88.233 C 280.684 87.454,279.636 86.324,278.741 85.708 C 277.850 85.095,276.727 83.970,276.247 83.209 C 275.766 82.448,274.660 81.407,273.788 80.896 C 272.916 80.385,271.779 79.411,271.261 78.732 C 270.743 78.053,269.425 76.925,268.332 76.226 C 267.239 75.527,265.947 74.483,265.462 73.906 C 264.976 73.328,263.508 72.270,262.200 71.553 C 260.892 70.837,259.098 69.568,258.214 68.733 C 257.330 67.898,255.791 66.808,254.794 66.311 C 253.796 65.814,252.552 64.846,252.029 64.161 C 251.295 63.197,250.378 62.649,248.005 61.754 C 245.934 60.972,244.700 60.280,244.220 59.631 C 243.267 58.341,241.382 57.339,238.571 56.628 C 236.926 56.212,235.886 55.693,235.000 54.846 C 233.306 53.225,231.711 52.474,228.776 51.913 C 227.249 51.621,225.763 51.062,224.893 50.452 C 222.087 48.486,221.546 48.266,217.679 47.519 C 215.451 47.089,213.054 46.380,212.143 45.882 C 207.710 43.461,207.078 43.266,201.798 42.688 C 196.479 42.106,193.638 41.516,191.214 40.490 C 188.604 39.386,186.254 38.885,182.279 38.583 C 174.532 37.995,173.097 35.804,178.555 32.895 C 179.691 32.289,180.830 31.541,181.087 31.231 C 181.934 30.211,183.574 29.606,187.438 28.888 C 192.408 27.965,193.292 27.665,195.775 26.060 C 197.904 24.684,198.968 24.440,205.893 23.740 C 208.675 23.459,210.229 23.046,213.929 21.604 C 216.786 20.491,220.377 19.783,224.464 19.527 C 228.915 19.247,258.480 19.337,262.321 19.641 M178.975 62.135 C 187.690 62.475,190.966 62.957,193.553 64.276 C 195.619 65.330,199.688 66.360,204.054 66.933 C 206.785 67.292,208.437 67.712,209.675 68.363 C 210.640 68.871,212.192 69.688,213.125 70.180 C 214.058 70.672,216.384 71.370,218.293 71.731 C 221.414 72.322,221.917 72.530,223.292 73.795 C 225.016 75.380,226.042 75.850,229.080 76.446 C 230.828 76.790,231.509 77.156,233.008 78.561 C 234.221 79.697,235.472 80.469,236.786 80.892 C 239.550 81.783,240.690 82.417,241.709 83.628 C 242.197 84.207,243.498 85.137,244.601 85.694 C 245.732 86.266,247.122 87.350,247.788 88.180 C 248.438 88.989,249.723 90.034,250.645 90.501 C 251.567 90.969,252.643 91.712,253.036 92.152 C 253.429 92.592,254.634 93.608,255.714 94.409 C 258.519 96.488,264.519 102.236,266.553 104.790 C 267.505 105.986,268.894 107.607,269.640 108.393 C 270.386 109.179,271.329 110.486,271.735 111.299 C 272.141 112.111,273.104 113.275,273.875 113.886 C 274.646 114.497,275.599 115.680,275.993 116.516 C 276.387 117.352,277.504 118.759,278.475 119.643 C 279.957 120.991,280.365 121.653,281.003 123.750 C 281.600 125.712,282.141 126.648,283.518 128.099 C 284.870 129.522,285.375 130.385,285.718 131.849 C 286.376 134.664,287.007 136.013,288.374 137.526 C 289.707 139.001,290.117 140.205,290.663 144.245 C 290.945 146.333,291.282 147.264,292.282 148.716 C 294.207 151.511,294.642 153.190,295.203 160.000 C 295.486 163.438,295.957 167.857,296.248 169.821 C 297.291 176.844,297.307 182.013,296.305 188.929 C 295.807 192.366,295.301 196.786,295.180 198.750 C 294.780 205.258,294.371 207.011,292.675 209.489 C 291.560 211.117,291.078 212.235,290.889 213.628 C 290.305 217.941,289.356 220.703,287.884 222.376 C 286.798 223.610,286.215 224.796,285.391 227.448 C 284.582 230.051,284.036 231.173,283.189 231.973 C 282.570 232.557,281.539 234.175,280.899 235.568 C 280.168 237.159,279.324 238.393,278.627 238.889 C 277.910 239.399,277.026 240.716,276.130 242.607 C 275.367 244.218,274.221 246.018,273.584 246.607 C 272.947 247.196,271.897 248.499,271.251 249.501 C 270.605 250.503,269.495 251.682,268.785 252.121 C 268.075 252.560,267.076 253.632,266.566 254.503 C 266.028 255.421,265.016 256.452,264.158 256.956 C 263.344 257.435,262.277 258.489,261.786 259.299 C 261.295 260.110,260.205 261.180,259.365 261.677 C 258.524 262.173,257.350 263.286,256.757 264.149 C 256.163 265.013,255.063 266.032,254.312 266.415 C 253.561 266.798,252.324 267.776,251.563 268.587 C 250.801 269.399,249.054 270.631,247.679 271.326 C 246.304 272.020,244.506 273.205,243.684 273.959 C 242.862 274.712,241.175 275.794,239.934 276.361 C 238.592 276.976,237.352 277.845,236.872 278.508 C 236.227 279.399,235.446 279.815,232.968 280.587 C 230.483 281.362,229.504 281.885,228.022 283.226 C 226.421 284.676,225.846 284.960,223.712 285.353 C 220.567 285.931,219.356 286.432,217.798 287.800 C 216.196 289.207,215.362 289.517,210.382 290.555 C 207.295 291.199,205.804 291.713,204.267 292.661 C 201.957 294.087,198.629 294.987,195.638 294.995 C 192.868 295.002,187.151 296.148,183.313 297.466 C 174.958 300.335,140.228 300.349,134.616 297.486 C 132.573 296.444,127.922 295.448,123.036 295.006 C 117.785 294.532,116.692 294.250,114.137 292.711 C 108.151 289.107,93.192 289.138,90.362 292.761 C 89.936 293.305,89.044 294.082,88.379 294.487 C 87.714 294.893,85.556 296.902,83.585 298.952 C 79.530 303.167,79.709 302.985,77.388 305.271 C 73.173 309.423,71.427 311.275,71.417 311.607 C 71.389 312.430,69.873 313.691,67.549 314.822 C 66.185 315.486,64.963 316.199,64.835 316.407 C 64.369 317.161,63.873 316.750,63.031 314.911 C 62.186 313.063,62.170 312.839,61.994 299.643 C 61.896 292.277,61.645 282.340,61.438 277.561 C 61.043 268.452,61.016 268.314,59.095 265.484 C 58.602 264.757,57.952 263.266,57.652 262.171 C 56.809 259.104,56.552 258.651,55.043 257.592 C 54.272 257.050,53.134 255.840,52.516 254.903 C 51.897 253.966,50.779 252.813,50.031 252.341 C 49.283 251.869,48.238 250.743,47.709 249.840 C 47.179 248.937,46.100 247.771,45.310 247.248 C 44.406 246.650,43.536 245.628,42.960 244.488 C 42.457 243.493,41.500 242.163,40.835 241.533 C 39.676 240.437,37.868 237.145,37.861 236.119 C 37.859 235.851,36.933 234.715,35.804 233.595 C 34.046 231.853,33.652 231.211,33.072 229.143 C 32.644 227.616,31.945 226.189,31.172 225.263 C 29.478 223.236,28.712 221.579,28.422 219.315 C 28.104 216.838,27.514 215.447,26.091 213.827 C 24.691 212.232,24.446 211.369,23.786 205.694 C 23.373 202.140,22.963 200.416,21.808 197.380 C 19.008 190.016,18.772 168.166,21.435 162.857 C 22.638 160.461,23.579 156.668,23.911 152.878 C 24.272 148.767,25.253 145.528,26.473 144.424 C 27.635 143.372,28.215 141.971,28.752 138.918 C 29.326 135.650,29.543 135.166,31.022 133.849 C 32.385 132.636,32.938 131.546,33.759 128.454 C 34.282 126.486,34.642 125.836,35.624 125.087 C 36.323 124.554,37.360 123.128,38.062 121.734 C 38.735 120.397,39.781 118.944,40.393 118.494 C 41.029 118.027,42.084 116.535,42.862 115.000 C 43.609 113.527,44.808 111.759,45.526 111.071 C 46.245 110.384,47.170 109.259,47.582 108.571 C 48.234 107.485,50.554 104.955,54.043 101.526 C 54.597 100.981,56.002 99.602,57.165 98.460 C 58.328 97.318,60.074 95.850,61.045 95.196 C 62.016 94.543,63.387 93.448,64.092 92.764 C 64.796 92.080,66.293 91.028,67.419 90.427 C 68.544 89.826,70.027 88.742,70.714 88.018 C 71.402 87.294,72.937 86.259,74.125 85.719 C 75.314 85.179,76.695 84.250,77.196 83.656 C 78.277 82.370,79.499 81.698,82.159 80.925 C 83.601 80.506,84.615 79.882,85.931 78.607 C 87.444 77.141,88.069 76.796,89.848 76.443 C 93.137 75.792,94.085 75.419,95.208 74.335 C 96.909 72.693,97.893 72.236,100.714 71.777 C 103.901 71.259,105.713 70.598,107.781 69.198 C 109.830 67.811,111.661 67.255,115.714 66.788 C 119.769 66.321,122.572 65.632,125.261 64.443 C 128.896 62.835,131.265 62.429,138.571 62.159 C 148.973 61.774,169.415 61.762,178.975 62.135 " stroke="none" fill="#6a6a6a" fill-rule="evenodd"></path></g></svg>