<svg id="svg" version="1.1" xmlns="http://www.w3.org/2000/svg" xmlns:xlink="http://www.w3.org/1999/xlink" width="400" height="315.7894736842105" viewBox="0, 0, 400,315.7894736842105"><g id="svgg"><path id="path0" d="M71.722 1.047 C 71.722 2.312,70.709 2.907,67.574 3.483 C 63.829 4.171,61.426 5.068,59.856 6.365 C 59.029 7.049,57.700 7.900,56.901 8.257 C 55.954 8.680,54.572 9.840,52.923 11.596 C 51.532 13.076,49.511 15.160,48.430 16.227 C 46.769 17.866,46.365 18.491,45.824 20.255 C 45.472 21.403,44.743 22.896,44.204 23.573 C 42.628 25.549,42.123 26.853,41.890 29.542 C 41.624 32.617,40.920 35.831,39.942 38.428 C 37.214 45.677,37.303 64.342,40.097 70.707 C 40.671 72.014,41.257 74.161,41.548 76.023 C 42.494 82.061,42.588 82.353,44.190 84.183 C 45.385 85.548,45.795 86.337,46.277 88.202 C 46.774 90.120,47.135 90.795,48.360 92.101 C 49.175 92.970,50.141 94.274,50.507 94.999 C 50.873 95.723,51.728 96.716,52.408 97.205 C 53.088 97.694,54.025 98.694,54.489 99.429 C 54.954 100.163,55.807 101.056,56.385 101.413 C 56.962 101.771,57.974 102.720,58.631 103.523 C 59.308 104.348,60.419 105.244,61.189 105.585 C 61.938 105.916,63.198 106.748,63.990 107.433 C 64.924 108.241,66.064 108.853,67.233 109.175 C 70.294 110.017,71.635 110.585,72.859 111.557 C 75.323 113.515,77.558 113.894,86.572 113.884 C 96.109 113.872,97.937 113.567,100.471 111.565 C 101.673 110.615,102.609 110.196,104.494 109.767 C 107.489 109.085,108.525 108.601,109.203 107.566 C 109.489 107.130,110.553 106.286,111.568 105.691 C 114.443 104.006,121.371 97.178,122.550 94.868 C 122.909 94.163,123.681 93.291,124.265 92.930 C 125.472 92.184,126.141 91.008,126.858 88.376 C 127.153 87.289,127.771 86.070,128.378 85.374 C 128.940 84.730,129.583 83.965,129.805 83.674 C 130.028 83.384,130.472 81.667,130.792 79.858 C 131.176 77.683,131.715 75.893,132.384 74.569 C 135.939 67.526,136.030 42.724,132.531 34.274 C 131.936 32.834,131.220 30.336,130.942 28.721 C 130.313 25.080,129.462 22.752,128.432 21.856 C 127.997 21.478,127.211 20.282,126.686 19.198 C 126.161 18.113,125.108 16.585,124.346 15.801 C 118.538 9.828,117.391 8.782,115.712 7.930 C 114.717 7.424,113.488 6.574,112.981 6.040 C 111.911 4.913,111.230 4.660,106.951 3.798 C 102.423 2.886,101.422 2.390,101.422 1.058 C 101.422 0.211,101.296 0.000,100.790 0.000 C 100.281 0.000,100.158 0.211,100.158 1.078 C 100.158 2.494,101.659 3.250,106.185 4.112 C 110.655 4.964,111.487 5.274,112.989 6.644 C 113.703 7.297,114.911 8.110,115.674 8.452 C 116.979 9.038,119.962 11.796,124.176 16.315 C 125.197 17.410,126.103 18.744,126.366 19.539 C 126.612 20.285,127.334 21.490,127.971 22.217 C 129.333 23.771,130.009 25.647,130.662 29.687 C 130.925 31.309,131.552 33.577,132.057 34.727 C 134.054 39.277,134.400 42.194,134.421 54.660 C 134.442 67.381,134.281 68.828,132.391 72.986 C 131.026 75.987,130.634 77.328,130.311 80.095 C 130.014 82.637,129.817 83.081,128.168 84.938 C 127.074 86.170,126.663 86.949,126.357 88.369 C 125.817 90.882,125.325 91.764,124.010 92.576 C 123.393 92.958,122.594 93.846,122.235 94.549 C 121.363 96.258,113.163 104.386,111.456 105.234 C 110.716 105.601,109.537 106.513,108.836 107.259 C 107.763 108.400,107.261 108.674,105.676 108.983 C 102.989 109.505,101.190 110.216,100.046 111.206 C 96.022 114.689,78.372 114.599,73.150 111.069 C 72.278 110.479,70.498 109.687,69.194 109.308 C 66.371 108.487,65.200 107.922,64.139 106.869 C 63.705 106.438,62.628 105.766,61.746 105.375 C 60.734 104.927,59.702 104.127,58.947 103.206 C 58.289 102.403,57.278 101.455,56.701 101.098 C 56.123 100.740,55.265 99.850,54.794 99.118 C 54.324 98.387,53.370 97.362,52.674 96.840 C 51.970 96.312,51.004 95.126,50.492 94.162 C 49.988 93.210,49.106 92.045,48.533 91.573 C 47.699 90.885,47.344 90.196,46.753 88.122 C 46.163 86.050,45.723 85.196,44.562 83.869 C 42.994 82.077,42.729 81.243,42.013 75.829 C 41.817 74.352,41.370 72.362,41.020 71.406 C 38.906 65.644,38.891 65.579,38.544 60.618 C 37.971 52.421,38.856 43.337,40.729 38.181 C 41.474 36.129,42.335 31.201,42.337 28.976 C 42.338 27.285,43.110 25.520,44.358 24.356 C 45.202 23.568,46.445 20.699,46.445 19.540 C 46.445 19.157,47.300 18.006,48.491 16.787 C 55.882 9.215,56.496 8.649,57.715 8.284 C 58.397 8.079,59.543 7.408,60.263 6.792 C 61.973 5.329,63.258 4.817,67.029 4.099 C 71.630 3.222,72.986 2.545,72.986 1.124 C 72.986 0.211,72.867 0.000,72.354 0.000 C 71.849 0.000,71.722 0.211,71.722 1.047 M298.262 1.122 C 298.262 2.465,297.618 2.816,293.681 3.615 C 289.365 4.490,288.032 4.973,287.037 6.022 C 286.521 6.566,285.174 7.490,284.044 8.076 C 280.794 9.760,274.750 15.996,273.284 19.178 C 272.819 20.186,271.990 21.432,271.441 21.946 C 270.325 22.992,269.802 24.474,269.009 28.842 C 268.718 30.443,267.935 33.111,267.270 34.771 C 264.230 42.353,264.071 67.319,267.025 73.142 C 268.427 75.904,268.805 77.095,269.202 79.993 C 269.598 82.882,270.055 83.972,271.590 85.685 C 272.165 86.327,272.794 87.464,272.987 88.213 C 273.747 91.163,274.017 91.660,275.570 92.969 C 276.442 93.704,277.368 94.734,277.628 95.257 C 278.081 96.167,279.978 98.275,282.566 100.744 C 283.230 101.378,284.511 102.626,285.414 103.519 C 286.316 104.412,287.553 105.351,288.162 105.605 C 288.771 105.860,289.889 106.718,290.646 107.512 C 291.840 108.765,292.320 109.025,294.273 109.480 C 297.359 110.197,298.130 110.524,299.563 111.722 C 303.500 115.011,322.957 114.882,327.164 111.539 C 327.911 110.945,329.569 110.217,331.560 109.608 C 333.932 108.882,335.040 108.362,335.861 107.587 C 336.469 107.014,337.607 106.229,338.389 105.845 C 339.614 105.242,340.917 104.104,344.463 100.542 C 348.097 96.891,349.123 95.741,349.597 94.787 C 349.899 94.179,350.825 92.970,351.654 92.101 C 352.943 90.751,353.243 90.185,353.715 88.203 C 354.140 86.422,354.551 85.557,355.489 84.473 C 357.242 82.448,357.331 82.212,358.164 77.373 C 358.637 74.624,359.330 71.939,360.021 70.168 C 361.668 65.955,361.860 64.030,361.675 53.572 C 361.507 44.070,361.277 42.108,359.926 38.677 C 359.196 36.825,358.399 32.916,358.126 29.858 C 357.855 26.816,357.484 25.791,356.063 24.148 C 354.969 22.885,353.870 20.314,353.870 19.020 C 353.870 18.770,352.944 17.623,351.811 16.471 C 350.678 15.319,348.537 13.120,347.053 11.586 C 345.397 9.872,343.827 8.561,342.987 8.190 C 342.235 7.857,340.952 7.034,340.137 6.360 C 338.544 5.044,336.698 4.326,333.145 3.641 C 329.455 2.929,328.594 2.453,328.594 1.122 C 328.594 0.211,328.475 0.000,327.962 0.000 C 327.451 0.000,327.330 0.211,327.330 1.099 C 327.330 2.544,328.744 3.293,332.997 4.104 C 336.733 4.815,338.030 5.331,339.718 6.776 C 340.428 7.383,341.521 8.046,342.147 8.249 C 343.662 8.740,344.892 9.632,345.519 10.693 C 345.801 11.171,346.541 11.910,347.164 12.337 C 347.787 12.763,348.769 13.769,349.347 14.573 C 349.924 15.376,350.890 16.371,351.494 16.784 C 352.766 17.655,353.379 18.762,353.893 21.114 C 354.152 22.296,354.639 23.234,355.534 24.268 C 357.094 26.069,357.661 27.367,357.664 29.137 C 357.667 31.664,358.605 36.733,359.690 40.094 C 362.235 47.972,362.175 62.637,359.569 69.570 C 358.726 71.814,358.189 73.959,357.844 76.461 C 357.181 81.263,356.902 82.168,355.740 83.272 C 354.469 84.480,353.894 85.614,353.214 88.251 C 352.753 90.039,352.386 90.694,351.053 92.103 C 350.170 93.037,349.447 94.039,349.447 94.329 C 349.447 94.776,347.897 96.502,344.147 100.233 C 343.752 100.626,342.543 101.828,341.461 102.903 C 340.380 103.979,338.855 105.135,338.073 105.472 C 337.291 105.809,336.295 106.471,335.861 106.943 C 334.813 108.082,333.975 108.484,330.964 109.296 C 329.487 109.695,327.776 110.428,326.850 111.060 C 321.634 114.616,304.543 114.724,299.861 111.230 C 298.613 110.299,297.555 109.854,295.325 109.319 C 292.684 108.686,292.293 108.493,291.064 107.213 C 290.319 106.438,289.184 105.584,288.540 105.315 C 287.897 105.046,286.649 104.096,285.768 103.203 C 284.887 102.310,283.747 101.202,283.236 100.740 C 281.188 98.889,278.410 95.839,277.954 94.941 C 277.688 94.418,276.750 93.382,275.870 92.640 C 274.709 91.661,274.178 90.944,273.943 90.036 C 273.764 89.347,273.463 88.189,273.274 87.463 C 273.085 86.736,272.542 85.777,272.066 85.330 C 270.491 83.850,270.037 82.790,269.479 79.281 C 269.075 76.740,268.604 75.130,267.662 73.075 C 264.184 65.490,264.432 42.781,268.086 34.152 C 268.558 33.038,269.148 30.834,269.397 29.255 C 270.025 25.266,270.676 23.406,271.895 22.117 C 272.470 21.509,273.271 20.266,273.674 19.356 C 274.759 16.908,281.610 9.787,284.000 8.623 C 284.980 8.146,286.359 7.226,287.064 6.579 C 288.385 5.367,290.288 4.710,295.086 3.808 C 298.270 3.210,299.526 2.443,299.526 1.099 C 299.526 0.211,299.405 0.000,298.894 0.000 C 298.381 0.000,298.262 0.211,298.262 1.122 M82.148 15.175 C 79.976 15.468,77.062 15.934,75.671 16.212 C 74.281 16.490,72.296 16.815,71.261 16.934 C 69.584 17.127,69.204 17.314,67.785 18.645 C 66.909 19.467,65.695 20.391,65.087 20.698 C 63.231 21.635,59.494 25.677,58.593 27.721 C 58.152 28.722,57.363 30.076,56.840 30.730 C 55.307 32.645,54.979 33.862,54.491 39.433 C 54.237 42.334,53.878 46.201,53.693 48.025 C 53.243 52.460,53.228 60.090,53.665 62.243 C 53.859 63.199,54.226 66.216,54.480 68.947 C 54.979 74.296,55.020 74.433,56.700 76.445 C 57.357 77.230,58.024 78.523,58.314 79.572 C 59.130 82.517,59.439 83.098,60.745 84.147 C 61.432 84.699,62.283 85.719,62.635 86.414 C 63.434 87.989,67.466 92.007,69.089 92.844 C 69.755 93.188,70.956 94.170,71.758 95.026 C 73.104 96.463,73.432 96.637,76.023 97.285 C 77.592 97.677,79.738 98.501,80.885 99.151 C 83.868 100.843,89.476 100.920,92.263 99.309 C 93.222 98.755,95.141 97.991,96.529 97.613 C 99.599 96.775,100.358 96.398,101.580 95.102 C 102.101 94.549,103.088 93.809,103.773 93.457 C 105.455 92.592,108.820 89.300,110.003 87.362 C 110.534 86.493,111.394 85.440,111.915 85.022 C 112.484 84.566,113.397 83.116,114.204 81.389 C 114.942 79.808,115.845 78.250,116.211 77.925 C 117.074 77.161,118.063 74.048,118.332 71.248 C 118.449 70.032,118.942 67.828,119.428 66.351 C 121.470 60.139,121.595 53.175,119.810 45.182 C 119.286 42.836,118.628 39.210,118.347 37.125 C 118.067 35.039,117.761 32.858,117.667 32.278 C 117.566 31.653,116.984 30.667,116.239 29.859 C 115.548 29.110,114.553 27.609,114.028 26.524 C 112.855 24.103,110.678 21.861,108.373 20.701 C 107.417 20.220,105.978 19.216,105.175 18.469 C 103.998 17.376,103.416 17.076,102.173 16.924 C 101.326 16.820,99.068 16.457,97.156 16.118 C 93.861 15.532,90.156 15.019,87.362 14.760 C 86.667 14.696,84.321 14.883,82.148 15.175 M307.899 15.309 C 306.509 15.547,304.109 15.967,302.565 16.243 C 301.022 16.520,299.387 16.746,298.932 16.747 C 297.290 16.751,295.632 17.452,294.353 18.685 C 293.636 19.376,292.445 20.210,291.706 20.538 C 289.634 21.457,287.036 24.111,285.944 26.424 C 285.422 27.528,284.492 28.965,283.877 29.616 C 282.573 30.999,282.350 31.726,281.673 36.791 C 281.395 38.866,280.745 42.453,280.229 44.763 C 278.288 53.442,278.408 60.639,280.592 66.606 C 280.929 67.529,281.413 69.666,281.667 71.357 C 282.243 75.190,282.744 76.626,284.148 78.465 C 284.756 79.263,285.561 80.735,285.936 81.736 C 286.366 82.887,287.190 84.163,288.174 85.204 C 289.031 86.109,289.731 87.002,289.731 87.188 C 289.731 87.813,294.596 92.626,295.883 93.275 C 296.584 93.628,297.733 94.513,298.438 95.241 C 299.555 96.396,300.114 96.675,302.807 97.422 C 304.506 97.893,306.773 98.732,307.845 99.287 C 309.704 100.248,309.964 100.295,313.428 100.299 L 317.062 100.302 319.431 99.010 C 320.735 98.300,322.654 97.548,323.697 97.340 C 326.521 96.776,327.108 96.472,328.428 94.894 C 329.090 94.101,330.104 93.256,330.682 93.014 C 332.071 92.434,336.253 88.281,337.079 86.662 C 337.439 85.957,338.309 84.923,339.014 84.365 C 340.565 83.137,340.858 82.619,341.570 79.852 C 341.887 78.620,342.506 77.222,343.021 76.579 C 344.830 74.315,345.014 73.816,345.346 70.272 C 345.524 68.376,345.901 64.910,346.183 62.571 C 346.756 57.824,346.632 51.327,345.816 43.444 C 345.564 41.011,345.351 38.167,345.342 37.125 C 345.322 34.931,344.376 32.342,342.906 30.462 C 342.374 29.782,341.682 28.529,341.367 27.677 C 340.712 25.906,336.746 21.616,334.913 20.695 C 334.305 20.389,333.094 19.470,332.222 18.652 C 330.708 17.232,330.515 17.148,327.957 16.798 C 326.483 16.596,323.712 16.145,321.801 15.795 C 317.243 14.961,311.182 14.749,307.899 15.309 M92.417 15.933 C 104.430 17.662,103.263 17.391,104.865 18.828 C 105.665 19.546,107.030 20.497,107.899 20.942 C 109.947 21.990,112.903 25.024,113.750 26.947 C 114.117 27.780,115.047 29.171,115.818 30.038 C 116.589 30.906,117.220 31.738,117.220 31.885 C 117.220 32.838,118.614 42.294,119.296 45.972 C 120.709 53.583,120.714 59.118,119.310 64.536 C 118.691 66.927,118.032 70.110,117.846 71.611 C 117.459 74.726,116.994 76.016,115.645 77.719 C 115.122 78.380,114.272 79.967,113.756 81.245 C 113.106 82.858,112.440 83.909,111.579 84.676 C 110.897 85.284,110.108 86.242,109.825 86.803 C 109.180 88.083,105.123 92.129,103.819 92.793 C 103.282 93.065,102.117 93.970,101.229 94.803 C 100.142 95.824,99.162 96.429,98.228 96.659 C 95.256 97.389,93.307 98.043,91.943 98.767 C 88.873 100.396,84.090 100.267,80.885 98.469 C 80.103 98.030,78.183 97.359,76.619 96.977 C 74.007 96.340,73.634 96.149,72.038 94.621 C 71.082 93.706,69.827 92.720,69.248 92.429 C 67.856 91.730,63.744 87.636,63.040 86.248 C 62.733 85.644,61.808 84.510,60.984 83.728 C 59.667 82.480,59.417 82.024,58.927 79.986 C 58.543 78.388,58.041 77.257,57.315 76.353 C 55.239 73.769,55.434 74.739,54.003 59.874 C 53.685 56.565,53.750 54.554,54.519 43.918 C 55.198 34.532,55.488 33.250,57.515 30.648 C 57.989 30.039,58.634 28.845,58.949 27.993 C 59.606 26.217,63.579 21.923,65.403 21.018 C 66.011 20.716,67.148 19.853,67.930 19.099 C 70.505 16.619,84.557 14.802,92.417 15.933 M319.115 15.954 C 328.835 17.142,330.461 17.534,332.048 19.071 C 332.842 19.840,333.989 20.717,334.597 21.021 C 336.601 22.020,340.267 26.060,341.100 28.187 C 341.511 29.234,342.232 30.596,342.703 31.213 C 344.085 33.026,345.007 35.630,345.020 37.757 C 345.026 38.799,345.246 42.070,345.509 45.024 C 345.974 50.257,346.186 60.662,345.847 61.611 C 345.754 61.872,345.451 64.552,345.173 67.567 C 344.602 73.770,344.561 73.925,343.029 75.758 C 341.920 77.086,341.735 77.512,340.785 80.923 C 340.389 82.347,340.016 82.924,338.908 83.832 C 338.148 84.455,337.278 85.487,336.975 86.126 C 336.305 87.537,331.297 92.575,330.564 92.575 C 330.275 92.575,329.284 93.374,328.361 94.350 C 326.743 96.061,326.574 96.151,323.639 96.878 C 321.964 97.293,319.942 97.997,319.145 98.442 C 315.839 100.290,311.611 100.349,307.899 98.599 C 306.856 98.108,304.937 97.456,303.633 97.150 C 300.747 96.473,299.766 95.999,298.648 94.742 C 298.175 94.209,297.265 93.506,296.626 93.179 C 295.149 92.424,291.481 88.983,290.601 87.526 C 290.231 86.914,289.196 85.613,288.302 84.635 C 287.233 83.466,286.536 82.358,286.268 81.402 C 286.044 80.602,285.242 79.070,284.486 77.996 C 282.895 75.735,282.628 75.002,282.148 71.564 C 281.954 70.174,281.534 68.041,281.215 66.825 C 279.233 59.272,279.060 55.056,280.415 47.393 C 281.214 42.881,282.762 32.768,282.774 31.983 C 282.778 31.762,283.331 30.980,284.005 30.246 C 284.678 29.511,285.670 28.031,286.210 26.956 C 287.388 24.612,289.829 22.082,291.952 21.006 C 292.804 20.575,294.205 19.597,295.064 18.834 C 296.451 17.602,296.852 17.422,298.629 17.230 C 299.731 17.112,301.912 16.810,303.476 16.559 C 310.693 15.403,313.671 15.288,319.115 15.954 M194.155 41.291 C 181.139 41.956,179.327 42.239,176.339 44.074 C 175.339 44.688,173.601 45.380,172.354 45.661 C 169.075 46.399,169.045 46.413,167.481 47.867 C 166.685 48.606,165.131 49.665,164.027 50.219 C 162.834 50.818,161.423 51.877,160.551 52.827 C 159.744 53.707,158.569 54.754,157.939 55.154 C 157.176 55.639,156.372 56.652,155.525 58.193 C 154.827 59.465,153.941 60.790,153.556 61.137 C 152.610 61.992,151.528 63.944,150.870 65.985 C 150.570 66.913,149.913 68.141,149.410 68.715 C 147.992 70.329,147.222 72.428,146.898 75.560 C 146.544 78.985,145.882 81.970,145.030 83.987 C 141.821 91.579,141.891 118.412,145.137 125.676 C 146.245 128.154,146.602 129.579,147.255 134.123 C 147.659 136.939,148.043 137.862,149.289 139.021 C 150.453 140.102,150.897 141.049,151.366 143.448 C 151.716 145.240,151.963 145.696,153.327 147.077 C 154.185 147.946,155.161 149.285,155.496 150.052 C 155.830 150.819,156.627 151.940,157.266 152.543 C 157.905 153.146,158.882 154.358,159.436 155.238 C 160.961 157.656,166.963 163.482,169.105 164.624 C 170.106 165.158,171.306 166.093,171.770 166.702 C 172.741 167.975,173.654 168.503,176.306 169.329 C 177.346 169.653,178.721 170.377,179.360 170.938 C 180.965 172.347,182.086 172.753,185.848 173.285 C 187.636 173.538,190.521 174.214,192.259 174.787 C 196.385 176.148,203.345 176.308,206.233 175.108 C 207.993 174.378,213.548 173.144,215.079 173.144 C 216.747 173.144,219.121 172.229,220.488 171.059 C 221.259 170.399,222.632 169.659,223.709 169.324 C 226.337 168.506,227.260 167.973,228.214 166.722 C 228.670 166.124,229.796 165.202,230.715 164.674 C 233.043 163.334,238.853 157.755,240.576 155.205 C 241.365 154.037,242.348 152.841,242.760 152.548 C 243.172 152.255,243.875 151.243,244.322 150.298 C 244.769 149.353,245.836 147.886,246.692 147.039 C 248.105 145.640,248.286 145.293,248.650 143.286 C 249.080 140.912,249.685 139.708,251.167 138.271 C 252.151 137.319,252.291 136.840,253.251 131.122 C 253.529 129.471,254.114 127.267,254.551 126.224 C 256.959 120.488,257.343 116.991,257.085 103.160 C 256.879 92.139,256.671 90.276,255.147 85.788 C 253.866 82.015,253.492 80.221,253.083 75.887 C 252.758 72.441,252.029 70.271,250.730 68.878 C 249.844 67.928,249.239 66.743,248.525 64.559 C 248.231 63.661,247.443 62.303,246.773 61.542 C 246.103 60.781,245.030 59.202,244.387 58.033 C 243.588 56.579,242.783 55.609,241.837 54.958 C 241.077 54.434,239.990 53.427,239.422 52.719 C 238.766 51.901,237.581 51.026,236.177 50.322 C 234.961 49.711,233.315 48.607,232.519 47.868 C 230.927 46.387,230.870 46.362,227.522 45.676 C 225.874 45.338,224.693 44.857,223.508 44.041 C 220.288 41.823,207.388 40.614,194.155 41.291 M210.249 55.980 C 211.620 56.191,213.158 56.706,214.356 57.356 C 215.410 57.928,217.409 58.639,218.799 58.937 C 222.076 59.639,223.156 60.098,225.133 61.623 C 226.028 62.313,227.489 63.277,228.380 63.764 C 229.583 64.422,230.324 65.150,231.252 66.586 C 231.940 67.650,232.846 68.746,233.265 69.020 C 234.127 69.585,234.511 70.318,235.589 73.454 C 236.006 74.668,236.795 76.218,237.342 76.899 C 238.814 78.730,239.195 80.189,239.674 85.820 C 239.912 88.621,240.421 93.171,240.804 95.931 C 241.771 102.876,241.771 109.939,240.807 115.324 C 240.417 117.496,239.890 121.051,239.635 123.223 C 239.103 127.742,238.787 128.911,237.869 129.741 C 236.862 130.652,236.059 132.463,235.544 134.985 C 235.125 137.039,234.928 137.417,233.687 138.547 C 232.923 139.242,231.872 140.664,231.350 141.706 C 230.829 142.749,229.626 144.472,228.677 145.535 C 227.728 146.598,226.559 147.983,226.078 148.613 C 225.598 149.243,224.261 150.424,223.108 151.238 C 221.955 152.051,220.501 153.169,219.878 153.720 C 219.254 154.272,217.710 155.119,216.445 155.602 C 215.180 156.086,213.677 156.892,213.105 157.394 C 209.218 160.808,189.869 160.788,186.591 157.366 C 186.083 156.836,184.699 156.040,183.467 155.569 C 182.251 155.104,180.746 154.272,180.122 153.720 C 179.499 153.169,178.034 152.043,176.867 151.220 C 175.700 150.396,174.284 149.127,173.720 148.400 C 173.157 147.673,171.957 146.266,171.054 145.275 C 170.150 144.283,169.053 142.719,168.615 141.799 C 168.177 140.879,167.234 139.558,166.518 138.864 C 165.245 137.628,165.018 137.111,163.991 133.116 C 163.804 132.388,163.101 131.096,162.427 130.244 C 161.064 128.520,160.712 127.231,160.208 122.110 C 160.036 120.369,159.692 117.952,159.443 116.739 C 158.027 109.833,158.016 105.677,159.389 94.471 C 159.804 91.082,160.238 86.959,160.354 85.308 C 160.636 81.282,161.183 79.270,162.529 77.310 C 163.148 76.409,163.994 74.668,164.410 73.441 C 165.418 70.468,166.004 69.391,166.951 68.770 C 167.385 68.486,168.211 67.447,168.787 66.463 C 169.607 65.058,170.203 64.472,171.549 63.745 C 172.492 63.236,173.841 62.351,174.547 61.780 C 176.419 60.265,177.471 59.811,180.769 59.093 C 182.397 58.739,184.724 57.972,185.940 57.388 C 189.994 55.442,202.168 54.737,210.249 55.980 M63.981 117.073 C 63.807 117.139,61.248 117.417,58.294 117.690 C 52.164 118.258,51.014 118.508,48.815 119.745 C 46.893 120.828,45.605 121.198,41.686 121.797 C 38.242 122.322,36.928 122.802,34.822 124.301 C 34.003 124.884,32.054 125.764,30.490 126.257 C 28.401 126.915,27.311 127.462,26.382 128.315 C 25.687 128.953,24.312 129.857,23.327 130.324 C 22.103 130.903,21.277 131.563,20.717 132.408 C 20.267 133.089,19.322 134.009,18.617 134.454 C 17.913 134.899,17.053 135.742,16.708 136.328 C 16.363 136.913,15.432 137.924,14.639 138.573 C 13.648 139.385,12.925 140.363,12.323 141.703 C 11.842 142.776,11.005 144.159,10.463 144.776 C 9.200 146.214,8.723 147.393,8.061 150.711 C 7.751 152.264,7.052 154.329,6.403 155.608 C 4.622 159.118,4.432 160.246,3.955 170.142 C 2.663 196.945,2.719 202.677,4.299 205.444 C 5.412 207.392,13.053 214.328,15.011 215.167 C 15.829 215.518,17.125 216.356,17.889 217.029 C 18.879 217.900,20.072 218.511,22.028 219.147 C 23.539 219.638,25.582 220.579,26.567 221.237 C 28.875 222.778,30.240 223.244,33.680 223.665 C 35.866 223.932,37.041 224.283,39.016 225.258 C 42.004 226.734,44.989 227.392,50.636 227.822 C 55.738 228.210,58.105 228.542,62.638 229.504 C 68.263 230.697,74.828 231.221,85.247 231.308 C 92.019 231.365,91.859 231.435,93.706 227.646 C 94.300 226.430,95.141 224.951,95.576 224.361 C 96.011 223.770,96.361 223.131,96.354 222.939 C 96.347 222.748,96.121 222.997,95.852 223.493 C 95.583 223.989,94.882 225.026,94.294 225.796 C 93.706 226.567,93.054 227.768,92.845 228.466 C 92.089 230.987,92.035 230.998,81.473 230.659 C 71.502 230.339,68.920 230.092,63.033 228.896 C 60.948 228.472,57.322 227.977,54.976 227.795 C 45.368 227.049,42.986 226.588,39.279 224.761 C 37.504 223.886,36.283 223.547,33.676 223.205 C 30.325 222.765,28.924 222.254,26.888 220.730 C 26.297 220.288,24.464 219.476,22.815 218.927 C 20.774 218.247,19.441 217.588,18.639 216.864 C 17.992 216.279,16.625 215.434,15.603 214.987 C 14.557 214.529,12.994 213.458,12.029 212.537 C 7.126 207.857,4.425 205.002,4.292 204.355 C 4.210 203.958,3.959 202.852,3.734 201.896 C 3.508 200.940,3.350 199.945,3.383 199.684 C 3.416 199.423,3.597 194.021,3.785 187.678 C 4.587 160.692,4.644 160.078,6.691 156.472 C 7.276 155.441,7.874 153.636,8.263 151.732 C 8.986 148.186,9.730 146.330,11.017 144.865 C 11.518 144.294,12.176 143.136,12.478 142.292 C 12.838 141.286,13.591 140.215,14.668 139.179 C 15.570 138.310,16.688 137.079,17.152 136.444 C 17.616 135.809,18.478 134.991,19.066 134.627 C 19.655 134.264,20.498 133.420,20.940 132.753 C 21.492 131.918,22.318 131.269,23.589 130.672 C 24.604 130.196,25.861 129.407,26.382 128.919 C 27.601 127.779,28.698 127.241,31.488 126.412 C 32.733 126.043,34.493 125.230,35.399 124.607 C 37.769 122.976,38.902 122.582,42.605 122.095 C 46.419 121.595,47.754 121.209,49.289 120.164 C 51.014 118.990,53.096 118.546,59.384 118.009 C 67.171 117.344,69.086 117.707,71.269 120.262 C 72.314 121.485,73.129 122.085,74.381 122.554 C 75.314 122.903,77.069 123.694,78.281 124.312 C 83.151 126.793,92.384 126.708,95.601 124.151 C 96.241 123.643,97.631 122.911,98.690 122.525 C 99.975 122.056,101.038 121.384,101.887 120.501 C 102.690 119.667,103.918 118.868,105.213 118.337 L 107.267 117.497 113.902 118.009 C 120.488 118.518,120.556 118.530,123.065 119.731 C 126.721 121.480,127.017 121.576,130.079 122.002 C 134.239 122.582,134.431 122.841,134.718 128.281 C 134.843 130.625,135.008 133.486,135.086 134.638 C 135.245 137.000,135.026 137.360,133.253 137.647 C 132.360 137.792,131.977 137.658,131.092 136.889 C 129.459 135.470,128.789 135.211,125.482 134.720 C 121.590 134.143,119.359 133.503,117.378 132.396 C 116.234 131.757,115.200 131.468,113.633 131.351 L 111.468 131.189 110.113 132.524 C 108.647 133.970,108.072 134.246,104.793 135.080 C 103.605 135.382,102.231 135.969,101.738 136.383 C 97.915 139.600,76.896 140.182,72.709 137.188 C 70.752 135.788,70.127 135.478,67.743 134.727 C 65.231 133.936,64.865 133.750,62.328 131.977 C 60.718 130.852,58.240 131.141,54.823 132.852 C 53.082 133.725,51.739 134.099,48.557 134.600 C 44.607 135.222,43.109 135.752,41.366 137.147 C 40.918 137.505,39.369 138.142,37.924 138.562 C 35.631 139.229,35.064 139.548,33.470 141.069 C 32.465 142.028,31.473 142.812,31.267 142.812 C 30.571 142.812,25.420 148.315,24.678 149.851 C 24.276 150.681,23.472 151.723,22.891 152.166 C 21.689 153.083,21.355 153.947,20.843 157.472 C 20.507 159.782,20.072 161.265,18.371 165.897 C 17.322 168.754,17.053 172.023,16.848 184.380 C 16.595 199.641,16.605 199.683,21.083 202.551 C 22.260 203.305,23.736 204.371,24.364 204.922 C 25.043 205.518,26.535 206.265,28.055 206.771 C 29.457 207.238,31.455 208.191,32.494 208.889 C 33.966 209.878,34.861 210.228,36.544 210.475 C 41.287 211.170,43.801 211.725,44.937 212.325 C 45.593 212.671,46.663 213.229,47.314 213.565 C 48.835 214.349,52.646 214.778,60.190 215.013 C 63.491 215.116,69.036 215.408,72.512 215.662 C 81.063 216.288,89.597 216.350,92.500 215.808 C 95.095 215.323,96.338 215.918,96.391 217.670 C 96.405 218.117,96.490 218.300,96.580 218.075 C 97.507 215.764,95.763 215.091,89.854 215.481 C 86.403 215.709,82.958 215.712,78.831 215.492 C 75.529 215.315,69.202 215.027,64.771 214.852 C 52.047 214.349,48.662 213.908,46.482 212.469 C 45.101 211.557,42.636 210.905,38.298 210.304 C 35.388 209.901,34.835 209.715,33.008 208.525 C 31.887 207.794,29.822 206.845,28.420 206.416 C 26.563 205.847,25.454 205.279,24.332 204.319 C 23.485 203.594,21.800 202.333,20.587 201.515 C 16.896 199.027,16.921 199.161,17.335 183.886 C 17.678 171.196,18.029 167.661,19.163 165.469 C 19.915 164.015,20.490 161.892,21.182 158.014 C 21.902 153.985,22.109 153.471,23.469 152.326 C 23.995 151.884,24.703 150.892,25.043 150.123 C 25.670 148.707,30.895 143.128,31.595 143.128 C 31.795 143.128,32.785 142.340,33.795 141.377 C 35.443 139.804,35.905 139.552,38.304 138.911 C 40.066 138.441,41.506 137.815,42.527 137.076 C 44.179 135.879,45.431 135.489,49.447 134.920 C 52.319 134.513,54.697 133.829,56.082 133.013 C 56.941 132.507,59.759 131.754,60.793 131.754 C 61.020 131.754,61.831 132.250,62.594 132.856 C 63.464 133.548,65.099 134.328,66.983 134.950 C 68.633 135.495,70.411 136.258,70.932 136.644 C 74.002 138.921,76.369 139.336,86.264 139.336 C 96.972 139.336,99.054 139.003,102.212 136.780 C 102.907 136.291,104.484 135.615,105.716 135.278 C 108.468 134.525,109.527 133.987,110.713 132.740 C 111.840 131.555,114.424 131.631,117.013 132.925 C 118.876 133.856,122.131 134.705,125.826 135.223 C 128.091 135.540,128.824 135.788,129.901 136.604 C 130.624 137.151,131.483 137.797,131.812 138.040 C 132.288 138.392,132.649 138.410,133.588 138.128 C 135.965 137.416,135.933 137.512,135.396 132.701 C 135.134 130.355,134.918 127.481,134.916 126.314 C 134.913 123.957,133.706 121.965,132.274 121.953 C 130.645 121.940,127.004 120.925,124.812 119.873 C 121.560 118.312,121.059 118.183,116.904 117.836 C 114.905 117.669,111.949 117.401,110.334 117.241 C 106.671 116.878,103.814 117.838,101.562 120.189 C 100.668 121.121,99.698 121.745,98.543 122.129 C 97.606 122.440,96.172 123.105,95.355 123.608 C 91.072 126.243,83.986 126.312,78.469 123.771 C 76.757 122.982,74.821 122.169,74.168 121.965 C 73.405 121.725,72.520 121.046,71.693 120.065 C 70.352 118.475,69.894 118.218,66.934 117.398 C 65.159 116.907,64.587 116.844,63.981 117.073 M286.888 117.402 C 279.573 118.135,278.564 118.342,275.537 119.736 C 273.852 120.513,271.472 121.296,269.753 121.641 C 265.479 122.499,265.249 122.816,264.990 128.237 C 264.778 132.664,264.276 134.470,262.921 135.673 C 260.178 138.109,266.210 139.665,269.289 137.315 C 271.316 135.768,271.554 135.676,275.039 135.099 C 279.046 134.436,281.339 133.791,282.938 132.878 C 285.287 131.538,288.207 131.514,289.517 132.824 C 290.856 134.163,291.916 134.713,294.155 135.230 C 295.975 135.650,297.402 136.325,299.143 137.588 C 301.191 139.074,308.403 139.704,318.641 139.290 C 324.362 139.059,326.092 138.650,328.449 136.972 C 329.335 136.341,331.320 135.434,333.017 134.884 C 334.856 134.289,336.559 133.494,337.414 132.833 C 338.181 132.239,339.034 131.757,339.309 131.761 C 340.497 131.780,342.791 132.468,344.550 133.333 C 345.886 133.990,347.650 134.463,350.529 134.934 C 355.269 135.710,355.551 135.801,357.629 137.231 C 358.573 137.880,360.236 138.586,361.824 139.013 C 364.108 139.626,364.686 139.933,366.205 141.345 C 367.168 142.239,368.403 143.207,368.949 143.496 C 369.496 143.786,370.290 144.573,370.715 145.246 C 371.140 145.919,372.002 146.820,372.631 147.247 C 373.347 147.735,374.179 148.794,374.857 150.081 C 375.453 151.212,376.322 152.492,376.788 152.925 C 377.893 153.953,378.108 154.559,378.987 159.121 C 379.393 161.227,380.106 163.902,380.572 165.066 C 381.966 168.551,382.278 171.286,382.646 183.254 C 383.027 195.623,382.975 196.807,381.962 198.792 C 381.207 200.273,381.092 200.384,378.515 202.110 C 377.559 202.750,376.164 203.807,375.415 204.459 C 374.466 205.283,373.240 205.902,371.379 206.495 C 369.909 206.963,368.172 207.733,367.519 208.206 C 365.505 209.665,364.989 209.835,360.725 210.452 C 355.894 211.151,354.845 211.448,352.914 212.662 C 350.300 214.306,336.318 215.300,315.199 215.344 L 304.490 215.367 303.709 216.274 C 302.553 217.618,302.776 221.563,304.158 224.225 C 306.707 229.137,307.498 230.353,308.465 230.853 C 310.441 231.875,331.589 231.016,336.809 229.702 C 340.547 228.760,344.517 228.155,349.131 227.822 C 355.122 227.391,357.988 226.772,361.016 225.258 C 363.089 224.221,364.181 223.897,366.704 223.568 C 369.854 223.156,371.580 222.482,374.015 220.713 C 374.580 220.302,376.072 219.653,377.328 219.272 C 380.102 218.429,381.626 217.677,382.464 216.736 C 382.812 216.346,383.952 215.641,384.998 215.169 C 386.084 214.678,387.356 213.790,387.965 213.096 C 388.552 212.429,389.562 211.519,390.210 211.075 C 392.362 209.602,396.310 204.978,396.998 203.124 C 397.595 201.518,397.697 201.416,398.815 201.324 L 400.000 201.226 400.000 196.979 L 400.000 192.733 398.894 192.733 L 397.788 192.733 397.783 190.600 C 397.781 189.427,397.643 186.833,397.478 184.834 C 397.313 182.836,396.955 177.859,396.683 173.776 C 395.890 161.845,395.412 159.176,393.479 155.878 C 393.037 155.124,392.429 153.196,392.080 151.443 C 391.321 147.634,390.758 146.167,389.514 144.749 C 388.984 144.147,388.158 142.776,387.677 141.703 C 387.075 140.363,386.352 139.385,385.361 138.573 C 384.568 137.924,383.637 136.913,383.292 136.328 C 382.947 135.742,382.087 134.899,381.383 134.454 C 380.678 134.009,379.733 133.089,379.283 132.408 C 378.723 131.563,377.897 130.903,376.673 130.324 C 375.688 129.857,374.313 128.953,373.618 128.315 C 372.703 127.475,371.593 126.912,369.603 126.279 C 368.090 125.798,366.110 124.894,365.203 124.270 C 363.171 122.872,360.982 122.092,358.294 121.808 C 355.235 121.484,352.649 120.757,350.794 119.700 C 348.521 118.406,347.942 118.274,341.758 117.643 C 332.769 116.726,331.047 117.017,328.436 119.895 C 327.506 120.921,326.401 121.786,325.750 121.999 C 325.142 122.198,323.208 122.979,321.453 123.734 C 315.517 126.289,309.218 126.279,304.897 123.708 C 303.942 123.140,302.394 122.424,301.457 122.119 C 300.291 121.738,299.340 121.130,298.438 120.189 C 297.085 118.776,293.194 116.866,291.821 116.939 C 291.454 116.959,289.234 117.167,286.888 117.402 M294.900 118.442 C 296.295 119.031,297.373 119.742,297.972 120.468 C 298.616 121.250,299.557 121.841,301.089 122.427 C 302.296 122.888,303.797 123.672,304.423 124.170 C 307.766 126.827,316.313 126.769,322.266 124.048 C 323.922 123.292,325.735 122.496,326.295 122.281 C 326.855 122.066,327.955 121.138,328.740 120.219 C 330.890 117.702,332.807 117.339,340.476 117.999 C 347.706 118.622,349.228 118.989,351.027 120.547 C 351.683 121.115,354.856 121.891,357.504 122.130 C 360.495 122.400,362.350 123.030,364.524 124.514 C 365.529 125.199,367.346 126.058,368.562 126.422 C 371.308 127.244,372.406 127.786,373.618 128.919 C 374.139 129.407,375.396 130.196,376.411 130.672 C 377.682 131.269,378.508 131.918,379.060 132.753 C 379.502 133.420,380.345 134.264,380.934 134.627 C 381.522 134.991,382.384 135.809,382.848 136.444 C 383.312 137.079,384.430 138.310,385.332 139.179 C 386.409 140.215,387.162 141.286,387.522 142.292 C 387.824 143.136,388.482 144.294,388.983 144.865 C 390.291 146.354,391.088 148.356,391.645 151.552 C 391.964 153.383,392.605 155.377,393.508 157.346 C 395.177 160.988,395.450 162.375,395.881 169.404 C 396.380 177.539,396.798 184.852,396.997 188.942 C 397.094 190.940,397.331 194.315,397.523 196.442 C 397.787 199.361,397.782 200.416,397.504 200.751 C 397.302 200.995,396.786 202.089,396.357 203.183 C 395.696 204.869,395.109 205.622,392.497 208.130 C 390.802 209.757,388.705 211.783,387.836 212.632 C 386.931 213.515,385.445 214.529,384.360 215.003 C 383.318 215.458,382.015 216.265,381.466 216.797 C 380.774 217.466,379.462 218.096,377.200 218.846 C 375.404 219.441,373.436 220.328,372.828 220.816 C 370.956 222.318,369.819 222.735,366.367 223.185 C 363.785 223.521,362.525 223.868,360.745 224.731 C 357.106 226.497,352.694 227.488,348.474 227.488 C 345.708 227.488,339.579 228.291,336.335 229.078 C 327.141 231.309,307.425 231.423,307.425 229.245 C 307.425 229.018,306.717 227.749,305.852 226.423 C 301.698 220.060,302.518 215.004,307.581 215.757 C 310.467 216.186,320.888 216.207,325.276 215.793 C 327.014 215.628,332.204 215.352,336.809 215.178 C 348.633 214.732,351.063 214.427,353.239 213.113 C 355.290 211.876,357.688 211.205,361.673 210.753 C 365.079 210.368,365.652 210.177,367.760 208.727 C 368.631 208.128,370.496 207.254,371.904 206.785 C 373.598 206.221,374.962 205.513,375.937 204.692 C 376.746 204.009,378.333 202.848,379.463 202.112 C 382.904 199.870,383.074 199.311,383.198 189.889 C 383.380 176.081,382.723 168.393,381.039 164.613 C 380.535 163.483,379.763 160.742,379.322 158.521 C 378.483 154.289,377.934 152.825,376.999 152.325 C 376.690 152.159,375.885 151.017,375.211 149.787 C 374.418 148.341,373.619 147.335,372.949 146.940 C 372.380 146.604,371.542 145.739,371.086 145.018 C 370.631 144.297,369.812 143.470,369.265 143.180 C 368.719 142.891,367.464 141.901,366.478 140.981 C 364.948 139.554,364.327 139.211,362.264 138.650 C 360.767 138.243,359.064 137.480,357.797 136.647 C 355.939 135.427,355.417 135.252,352.203 134.773 C 347.741 134.107,345.804 133.563,344.346 132.565 C 341.782 130.809,338.725 130.868,336.598 132.715 C 335.982 133.250,334.381 133.962,332.433 134.567 C 330.689 135.109,328.845 135.907,328.325 136.344 C 325.642 138.602,322.110 139.143,311.392 138.939 C 302.746 138.775,301.604 138.563,298.624 136.574 C 297.389 135.749,296.012 135.137,294.863 134.902 C 292.117 134.340,291.422 134.005,289.908 132.512 L 288.517 131.141 286.360 131.326 C 284.841 131.456,283.723 131.774,282.586 132.401 C 280.546 133.524,278.380 134.148,274.528 134.719 C 271.428 135.179,269.975 135.711,269.171 136.678 C 268.395 137.614,267.174 137.922,264.898 137.757 C 262.325 137.570,261.951 137.015,263.464 135.627 C 264.831 134.373,265.090 133.408,265.302 128.776 C 265.564 123.039,265.870 122.537,269.352 122.135 C 272.262 121.800,273.535 121.408,276.619 119.903 C 279.397 118.546,279.580 118.504,284.518 118.069 C 292.112 117.399,292.458 117.412,294.900 118.442 M173.934 180.268 C 173.760 180.336,171.556 180.531,169.036 180.702 C 164.221 181.030,159.812 181.972,157.502 183.166 C 155.835 184.028,154.165 184.460,150.971 184.856 C 146.991 185.349,144.717 186.020,142.943 187.224 C 141.777 188.015,140.529 188.491,138.397 188.956 C 135.070 189.683,134.694 189.846,132.657 191.454 C 131.825 192.112,130.323 192.873,129.182 193.216 C 127.633 193.681,126.846 194.151,125.750 195.268 C 124.968 196.065,123.618 197.105,122.749 197.580 C 120.243 198.948,114.322 204.847,113.183 207.109 C 112.659 208.152,111.791 209.327,111.254 209.721 C 110.179 210.511,109.589 211.499,108.819 213.798 C 108.538 214.637,107.757 216.044,107.083 216.924 C 105.544 218.936,105.048 220.351,104.768 223.539 C 104.616 225.265,104.058 227.518,103.006 230.648 C 101.035 236.513,100.874 237.883,100.490 252.133 C 99.788 278.149,99.779 279.604,100.292 282.422 C 100.818 285.313,100.838 285.350,103.147 287.760 C 107.719 292.533,110.075 294.692,111.491 295.406 C 112.250 295.789,113.410 296.651,114.069 297.323 C 114.991 298.264,115.822 298.712,117.682 299.272 C 119.488 299.817,120.543 300.374,121.865 301.486 C 123.410 302.784,123.997 303.054,126.509 303.628 C 128.090 303.989,129.953 304.629,130.648 305.049 C 133.628 306.851,134.957 307.414,137.005 307.743 C 143.518 308.789,144.589 309.053,146.104 309.985 C 148.242 311.300,150.391 311.775,155.924 312.158 C 166.757 312.908,169.036 313.381,169.036 314.881 L 169.036 315.956 199.684 315.956 L 230.332 315.956 230.332 314.876 C 230.332 313.383,232.521 312.946,243.918 312.166 C 249.496 311.784,251.868 311.277,254.160 309.973 C 255.682 309.108,257.801 308.573,262.995 307.742 C 265.040 307.415,266.357 306.858,269.344 305.056 C 270.034 304.640,271.598 304.067,272.819 303.783 C 275.992 303.045,276.774 302.696,278.220 301.366 C 279.139 300.521,280.237 299.953,282.072 299.373 C 284.012 298.761,284.896 298.289,285.685 297.446 C 286.260 296.832,287.565 295.882,288.585 295.336 C 289.685 294.747,290.742 293.886,291.182 293.222 C 291.590 292.605,292.511 291.746,293.227 291.311 C 293.944 290.877,294.944 289.927,295.449 289.200 C 295.955 288.473,296.775 287.588,297.273 287.233 C 300.020 285.278,300.241 283.438,299.839 265.877 C 299.212 238.457,298.990 235.632,297.121 231.199 C 295.835 228.150,295.405 226.437,295.136 223.285 C 294.886 220.354,294.161 218.300,293.051 217.379 C 292.357 216.803,291.690 215.468,290.937 213.143 C 290.513 211.836,289.879 210.760,288.963 209.795 C 288.221 209.013,287.100 207.435,286.472 206.288 C 285.718 204.911,284.711 203.684,283.503 202.672 C 282.497 201.829,280.953 200.473,280.072 199.657 C 279.190 198.841,277.839 197.855,277.070 197.466 C 276.301 197.076,275.032 196.099,274.250 195.295 C 273.077 194.089,272.400 193.702,270.388 193.090 C 269.045 192.682,267.624 192.035,267.228 191.652 C 265.709 190.184,264.455 189.579,261.670 188.971 C 258.767 188.337,258.006 188.046,256.556 187.011 C 255.242 186.074,252.000 185.164,248.785 184.831 C 246.848 184.630,245.041 184.222,243.805 183.707 C 238.861 181.646,235.784 180.967,229.077 180.456 L 225.137 180.156 223.232 181.112 C 222.184 181.638,220.671 182.679,219.868 183.425 C 219.066 184.171,217.715 185.135,216.867 185.568 C 216.018 186.001,214.904 186.797,214.391 187.337 C 212.278 189.563,201.559 190.472,191.469 189.283 C 187.287 188.789,187.168 188.751,185.684 187.392 C 184.956 186.725,183.759 185.876,183.025 185.505 C 182.291 185.133,180.970 184.190,180.090 183.408 C 179.210 182.626,177.646 181.561,176.616 181.041 C 174.746 180.097,174.531 180.035,173.934 180.268 M174.025 198.298 C 175.595 198.879,176.913 199.686,178.164 200.831 C 178.966 201.564,180.893 202.182,184.961 203.012 C 186.335 203.292,188.396 203.869,189.543 204.294 C 195.896 206.650,204.046 206.697,209.817 204.411 C 210.761 204.037,213.404 203.328,215.693 202.835 C 220.093 201.887,221.255 201.442,222.275 200.316 C 224.379 197.991,231.066 196.661,236.651 197.457 C 244.329 198.552,246.607 199.085,248.183 200.153 C 250.095 201.450,250.980 201.799,253.863 202.389 C 257.071 203.047,258.781 203.762,259.866 204.899 C 260.434 205.494,261.742 206.250,263.089 206.760 C 264.336 207.233,265.971 208.154,266.723 208.806 C 267.474 209.458,268.929 210.587,269.955 211.314 C 271.193 212.191,272.298 213.355,273.234 214.770 C 274.010 215.943,275.109 217.401,275.676 218.009 C 276.852 219.270,277.550 220.553,277.870 222.039 C 277.992 222.605,278.596 223.801,279.213 224.697 C 280.871 227.108,281.445 228.641,281.677 231.280 C 282.002 234.971,282.722 239.291,283.595 242.780 C 284.916 248.062,285.320 252.486,285.590 264.613 C 285.904 278.734,285.892 278.783,281.271 282.051 C 280.103 282.877,278.775 283.943,278.319 284.420 C 277.864 284.896,276.419 285.775,275.108 286.373 C 273.724 287.003,272.503 287.796,272.198 288.262 C 271.634 289.123,270.178 289.699,266.487 290.522 C 265.032 290.846,263.352 291.551,261.664 292.544 C 259.396 293.879,258.775 294.096,256.672 294.286 C 252.921 294.626,248.129 295.699,245.100 296.877 C 241.863 298.137,239.802 298.391,228.594 298.911 C 224.423 299.105,218.949 299.390,216.430 299.544 C 207.072 300.118,196.317 300.257,190.006 299.887 C 180.573 299.334,172.422 298.899,165.561 298.583 C 159.179 298.289,157.256 297.949,154.145 296.566 C 152.095 295.656,148.991 294.965,144.708 294.468 C 140.980 294.035,140.211 293.796,138.056 292.402 C 136.392 291.326,135.683 291.073,130.996 289.876 C 129.265 289.434,128.546 289.054,127.500 288.025 C 126.726 287.263,125.495 286.484,124.512 286.133 C 123.593 285.805,122.393 285.090,121.847 284.544 C 121.300 283.997,120.148 283.065,119.286 282.472 C 114.040 278.865,114.067 278.964,114.388 264.771 C 114.668 252.376,115.000 248.429,116.151 243.819 C 117.030 240.296,118.013 234.681,118.307 231.495 C 118.568 228.660,119.252 226.696,120.573 224.981 C 121.167 224.210,121.851 222.913,122.093 222.099 C 122.667 220.167,123.345 218.882,124.366 217.790 C 124.821 217.302,125.891 215.876,126.742 214.619 C 127.807 213.046,128.803 212.005,129.942 211.276 C 130.852 210.694,132.261 209.641,133.074 208.936 C 133.926 208.198,135.531 207.282,136.865 206.773 C 138.377 206.196,139.593 205.472,140.376 204.683 C 141.034 204.019,141.617 203.476,141.671 203.476 C 142.800 203.476,149.710 201.311,151.156 200.504 C 153.582 199.151,154.662 198.868,159.599 198.293 C 162.076 198.004,164.113 197.584,164.970 197.186 C 167.027 196.232,170.161 196.169,171.498 197.056 C 172.070 197.435,173.207 197.994,174.025 198.298 M96.769 220.221 C 96.769 221.003,96.830 221.323,96.905 220.932 C 96.981 220.541,96.981 219.901,96.905 219.510 C 96.830 219.119,96.769 219.439,96.769 220.221 " stroke="none" fill="#98bf39" fill-rule="evenodd"></path><path id="path1" d="M72.986 1.124 C 72.986 2.545,71.630 3.222,67.029 4.099 C 63.258 4.817,61.973 5.329,60.263 6.792 C 59.543 7.408,58.397 8.079,57.715 8.284 C 56.496 8.649,55.882 9.215,48.491 16.787 C 47.300 18.006,46.445 19.157,46.445 19.540 C 46.445 20.699,45.202 23.568,44.358 24.356 C 43.110 25.520,42.338 27.285,42.337 28.976 C 42.335 31.201,41.474 36.129,40.729 38.181 C 38.856 43.337,37.971 52.421,38.544 60.618 C 38.891 65.579,38.906 65.644,41.020 71.406 C 41.370 72.362,41.817 74.352,42.013 75.829 C 42.729 81.243,42.994 82.077,44.562 83.869 C 45.723 85.196,46.163 86.050,46.753 88.122 C 47.344 90.196,47.699 90.885,48.533 91.573 C 49.106 92.045,49.988 93.210,50.492 94.162 C 51.004 95.126,51.970 96.312,52.674 96.840 C 53.370 97.362,54.324 98.387,54.794 99.118 C 55.265 99.850,56.123 100.740,56.701 101.098 C 57.278 101.455,58.289 102.403,58.947 103.206 C 59.702 104.127,60.734 104.927,61.746 105.375 C 62.628 105.766,63.705 106.438,64.139 106.869 C 65.200 107.922,66.371 108.487,69.194 109.308 C 70.498 109.687,72.278 110.479,73.150 111.069 C 78.372 114.599,96.022 114.689,100.046 111.206 C 101.190 110.216,102.989 109.505,105.676 108.983 C 107.261 108.674,107.763 108.400,108.836 107.259 C 109.537 106.513,110.716 105.601,111.456 105.234 C 113.163 104.386,121.363 96.258,122.235 94.549 C 122.594 93.846,123.393 92.958,124.010 92.576 C 125.325 91.764,125.817 90.882,126.357 88.369 C 126.663 86.949,127.074 86.170,128.168 84.938 C 129.817 83.081,130.014 82.637,130.311 80.095 C 130.634 77.328,131.026 75.987,132.391 72.986 C 135.590 65.951,135.384 42.306,132.057 34.727 C 131.552 33.577,130.925 31.309,130.662 29.687 C 130.009 25.647,129.333 23.771,127.971 22.217 C 127.334 21.490,126.612 20.285,126.366 19.539 C 126.103 18.744,125.197 17.410,124.176 16.315 C 119.962 11.796,116.979 9.038,115.674 8.452 C 114.911 8.110,113.703 7.297,112.989 6.644 C 111.487 5.274,110.655 4.964,106.185 4.112 C 101.659 3.250,100.158 2.494,100.158 1.078 L 100.158 0.000 86.572 0.000 L 72.986 0.000 72.986 1.124 M299.526 1.099 C 299.526 2.443,298.270 3.210,295.086 3.808 C 290.288 4.710,288.385 5.367,287.064 6.579 C 286.359 7.226,284.980 8.146,284.000 8.623 C 281.610 9.787,274.759 16.908,273.674 19.356 C 273.271 20.266,272.470 21.509,271.895 22.117 C 270.676 23.406,270.025 25.266,269.397 29.255 C 269.148 30.834,268.558 33.038,268.086 34.152 C 264.432 42.781,264.184 65.490,267.662 73.075 C 268.604 75.130,269.075 76.740,269.479 79.281 C 270.037 82.790,270.491 83.850,272.066 85.330 C 272.542 85.777,273.085 86.736,273.274 87.463 C 273.463 88.189,273.764 89.347,273.943 90.036 C 274.178 90.944,274.709 91.661,275.870 92.640 C 276.750 93.382,277.688 94.418,277.954 94.941 C 278.410 95.839,281.188 98.889,283.236 100.740 C 283.747 101.202,284.887 102.310,285.768 103.203 C 286.649 104.096,287.897 105.046,288.540 105.315 C 289.184 105.584,290.319 106.438,291.064 107.213 C 292.293 108.493,292.684 108.686,295.325 109.319 C 297.555 109.854,298.613 110.299,299.861 111.230 C 304.543 114.724,321.634 114.616,326.850 111.060 C 327.776 110.428,329.487 109.695,330.964 109.296 C 333.975 108.484,334.813 108.082,335.861 106.943 C 336.295 106.471,337.291 105.809,338.073 105.472 C 338.855 105.135,340.380 103.979,341.461 102.903 C 342.543 101.828,343.752 100.626,344.147 100.233 C 347.897 96.502,349.447 94.776,349.447 94.329 C 349.447 94.039,350.170 93.037,351.053 92.103 C 352.386 90.694,352.753 90.039,353.214 88.251 C 353.894 85.614,354.469 84.480,355.740 83.272 C 356.902 82.168,357.181 81.263,357.844 76.461 C 358.189 73.959,358.726 71.814,359.569 69.570 C 362.175 62.637,362.235 47.972,359.690 40.094 C 358.605 36.733,357.667 31.664,357.664 29.137 C 357.661 27.367,357.094 26.069,355.534 24.268 C 354.639 23.234,354.152 22.296,353.893 21.114 C 353.379 18.762,352.766 17.655,351.494 16.784 C 350.890 16.371,349.924 15.376,349.347 14.573 C 348.769 13.769,347.787 12.763,347.164 12.337 C 346.541 11.910,345.801 11.171,345.519 10.693 C 344.892 9.632,343.662 8.740,342.147 8.249 C 341.521 8.046,340.428 7.383,339.718 6.776 C 338.030 5.331,336.733 4.815,332.997 4.104 C 328.744 3.293,327.330 2.544,327.330 1.099 L 327.330 0.000 313.428 0.000 L 299.526 0.000 299.526 1.099 M91.153 15.189 C 92.543 15.360,95.245 15.778,97.156 16.118 C 99.068 16.457,101.326 16.820,102.173 16.924 C 103.416 17.076,103.998 17.376,105.175 18.469 C 105.978 19.216,107.417 20.220,108.373 20.701 C 110.678 21.861,112.855 24.103,114.028 26.524 C 114.553 27.609,115.548 29.110,116.239 29.859 C 116.984 30.667,117.566 31.653,117.667 32.278 C 117.761 32.858,118.067 35.039,118.347 37.125 C 118.628 39.210,119.286 42.836,119.810 45.182 C 121.595 53.175,121.470 60.139,119.428 66.351 C 118.942 67.828,118.449 70.032,118.332 71.248 C 118.063 74.048,117.074 77.161,116.211 77.925 C 115.845 78.250,114.942 79.808,114.204 81.389 C 113.397 83.116,112.484 84.566,111.915 85.022 C 111.394 85.440,110.534 86.493,110.003 87.362 C 108.820 89.300,105.455 92.592,103.773 93.457 C 103.088 93.809,102.101 94.549,101.580 95.102 C 100.358 96.398,99.599 96.775,96.529 97.613 C 95.141 97.991,93.222 98.755,92.263 99.309 C 89.476 100.920,83.868 100.843,80.885 99.151 C 79.738 98.501,77.592 97.677,76.023 97.285 C 73.432 96.637,73.104 96.463,71.758 95.026 C 70.956 94.170,69.755 93.188,69.089 92.844 C 67.466 92.007,63.434 87.989,62.635 86.414 C 62.283 85.719,61.432 84.699,60.745 84.147 C 59.439 83.098,59.130 82.517,58.314 79.572 C 58.024 78.523,57.357 77.230,56.700 76.445 C 55.020 74.433,54.979 74.296,54.480 68.947 C 54.226 66.216,53.859 63.199,53.665 62.243 C 53.228 60.090,53.243 52.460,53.693 48.025 C 53.878 46.201,54.237 42.334,54.491 39.433 C 54.979 33.862,55.307 32.645,56.840 30.730 C 57.363 30.076,58.152 28.722,58.593 27.721 C 59.494 25.677,63.231 21.635,65.087 20.698 C 65.695 20.391,66.909 19.467,67.785 18.645 C 69.204 17.314,69.584 17.127,71.261 16.934 C 72.296 16.815,74.281 16.490,75.671 16.212 C 79.647 15.418,85.975 14.632,87.362 14.760 C 88.057 14.825,89.763 15.018,91.153 15.189 M321.801 15.795 C 323.712 16.145,326.483 16.596,327.957 16.798 C 330.515 17.148,330.708 17.232,332.222 18.652 C 333.094 19.470,334.305 20.389,334.913 20.695 C 336.746 21.616,340.712 25.906,341.367 27.677 C 341.682 28.529,342.374 29.782,342.906 30.462 C 344.376 32.342,345.322 34.931,345.342 37.125 C 345.351 38.167,345.564 41.011,345.816 43.444 C 346.632 51.327,346.756 57.824,346.183 62.571 C 345.901 64.910,345.524 68.376,345.346 70.272 C 345.014 73.816,344.830 74.315,343.021 76.579 C 342.506 77.222,341.887 78.620,341.570 79.852 C 340.858 82.619,340.565 83.137,339.014 84.365 C 338.309 84.923,337.439 85.957,337.079 86.662 C 336.253 88.281,332.071 92.434,330.682 93.014 C 330.104 93.256,329.090 94.101,328.428 94.894 C 327.108 96.472,326.521 96.776,323.697 97.340 C 322.654 97.548,320.735 98.300,319.431 99.010 L 317.062 100.302 313.428 100.299 C 309.964 100.295,309.704 100.248,307.845 99.287 C 306.773 98.732,304.506 97.893,302.807 97.422 C 300.114 96.675,299.555 96.396,298.438 95.241 C 297.733 94.513,296.584 93.628,295.883 93.275 C 294.596 92.626,289.731 87.813,289.731 87.188 C 289.731 87.002,289.031 86.109,288.174 85.204 C 287.190 84.163,286.366 82.887,285.936 81.736 C 285.561 80.735,284.756 79.263,284.148 78.465 C 282.744 76.626,282.243 75.190,281.667 71.357 C 281.413 69.666,280.929 67.529,280.592 66.606 C 278.408 60.639,278.288 53.442,280.229 44.763 C 280.745 42.453,281.395 38.866,281.673 36.791 C 282.350 31.726,282.573 30.999,283.877 29.616 C 284.492 28.965,285.422 27.528,285.944 26.424 C 287.036 24.111,289.634 21.457,291.706 20.538 C 292.445 20.210,293.636 19.376,294.353 18.685 C 295.632 17.452,297.290 16.751,298.932 16.747 C 299.387 16.746,301.022 16.520,302.565 16.243 C 309.726 14.961,310.502 14.881,314.376 15.018 C 316.548 15.096,319.889 15.445,321.801 15.795 M58.768 118.031 C 53.031 118.539,51.314 118.912,49.545 120.033 C 47.643 121.240,46.470 121.588,42.605 122.095 C 38.902 122.582,37.769 122.976,35.399 124.607 C 34.493 125.230,32.733 126.043,31.488 126.412 C 28.698 127.241,27.601 127.779,26.382 128.919 C 25.861 129.407,24.604 130.196,23.589 130.672 C 22.318 131.269,21.492 131.918,20.940 132.753 C 20.498 133.420,19.655 134.264,19.066 134.627 C 18.478 134.991,17.616 135.809,17.152 136.444 C 16.688 137.079,15.570 138.310,14.668 139.179 C 13.591 140.215,12.838 141.286,12.478 142.292 C 12.176 143.136,11.518 144.294,11.017 144.865 C 9.730 146.330,8.986 148.186,8.263 151.732 C 7.874 153.636,7.276 155.441,6.691 156.472 C 4.644 160.078,4.587 160.692,3.785 187.678 C 3.597 194.021,3.416 199.423,3.383 199.684 C 3.350 199.945,3.508 200.940,3.734 201.896 C 3.959 202.852,4.210 203.958,4.292 204.355 C 4.425 205.002,7.126 207.857,12.029 212.537 C 12.994 213.458,14.557 214.529,15.603 214.987 C 16.625 215.434,17.992 216.279,18.639 216.864 C 19.441 217.588,20.774 218.247,22.815 218.927 C 24.464 219.476,26.297 220.288,26.888 220.730 C 28.924 222.254,30.325 222.765,33.676 223.205 C 36.283 223.547,37.504 223.886,39.279 224.761 C 42.986 226.588,45.368 227.049,54.976 227.795 C 57.322 227.977,60.948 228.472,63.033 228.896 C 68.920 230.092,71.502 230.339,81.473 230.659 C 92.035 230.998,92.089 230.987,92.845 228.466 C 93.054 227.768,93.739 226.524,94.367 225.701 C 98.388 220.432,97.353 214.902,92.514 215.805 C 89.596 216.350,81.082 216.289,72.512 215.662 C 69.036 215.408,63.491 215.116,60.190 215.013 C 52.646 214.778,48.835 214.349,47.314 213.565 C 46.663 213.229,45.593 212.671,44.937 212.325 C 43.801 211.725,41.287 211.170,36.544 210.475 C 34.861 210.228,33.966 209.878,32.494 208.889 C 31.455 208.191,29.457 207.238,28.055 206.771 C 26.535 206.265,25.043 205.518,24.364 204.922 C 23.736 204.371,22.260 203.305,21.083 202.551 C 16.605 199.683,16.595 199.641,16.848 184.380 C 17.053 172.023,17.322 168.754,18.371 165.897 C 20.072 161.265,20.507 159.782,20.843 157.472 C 21.355 153.947,21.689 153.083,22.891 152.166 C 23.472 151.723,24.276 150.681,24.678 149.851 C 25.420 148.315,30.571 142.812,31.267 142.812 C 31.473 142.812,32.465 142.028,33.470 141.069 C 35.064 139.548,35.631 139.229,37.924 138.562 C 39.369 138.142,40.918 137.505,41.366 137.147 C 43.109 135.752,44.607 135.222,48.557 134.600 C 51.739 134.099,53.082 133.725,54.823 132.852 C 58.240 131.141,60.718 130.852,62.328 131.977 C 64.865 133.750,65.231 133.936,67.743 134.727 C 70.127 135.478,70.752 135.788,72.709 137.188 C 76.896 140.182,97.915 139.600,101.738 136.383 C 102.231 135.969,103.605 135.382,104.793 135.080 C 108.072 134.246,108.647 133.970,110.113 132.524 L 111.468 131.189 113.633 131.351 C 115.200 131.468,116.234 131.757,117.378 132.396 C 119.359 133.503,121.590 134.143,125.482 134.720 C 128.789 135.211,129.459 135.470,131.092 136.889 C 131.977 137.658,132.360 137.792,133.253 137.647 C 135.026 137.360,135.245 137.000,135.086 134.638 C 135.008 133.486,134.843 130.625,134.718 128.281 C 134.431 122.841,134.239 122.582,130.079 122.002 C 127.017 121.576,126.721 121.480,123.065 119.731 C 120.556 118.530,120.488 118.518,113.902 118.009 L 107.267 117.497 105.213 118.337 C 103.918 118.868,102.690 119.667,101.887 120.501 C 101.038 121.384,99.975 122.056,98.690 122.525 C 97.631 122.911,96.241 123.643,95.601 124.151 C 92.384 126.708,83.151 126.793,78.281 124.312 C 77.069 123.694,75.314 122.903,74.381 122.554 C 73.129 122.085,72.314 121.485,71.269 120.262 C 69.959 118.729,69.682 118.565,67.549 118.066 C 64.982 117.466,65.135 117.467,58.768 118.031 M284.518 118.069 C 279.580 118.504,279.397 118.546,276.619 119.903 C 273.535 121.408,272.262 121.800,269.352 122.135 C 265.870 122.537,265.564 123.039,265.302 128.776 C 265.090 133.408,264.831 134.373,263.464 135.627 C 261.951 137.015,262.325 137.570,264.898 137.757 C 267.174 137.922,268.395 137.614,269.171 136.678 C 269.975 135.711,271.428 135.179,274.528 134.719 C 278.380 134.148,280.546 133.524,282.586 132.401 C 283.723 131.774,284.841 131.456,286.360 131.326 L 288.517 131.141 289.908 132.512 C 291.422 134.005,292.117 134.340,294.863 134.902 C 296.012 135.137,297.389 135.749,298.624 136.574 C 301.604 138.563,302.746 138.775,311.392 138.939 C 322.110 139.143,325.642 138.602,328.325 136.344 C 328.845 135.907,330.689 135.109,332.433 134.567 C 334.381 133.962,335.982 133.250,336.598 132.715 C 338.725 130.868,341.782 130.809,344.346 132.565 C 345.804 133.563,347.741 134.107,352.203 134.773 C 355.417 135.252,355.939 135.427,357.797 136.647 C 359.064 137.480,360.767 138.243,362.264 138.650 C 364.327 139.211,364.948 139.554,366.478 140.981 C 367.464 141.901,368.719 142.891,369.265 143.180 C 369.812 143.470,370.631 144.297,371.086 145.018 C 371.542 145.739,372.380 146.604,372.949 146.940 C 373.619 147.335,374.418 148.341,375.211 149.787 C 375.885 151.017,376.690 152.159,376.999 152.325 C 377.934 152.825,378.483 154.289,379.322 158.521 C 379.763 160.742,380.535 163.483,381.039 164.613 C 382.723 168.393,383.380 176.081,383.198 189.889 C 383.074 199.311,382.904 199.870,379.463 202.112 C 378.333 202.848,376.746 204.009,375.937 204.692 C 374.962 205.513,373.598 206.221,371.904 206.785 C 370.496 207.254,368.631 208.128,367.760 208.727 C 365.652 210.177,365.079 210.368,361.673 210.753 C 357.688 211.205,355.290 211.876,353.239 213.113 C 351.063 214.427,348.633 214.732,336.809 215.178 C 332.204 215.352,327.014 215.628,325.276 215.793 C 320.888 216.207,310.467 216.186,307.581 215.757 C 302.518 215.004,301.698 220.060,305.852 226.423 C 306.717 227.749,307.425 229.018,307.425 229.245 C 307.425 231.423,327.141 231.309,336.335 229.078 C 339.579 228.291,345.708 227.488,348.474 227.488 C 352.694 227.488,357.106 226.497,360.745 224.731 C 362.525 223.868,363.785 223.521,366.367 223.185 C 369.819 222.735,370.956 222.318,372.828 220.816 C 373.436 220.328,375.404 219.441,377.200 218.846 C 379.462 218.096,380.774 217.466,381.466 216.797 C 382.015 216.265,383.318 215.458,384.360 215.003 C 385.445 214.529,386.931 213.515,387.836 212.632 C 388.705 211.783,390.802 209.757,392.497 208.130 C 395.109 205.622,395.696 204.869,396.357 203.183 C 396.786 202.089,397.302 200.995,397.504 200.751 C 397.782 200.416,397.787 199.361,397.523 196.442 C 397.331 194.315,397.094 190.940,396.997 188.942 C 395.802 164.394,395.505 161.703,393.508 157.346 C 392.605 155.377,391.964 153.383,391.645 151.552 C 391.088 148.356,390.291 146.354,388.983 144.865 C 388.482 144.294,387.824 143.136,387.522 142.292 C 387.162 141.286,386.409 140.215,385.332 139.179 C 384.430 138.310,383.312 137.079,382.848 136.444 C 382.384 135.809,381.522 134.991,380.934 134.627 C 380.345 134.264,379.502 133.420,379.060 132.753 C 378.508 131.918,377.682 131.269,376.411 130.672 C 375.396 130.196,374.139 129.407,373.618 128.919 C 372.406 127.786,371.308 127.244,368.562 126.422 C 367.346 126.058,365.529 125.199,364.524 124.514 C 362.350 123.030,360.495 122.400,357.504 122.130 C 354.856 121.891,351.683 121.115,351.027 120.547 C 349.228 118.989,347.706 118.622,340.476 117.999 C 332.807 117.339,330.890 117.702,328.740 120.219 C 327.955 121.138,326.855 122.066,326.295 122.281 C 325.735 122.496,323.922 123.292,322.266 124.048 C 316.313 126.769,307.766 126.827,304.423 124.170 C 303.797 123.672,302.296 122.888,301.089 122.427 C 299.557 121.841,298.616 121.250,297.972 120.468 C 296.728 118.960,293.334 117.520,291.162 117.579 C 290.288 117.603,287.299 117.824,284.518 118.069 " stroke="none" fill="#666666" fill-rule="evenodd"></path></g></svg>