<svg id="svg" version="1.1" xmlns="http://www.w3.org/2000/svg" xmlns:xlink="http://www.w3.org/1999/xlink" width="400" height="380.95238095238096" viewBox="0, 0, 400,380.95238095238096"><g id="svgg"><path id="path0" d="M132.190 1.280 C 132.190 2.784,129.997 3.713,124.381 4.588 C 120.868 5.135,119.839 5.580,117.937 7.373 C 117.008 8.250,115.748 8.901,114.050 9.383 C 112.066 9.945,111.205 10.442,109.959 11.742 C 109.091 12.647,107.747 13.718,106.972 14.120 C 106.197 14.523,105.018 15.531,104.352 16.361 C 103.685 17.190,102.513 18.283,101.748 18.790 C 100.983 19.296,99.947 20.308,99.446 21.039 C 98.946 21.769,98.085 22.671,97.533 23.042 C 96.981 23.413,95.885 24.637,95.099 25.763 C 94.312 26.889,93.540 27.810,93.383 27.810 C 92.561 27.810,90.646 30.354,90.129 32.132 C 89.811 33.223,88.972 34.797,88.264 35.629 C 86.525 37.671,86.280 38.196,85.334 41.902 C 84.885 43.662,84.209 45.539,83.832 46.075 C 81.157 49.874,80.552 54.552,80.876 68.943 C 81.122 79.897,81.247 80.582,83.983 85.986 C 86.521 90.996,87.245 91.524,90.559 90.775 C 98.601 88.960,101.382 84.304,97.904 78.476 C 95.702 74.786,95.506 73.530,95.719 64.484 C 95.918 56.010,96.099 54.988,97.866 52.320 C 98.494 51.372,99.192 49.626,99.417 48.440 C 100.159 44.534,100.553 43.557,102.092 41.808 C 102.930 40.857,103.984 39.075,104.436 37.849 C 105.226 35.701,105.860 34.918,110.782 30.015 C 115.715 25.102,116.181 24.741,119.264 23.440 C 120.992 22.711,122.765 21.789,123.203 21.391 C 124.584 20.136,125.797 19.690,129.714 18.996 C 131.810 18.625,135.539 17.885,138.001 17.351 C 143.637 16.130,146.649 16.130,152.284 17.351 C 154.747 17.885,158.476 18.625,160.571 18.996 C 164.654 19.719,165.610 20.096,167.488 21.727 C 168.150 22.301,169.847 23.156,171.259 23.626 C 173.833 24.483,174.472 24.973,179.438 29.905 C 184.609 35.041,185.113 35.663,185.928 37.905 C 186.384 39.162,187.318 40.790,188.004 41.524 C 189.608 43.241,190.312 44.697,190.645 46.984 C 190.998 49.410,191.821 51.691,192.936 53.333 C 193.506 54.173,193.997 55.703,194.263 57.465 C 194.683 60.249,195.242 61.714,196.649 63.714 L 197.385 64.762 202.306 64.762 L 207.227 64.762 208.280 63.171 C 210.305 60.111,209.714 51.027,207.258 47.457 C 206.534 46.405,205.746 44.469,205.269 42.571 C 204.368 38.984,203.764 37.649,202.260 35.922 C 201.675 35.250,200.831 33.708,200.385 32.493 C 199.435 29.908,199.090 29.412,197.423 28.242 C 196.739 27.761,195.925 26.877,195.615 26.277 C 194.984 25.057,188.390 18.286,187.833 18.286 C 187.636 18.286,186.928 17.523,186.259 16.591 C 185.589 15.659,184.449 14.615,183.726 14.272 C 183.002 13.928,181.524 12.845,180.442 11.865 C 179.030 10.586,177.801 9.879,176.091 9.361 C 174.524 8.886,173.180 8.151,172.163 7.213 C 170.250 5.447,169.460 5.133,165.082 4.403 C 159.696 3.505,157.932 2.738,157.785 1.229 L 157.666 0.000 144.928 0.000 L 132.190 0.000 132.190 1.280 " stroke="none" fill="#8ab51f" fill-rule="evenodd"></path><path id="path1" d="M304.762 40.398 C 303.381 41.182,300.979 41.970,297.714 42.713 C 293.921 43.575,292.450 44.089,291.429 44.908 C 289.452 46.494,288.099 47.082,285.191 47.620 C 282.870 48.049,282.369 48.306,280.788 49.879 C 279.530 51.130,278.279 51.914,276.549 52.534 C 275.051 53.071,273.502 53.978,272.571 54.863 C 271.733 55.660,270.210 56.701,269.186 57.175 C 268.020 57.715,267.048 58.505,266.586 59.289 C 266.180 59.978,265.010 61.143,263.987 61.877 C 262.964 62.612,261.874 63.703,261.565 64.302 C 261.255 64.900,260.306 65.850,259.456 66.413 C 258.605 66.976,257.491 68.100,256.979 68.910 C 256.467 69.721,255.474 70.739,254.772 71.173 C 254.069 71.607,253.095 72.699,252.606 73.600 C 252.117 74.501,250.962 75.924,250.039 76.762 C 248.652 78.022,248.232 78.745,247.613 80.938 C 246.543 84.732,242.725 87.211,239.234 86.379 C 238.503 86.205,234.733 85.907,230.857 85.717 C 226.981 85.526,221.581 85.189,218.857 84.967 C 199.629 83.401,185.697 83.501,167.483 85.336 C 165.418 85.544,162.247 85.715,160.436 85.716 C 155.518 85.720,153.052 86.257,149.319 88.136 C 146.665 89.473,145.397 89.876,143.178 90.090 C 138.240 90.566,135.175 91.371,132.840 92.806 C 130.764 94.082,128.497 94.719,122.257 95.778 C 121.430 95.919,120.121 96.671,118.920 97.696 C 117.407 98.987,116.519 99.441,115.138 99.631 C 111.726 100.100,110.461 100.607,108.612 102.250 C 107.132 103.565,106.202 104.032,103.986 104.575 C 101.649 105.147,100.969 105.509,99.655 106.875 C 98.506 108.069,97.270 108.813,94.961 109.701 C 92.794 110.534,91.591 111.237,91.062 111.980 C 90.642 112.570,89.481 113.432,88.482 113.894 C 87.484 114.356,85.895 115.465,84.952 116.359 C 84.010 117.253,82.209 118.596,80.951 119.343 C 79.694 120.091,78.237 121.161,77.713 121.722 C 77.190 122.283,75.957 123.152,74.974 123.652 C 73.991 124.153,72.633 125.251,71.956 126.093 C 71.280 126.935,69.985 128.058,69.079 128.588 C 68.174 129.119,67.182 130.039,66.874 130.633 C 66.567 131.227,65.444 132.443,64.378 133.336 C 63.312 134.228,62.112 135.602,61.711 136.388 C 61.309 137.175,60.331 138.333,59.536 138.962 C 58.477 139.801,57.889 140.704,57.334 142.339 C 56.846 143.777,55.943 145.272,54.796 146.541 C 53.816 147.624,52.650 149.338,52.203 150.350 C 51.756 151.362,50.817 152.790,50.115 153.524 C 49.195 154.486,48.568 155.760,47.864 158.101 C 47.116 160.583,46.575 161.648,45.556 162.635 C 44.690 163.475,43.873 164.891,43.215 166.696 C 41.488 171.430,39.643 171.892,35.378 168.658 C 34.673 168.123,33.151 167.269,31.996 166.761 C 30.491 166.098,29.606 165.398,28.870 164.286 C 28.306 163.433,27.182 162.363,26.374 161.908 C 25.462 161.396,24.447 160.318,23.700 159.070 C 23.039 157.964,21.924 156.622,21.224 156.088 C 20.074 155.211,19.866 154.734,19.076 151.177 C 18.594 149.011,18.019 146.895,17.796 146.476 C 16.527 144.081,16.346 140.985,17.309 138.158 C 17.821 136.657,18.516 134.110,18.855 132.499 C 19.533 129.272,22.802 125.201,26.571 122.888 C 27.462 122.342,28.190 121.724,28.190 121.514 C 28.190 121.305,29.105 120.548,30.223 119.833 C 32.980 118.069,33.481 117.194,33.561 113.993 C 33.749 106.544,27.660 103.069,21.617 107.176 C 20.309 108.066,18.419 109.103,17.418 109.480 C 16.167 109.952,15.308 110.602,14.669 111.559 C 14.158 112.325,13.006 113.475,12.108 114.113 C 10.988 114.909,10.118 116.000,9.333 117.590 C 8.705 118.864,7.732 120.439,7.172 121.090 C 6.166 122.260,4.594 125.893,4.547 127.157 C 4.447 129.840,2.404 134.289,1.218 134.405 L 0.000 134.524 0.000 142.500 L 0.000 150.476 1.280 150.476 C 2.648 150.476,3.245 151.884,4.594 158.286 C 5.032 160.365,6.534 163.223,7.353 163.537 C 7.637 163.646,8.567 165.166,9.421 166.915 C 10.501 169.128,11.321 170.298,12.118 170.763 C 12.749 171.130,13.980 172.286,14.855 173.331 C 15.735 174.382,17.155 175.549,18.033 175.942 C 18.905 176.333,20.562 177.432,21.714 178.384 C 22.867 179.336,24.919 180.564,26.276 181.113 C 27.632 181.662,29.261 182.596,29.895 183.188 C 30.529 183.780,32.179 184.884,33.561 185.642 C 37.431 187.763,38.264 190.660,36.324 195.245 C 33.605 201.675,33.755 200.330,33.608 219.607 C 33.461 238.956,33.574 240.393,35.613 244.952 C 36.316 246.524,37.171 249.352,37.514 251.238 C 38.690 257.711,39.245 259.391,40.802 261.189 C 42.255 262.869,42.774 264.170,43.286 267.429 C 43.499 268.780,43.941 269.530,45.372 270.968 C 46.550 272.153,47.408 273.457,47.815 274.684 C 48.160 275.723,49.056 277.302,49.805 278.191 C 50.554 279.081,51.651 280.870,52.243 282.165 C 52.923 283.655,53.828 284.910,54.705 285.579 C 55.468 286.161,56.525 287.329,57.055 288.175 C 58.089 289.827,58.515 290.285,67.778 299.714 C 71.123 303.119,74.018 305.905,74.211 305.905 C 74.405 305.905,75.022 306.567,75.584 307.377 C 76.145 308.187,77.195 309.168,77.918 309.558 C 78.641 309.947,80.532 311.686,82.121 313.422 L 85.009 316.578 84.551 318.003 C 84.299 318.787,83.523 320.459,82.826 321.720 C 82.129 322.980,81.204 325.533,80.770 327.394 C 80.189 329.885,79.684 331.117,78.855 332.061 C 77.043 334.125,76.643 335.252,76.165 339.651 C 75.185 348.653,76.214 356.793,78.509 358.193 C 78.936 358.453,79.890 359.658,80.630 360.870 C 82.818 364.454,83.617 365.183,86.768 366.478 C 88.388 367.144,90.344 368.185,91.115 368.792 C 93.021 370.294,93.665 370.540,98.359 371.562 C 101.588 372.264,102.861 372.744,104.502 373.874 C 106.031 374.927,107.455 375.496,109.943 376.051 C 115.236 377.230,116.571 377.945,116.571 379.598 L 116.571 380.952 124.762 380.952 L 132.952 380.952 132.952 379.663 C 132.952 378.132,133.433 377.758,137.653 376.001 C 140.183 374.948,140.836 374.474,142.141 372.745 C 142.982 371.632,144.084 370.449,144.592 370.117 C 145.821 369.311,146.782 367.336,147.822 363.474 C 148.368 361.448,149.059 359.848,149.717 359.093 C 151.408 357.151,152.042 355.525,152.367 352.298 C 152.847 347.538,156.491 345.141,161.148 346.521 C 168.158 348.598,201.041 349.841,216.000 348.594 C 218.829 348.358,224.400 348.064,228.381 347.940 L 235.619 347.715 236.629 348.661 C 237.367 349.353,237.813 350.390,238.286 352.516 C 238.786 354.767,239.273 355.851,240.441 357.318 C 241.653 358.840,242.066 359.794,242.546 362.177 C 243.686 367.831,248.181 373.622,253.333 376.073 C 257.269 377.945,257.905 378.473,257.905 379.869 L 257.905 380.952 266.095 380.952 L 274.286 380.952 274.286 379.627 C 274.286 377.929,275.754 377.115,280.517 376.169 C 283.166 375.643,284.393 375.162,286.326 373.892 C 288.318 372.584,289.436 372.157,292.293 371.614 C 296.460 370.822,298.131 370.195,299.454 368.927 C 299.992 368.412,301.849 367.402,303.581 366.682 C 307.409 365.092,307.459 365.052,309.491 361.932 C 310.388 360.555,311.509 359.086,311.983 358.667 C 316.512 354.655,316.083 335.442,311.381 331.710 C 310.916 331.341,310.161 329.914,309.704 328.539 L 308.872 326.040 309.769 325.069 C 310.263 324.536,311.267 323.710,312.000 323.234 C 312.733 322.758,313.891 321.862,314.574 321.244 C 315.256 320.625,317.048 319.634,318.557 319.043 C 320.080 318.445,321.985 317.339,322.840 316.556 C 323.688 315.781,325.100 314.783,325.978 314.339 C 326.856 313.894,328.056 312.899,328.645 312.128 C 329.233 311.356,330.385 310.238,331.206 309.644 C 332.026 309.049,333.106 307.962,333.605 307.227 C 334.104 306.492,335.189 305.464,336.015 304.943 C 336.842 304.421,337.937 303.330,338.449 302.519 C 338.961 301.708,339.955 300.689,340.657 300.255 C 341.359 299.821,342.320 298.778,342.793 297.938 C 343.265 297.097,344.354 295.931,345.213 295.347 C 346.192 294.682,347.188 293.504,347.883 292.190 C 348.492 291.038,349.466 289.721,350.046 289.264 C 350.751 288.709,351.409 287.524,352.027 285.699 C 352.794 283.433,353.258 282.708,354.737 281.467 C 356.558 279.940,357.070 278.906,357.540 275.810 C 357.748 274.440,358.233 273.624,359.948 271.752 C 361.129 270.464,362.473 268.904,362.934 268.286 L 363.773 267.162 374.172 266.938 C 385.998 266.684,387.826 266.380,390.030 264.299 C 390.799 263.573,392.200 262.541,393.143 262.005 C 394.086 261.470,395.422 260.328,396.113 259.468 C 397.147 258.182,397.602 257.905,398.685 257.905 L 400.000 257.905 400.000 223.619 L 400.000 189.333 398.694 189.333 C 397.676 189.333,397.152 189.049,396.313 188.043 C 395.722 187.333,394.467 186.234,393.524 185.599 C 392.581 184.965,391.295 183.902,390.667 183.238 C 388.754 181.216,388.659 181.200,376.952 180.903 C 361.968 180.522,362.859 180.964,361.731 173.342 C 361.107 169.121,360.947 168.637,359.570 166.791 C 358.069 164.780,357.820 164.093,356.976 159.640 C 356.459 156.911,355.531 154.840,354.343 153.765 C 353.910 153.374,353.098 151.855,352.538 150.388 C 351.978 148.922,351.049 147.185,350.475 146.528 C 349.415 145.316,347.810 142.569,347.810 141.968 C 347.810 141.008,346.426 138.961,345.312 138.273 C 344.612 137.840,343.664 136.851,343.206 136.076 C 342.748 135.301,341.497 133.769,340.425 132.671 C 339.353 131.574,337.876 130.059,337.143 129.305 C 335.406 127.518,334.465 126.579,332.783 124.952 C 332.025 124.219,330.424 122.649,329.226 121.464 C 328.028 120.279,326.533 119.049,325.905 118.731 C 325.276 118.412,324.072 117.411,323.228 116.505 C 322.107 115.301,321.103 114.671,319.500 114.167 C 318.085 113.721,316.632 112.879,315.413 111.796 C 314.100 110.630,312.852 109.930,311.332 109.509 C 306.983 108.303,305.946 107.527,303.872 103.920 L 302.932 102.286 303.658 98.857 C 304.057 96.971,304.566 92.600,304.790 89.143 C 305.235 82.275,305.797 79.666,307.264 77.681 C 308.361 76.194,309.160 73.591,309.533 70.286 C 309.856 67.420,310.684 64.907,311.792 63.429 C 313.258 61.473,313.806 60.096,314.243 57.265 C 314.769 53.857,315.218 52.653,316.437 51.375 C 317.162 50.615,317.481 49.728,317.741 47.755 L 318.084 45.143 316.854 44.190 C 316.177 43.667,314.790 42.386,313.772 41.344 C 311.271 38.782,308.181 38.458,304.762 40.398 M294.282 62.697 C 296.139 64.418,295.365 69.123,292.742 72.058 C 291.185 73.799,290.800 75.610,290.283 83.619 C 289.819 90.823,289.330 94.435,288.574 96.244 C 287.735 98.250,286.940 102.950,286.643 107.655 L 286.375 111.881 288.293 113.998 C 289.348 115.163,290.322 116.467,290.458 116.896 C 290.820 118.036,292.847 119.106,295.209 119.403 C 297.626 119.707,298.363 120.049,300.264 121.749 C 301.038 122.441,302.409 123.193,303.312 123.421 C 306.588 124.250,308.190 125.025,309.011 126.178 C 309.518 126.889,310.818 127.785,312.349 128.478 C 313.729 129.103,315.479 130.174,316.238 130.858 C 316.998 131.543,318.455 132.591,319.476 133.188 C 321.657 134.463,327.448 140.118,328.741 142.235 C 329.236 143.045,330.321 144.494,331.153 145.455 C 331.984 146.415,332.997 147.981,333.403 148.934 C 333.810 149.887,334.946 151.438,335.928 152.381 C 337.451 153.843,337.818 154.497,338.419 156.822 C 338.926 158.787,339.441 159.851,340.262 160.631 C 341.951 162.237,342.560 163.649,343.093 167.193 C 343.465 169.674,343.879 170.882,344.947 172.613 C 346.400 174.967,347.410 178.696,347.422 181.749 C 347.433 184.628,349.240 187.744,352.068 189.758 C 353.359 190.677,355.028 191.962,355.779 192.615 C 358.705 195.160,358.669 195.153,371.532 195.415 L 383.255 195.653 384.186 196.588 C 386.088 198.499,386.274 200.965,386.260 224.090 C 386.243 253.939,387.610 251.428,371.159 251.830 C 358.164 252.147,356.782 252.430,353.543 255.434 C 352.590 256.319,351.295 257.305,350.666 257.625 C 349.044 258.451,348.383 259.328,347.622 261.666 C 347.199 262.965,346.295 264.442,345.151 265.706 C 343.793 267.205,343.148 268.352,342.545 270.334 C 342.051 271.961,341.244 273.555,340.437 274.498 C 339.717 275.339,338.686 276.943,338.146 278.063 C 337.606 279.183,336.468 280.695,335.618 281.423 C 334.768 282.150,333.846 283.285,333.570 283.944 C 332.392 286.754,321.470 298.181,318.170 300.057 C 317.186 300.616,315.695 301.714,314.857 302.498 C 314.019 303.281,312.476 304.353,311.429 304.880 C 310.381 305.406,308.946 306.439,308.239 307.175 C 307.460 307.987,306.036 308.849,304.620 309.365 C 302.845 310.013,301.736 310.773,299.989 312.537 C 298.726 313.813,297.252 315.236,296.713 315.699 C 295.724 316.549,295.611 317.059,294.674 324.850 C 294.434 326.852,295.847 335.897,296.582 337.055 C 296.944 337.627,297.657 338.543,298.165 339.090 C 299.414 340.435,300.180 343.548,300.186 347.299 C 300.191 350.828,299.421 351.943,296.422 352.751 C 295.626 352.965,294.289 353.637,293.451 354.244 C 290.702 356.236,286.668 357.594,283.186 357.701 C 282.948 357.708,281.694 358.422,280.399 359.287 C 278.688 360.429,277.082 361.097,274.524 361.731 C 272.588 362.211,269.508 363.323,267.681 364.204 L 264.360 365.805 262.296 363.950 C 261.161 362.930,259.636 361.618,258.907 361.035 C 257.705 360.074,257.557 359.737,257.312 357.416 C 256.957 354.052,256.626 353.249,254.839 351.418 C 253.430 349.975,253.286 349.606,252.398 345.151 L 251.454 340.418 249.441 338.448 C 248.334 337.365,246.962 335.881,246.392 335.152 C 244.434 332.647,241.601 332.490,212.204 333.265 C 200.789 333.566,192.118 333.577,182.750 333.303 C 168.539 332.888,169.009 332.953,162.586 330.517 C 158.203 328.854,150.564 329.289,148.907 331.296 C 148.618 331.646,147.508 332.319,146.441 332.792 C 144.502 333.651,142.476 335.590,142.476 336.587 C 142.476 336.878,141.697 337.863,140.745 338.775 C 139.050 340.399,138.999 340.518,138.264 344.598 C 137.273 350.100,137.293 350.045,135.550 351.853 C 133.985 353.475,133.359 355.176,133.342 357.846 C 133.330 359.851,132.351 361.371,130.095 362.890 C 129.048 363.596,127.726 364.548,127.158 365.007 L 126.125 365.841 123.852 364.438 C 122.438 363.565,120.383 362.748,118.409 362.274 C 112.559 360.870,111.979 360.660,110.367 359.372 C 108.663 358.011,107.375 357.557,104.000 357.128 C 101.767 356.844,99.509 355.869,97.822 354.459 C 97.253 353.984,95.669 353.222,94.303 352.768 C 91.010 351.672,90.286 350.740,90.286 347.602 C 90.286 344.402,91.400 340.981,93.081 339.017 C 94.433 337.438,94.576 337.008,95.638 331.353 C 95.862 330.158,96.466 328.563,96.979 327.807 C 101.029 321.839,101.218 309.882,97.320 306.286 C 96.752 305.762,95.630 304.450,94.825 303.370 C 93.941 302.182,92.548 300.940,91.300 300.226 C 88.831 298.814,82.027 292.984,77.905 288.750 C 77.276 288.104,75.893 286.686,74.832 285.598 C 73.770 284.509,72.199 282.419,71.340 280.952 C 70.481 279.486,69.167 277.698,68.420 276.980 C 67.673 276.262,66.876 275.111,66.649 274.423 C 66.416 273.716,65.432 272.499,64.385 271.623 C 62.901 270.380,62.329 269.535,61.496 267.355 C 60.925 265.861,59.879 263.997,59.171 263.215 C 58.395 262.355,57.509 260.682,56.936 258.991 C 56.413 257.451,55.496 255.505,54.897 254.667 C 53.539 252.765,52.726 250.214,52.227 246.286 C 51.970 244.267,51.361 242.145,50.422 240.000 C 47.851 234.123,47.500 206.434,49.925 200.848 C 51.263 197.766,52.176 193.704,52.581 189.026 C 53.041 183.717,53.130 183.407,54.955 180.703 C 55.876 179.338,56.425 177.942,56.752 176.131 C 57.250 173.375,58.441 170.541,59.977 168.456 C 60.487 167.764,61.279 166.069,61.739 164.689 C 62.221 163.239,63.115 161.581,63.857 160.760 C 64.563 159.979,65.726 158.054,66.442 156.483 C 67.389 154.404,68.089 153.413,69.015 152.841 C 69.714 152.408,70.769 151.226,71.360 150.214 C 71.951 149.201,73.027 147.984,73.751 147.510 C 74.474 147.035,75.569 145.837,76.183 144.847 C 76.797 143.858,77.830 142.705,78.477 142.286 C 79.125 141.867,80.005 140.965,80.432 140.282 C 80.860 139.600,81.963 138.599,82.884 138.059 C 83.805 137.519,85.096 136.400,85.751 135.572 C 86.407 134.744,87.603 133.730,88.407 133.320 C 89.212 132.909,90.350 131.960,90.935 131.210 C 91.580 130.384,93.128 129.273,94.857 128.394 C 96.429 127.595,98.057 126.558,98.476 126.089 C 98.895 125.620,100.462 124.676,101.959 123.992 C 103.606 123.238,105.017 122.290,105.536 121.588 C 106.476 120.318,107.255 119.935,110.635 119.083 C 112.426 118.632,113.286 118.130,114.825 116.640 C 116.518 115.001,117.074 114.705,119.233 114.298 C 122.062 113.763,123.273 113.209,125.079 111.624 C 126.115 110.715,127.196 110.323,130.751 109.570 C 134.981 108.674,137.208 107.867,137.716 107.045 C 138.338 106.039,141.025 105.229,145.179 104.798 C 150.908 104.203,154.237 103.491,156.817 102.310 C 161.977 99.947,181.941 99.024,210.970 99.805 C 227.511 100.250,229.715 100.470,233.713 102.071 C 237.295 103.505,241.634 104.392,246.344 104.653 L 250.211 104.868 253.504 101.619 C 256.672 98.494,256.827 98.260,257.587 95.464 C 258.192 93.239,258.622 92.384,259.425 91.812 C 260.002 91.401,260.938 90.076,261.505 88.866 C 262.072 87.656,263.276 85.895,264.181 84.952 C 265.086 84.010,266.200 82.489,266.658 81.574 C 267.819 79.251,273.521 73.455,276.739 71.325 C 278.218 70.346,279.733 69.165,280.105 68.701 C 280.476 68.236,281.740 67.402,282.912 66.848 C 284.084 66.293,285.701 65.126,286.506 64.253 C 287.659 63.002,288.394 62.575,289.984 62.233 C 292.930 61.600,293.121 61.620,294.282 62.697 M296.919 181.442 C 295.337 182.362,290.961 186.502,290.390 187.619 C 290.069 188.248,288.971 189.652,287.951 190.739 C 284.900 193.989,285.194 199.793,288.593 203.429 C 289.083 203.952,289.766 205.067,290.110 205.905 C 290.818 207.623,292.454 209.524,293.227 209.524 C 293.510 209.524,295.684 210.293,298.060 211.232 L 302.379 212.940 304.427 212.332 C 305.554 211.998,307.248 211.336,308.190 210.862 C 309.133 210.387,310.455 209.880,311.127 209.734 C 312.270 209.487,314.667 207.281,314.667 206.476 C 314.667 206.281,315.458 205.364,316.424 204.438 C 318.486 202.462,318.817 201.280,318.838 195.810 C 318.853 191.873,318.729 191.543,316.190 188.781 C 312.897 185.198,309.423 181.990,308.298 181.494 C 306.724 180.798,298.093 180.759,296.919 181.442 " stroke="none" fill="#656565" fill-rule="evenodd"></path></g></svg>