<svg id="svg" version="1.1" xmlns="http://www.w3.org/2000/svg" xmlns:xlink="http://www.w3.org/1999/xlink" width="400" height="257.6923076923077" viewBox="0, 0, 400,257.6923076923077"><g id="svgg"><path id="path0" d="M201.783 38.668 C 198.933 38.848,194.979 39.398,188.789 40.476 C 185.251 41.092,179.101 41.935,176.546 42.154 C 173.198 42.440,170.839 43.026,168.729 44.094 C 167.619 44.656,165.821 45.359,164.734 45.656 C 162.314 46.317,160.824 47.064,159.186 48.435 C 158.498 49.012,157.261 49.843,156.437 50.282 C 155.007 51.044,154.886 51.190,153.732 53.530 C 151.561 57.934,147.679 58.563,140.500 55.674 C 137.871 54.616,134.887 54.008,131.057 53.749 C 126.129 53.415,125.296 53.181,123.654 51.662 C 122.555 50.646,121.801 50.189,120.694 49.867 C 118.806 49.318,118.140 48.969,116.731 47.790 C 116.105 47.266,114.773 46.464,113.771 46.006 C 112.770 45.549,111.724 44.889,111.449 44.538 C 110.118 42.846,108.946 43.747,107.025 47.938 C 106.603 48.860,105.893 50.064,105.448 50.615 C 105.003 51.166,104.640 51.746,104.641 51.904 C 104.644 52.609,105.205 54.123,105.415 53.993 C 105.827 53.738,107.412 54.571,108.601 55.667 C 109.297 56.309,110.608 57.092,111.893 57.634 C 113.355 58.251,114.448 58.932,115.362 59.796 C 116.096 60.491,117.028 61.131,117.433 61.219 C 119.925 61.760,122.970 62.757,124.088 63.396 C 125.892 64.429,129.739 65.157,135.640 65.585 C 141.682 66.023,141.672 66.017,141.922 69.258 C 142.101 71.575,142.066 71.640,139.705 73.417 C 139.261 73.751,138.621 74.563,138.282 75.221 C 137.943 75.879,137.099 76.898,136.408 77.485 C 135.506 78.250,135.055 78.870,134.814 79.676 C 134.289 81.431,133.306 83.197,132.594 83.663 C 132.234 83.899,131.530 84.962,131.011 86.052 C 130.497 87.132,129.533 88.598,128.867 89.310 C 127.977 90.264,127.502 91.079,127.067 92.403 C 126.295 94.753,125.933 95.440,124.821 96.671 C 123.250 98.410,122.459 105.383,123.145 111.455 L 123.405 113.761 125.040 115.325 C 125.939 116.184,126.996 117.317,127.388 117.842 C 128.718 119.623,134.198 120.138,144.897 119.488 C 152.493 119.026,152.619 119.000,154.186 117.569 C 155.577 116.300,155.966 116.106,157.861 115.733 C 160.264 115.260,160.336 115.224,161.980 113.647 C 163.122 112.552,164.007 111.975,165.335 111.459 C 166.684 110.935,167.484 110.408,168.503 109.373 C 169.254 108.612,170.321 107.758,170.875 107.475 C 171.429 107.192,172.303 106.410,172.817 105.736 C 173.332 105.062,174.256 104.197,174.871 103.814 C 175.486 103.431,176.353 102.589,176.798 101.942 C 177.243 101.295,177.920 100.572,178.301 100.335 C 179.576 99.545,180.201 98.851,180.926 97.423 C 181.322 96.643,182.035 95.644,182.511 95.202 C 182.987 94.761,183.797 93.886,184.312 93.257 C 184.826 92.629,185.928 91.736,186.760 91.271 C 187.592 90.807,188.714 90.164,189.252 89.841 C 192.729 87.755,200.035 88.104,202.757 90.487 C 204.163 91.717,204.886 92.067,207.813 92.935 C 208.742 93.211,209.574 93.665,210.003 94.129 C 210.881 95.079,212.388 95.957,214.075 96.500 C 214.799 96.734,215.843 97.310,216.394 97.781 C 217.528 98.750,218.898 99.491,221.014 100.283 C 221.812 100.582,223.024 101.323,223.708 101.930 C 224.608 102.730,225.533 103.228,227.060 103.736 C 228.697 104.282,229.504 104.735,230.669 105.763 C 231.638 106.619,232.834 107.353,234.047 107.837 C 235.112 108.262,236.388 109.014,236.996 109.574 C 237.585 110.117,238.939 110.958,240.005 111.444 C 241.194 111.986,242.380 112.769,243.072 113.469 C 243.966 114.372,244.637 114.755,246.296 115.305 C 248.131 115.915,248.525 116.160,249.475 117.286 C 250.168 118.108,251.131 118.858,252.148 119.369 C 253.022 119.807,254.259 120.650,254.897 121.240 C 255.593 121.884,256.813 122.619,257.948 123.077 C 259.410 123.667,260.068 124.111,260.846 125.034 C 261.490 125.797,262.462 126.530,263.545 127.069 C 264.521 127.554,265.523 128.285,265.912 128.795 C 266.335 129.349,267.365 130.069,268.667 130.722 C 269.811 131.295,271.283 132.261,271.937 132.870 C 272.592 133.479,273.712 134.274,274.427 134.636 C 275.142 134.998,276.154 135.817,276.678 136.455 C 277.325 137.245,278.176 137.874,279.343 138.425 C 280.285 138.870,281.503 139.637,282.048 140.129 C 282.594 140.621,283.985 141.636,285.141 142.385 C 286.297 143.134,287.501 144.102,287.816 144.536 C 288.132 144.969,289.103 145.704,289.974 146.168 C 291.003 146.717,291.790 147.364,292.223 148.018 C 292.606 148.598,293.473 149.354,294.268 149.802 C 295.027 150.231,296.076 151.099,296.600 151.731 C 297.209 152.468,298.189 153.205,299.323 153.779 C 300.297 154.273,301.631 155.178,302.287 155.790 C 302.943 156.402,304.185 157.316,305.048 157.820 C 306.002 158.379,306.885 159.144,307.303 159.776 C 307.681 160.347,308.425 161.046,308.956 161.329 C 310.366 162.080,310.667 162.366,311.551 163.791 C 311.990 164.498,312.918 165.562,313.612 166.155 C 315.133 167.454,315.555 168.975,315.491 172.938 C 315.424 177.042,313.387 179.805,308.367 182.597 L 306.061 183.880 303.868 183.808 C 302.441 183.760,301.495 183.602,301.160 183.355 C 299.381 182.044,298.238 181.449,296.265 180.807 C 294.398 180.200,293.908 179.920,293.230 179.077 C 292.204 177.799,291.232 177.203,289.112 176.548 C 288.030 176.214,286.971 175.649,286.172 174.979 C 285.485 174.404,284.227 173.577,283.376 173.143 C 282.526 172.708,281.238 171.818,280.515 171.164 C 279.529 170.271,278.660 169.788,277.036 169.229 C 275.299 168.631,274.667 168.265,273.840 167.374 C 273.166 166.649,272.122 165.951,270.826 165.362 C 269.736 164.865,268.402 164.043,267.863 163.534 C 267.246 162.953,266.083 162.306,264.729 161.792 C 263.029 161.146,262.296 160.693,261.241 159.638 C 260.124 158.521,259.596 158.210,258.018 157.740 C 256.439 157.270,255.869 156.934,254.515 155.674 C 253.330 154.572,252.512 154.048,251.453 153.714 C 250.659 153.464,249.459 152.805,248.788 152.250 C 247.461 151.154,246.296 150.505,244.764 150.009 C 244.170 149.817,243.142 149.055,242.165 148.083 L 240.548 146.475 238.557 146.306 C 236.120 146.100,235.416 146.399,234.136 148.181 C 233.641 148.869,232.943 149.624,232.585 149.859 C 231.548 150.539,230.898 151.783,231.243 152.428 C 232.037 153.916,235.489 157.288,236.834 157.890 C 237.602 158.233,238.776 159.025,239.443 159.649 C 240.337 160.486,241.120 160.927,242.425 161.330 C 244.590 161.999,245.146 162.350,245.852 163.491 C 246.598 164.699,247.358 165.145,249.686 165.740 C 251.351 166.166,251.853 166.429,252.831 167.387 C 253.496 168.039,254.751 168.866,255.760 169.316 C 256.731 169.750,258.044 170.561,258.677 171.118 C 259.310 171.675,260.719 172.500,261.808 172.951 C 263.184 173.521,264.221 174.180,265.206 175.113 C 266.384 176.229,266.991 176.574,268.802 177.157 C 270.568 177.725,271.229 178.094,272.297 179.104 C 273.181 179.940,274.145 180.543,275.232 180.939 C 276.122 181.264,277.622 182.105,278.567 182.808 C 279.511 183.512,280.921 184.371,281.701 184.717 C 282.481 185.063,283.698 185.913,284.407 186.605 C 285.116 187.297,286.152 188.053,286.710 188.285 C 288.494 189.026,289.337 189.877,290.350 191.957 C 290.882 193.050,291.359 194.022,291.409 194.117 C 291.460 194.213,291.065 194.796,290.532 195.412 C 289.998 196.029,289.343 197.052,289.076 197.687 C 286.918 202.804,286.063 203.459,280.677 204.115 C 274.560 204.861,270.537 204.115,268.290 201.818 C 267.573 201.086,266.883 200.737,265.067 200.192 C 262.982 199.567,262.631 199.366,261.468 198.136 C 260.299 196.899,259.964 196.709,257.821 196.071 C 255.720 195.444,255.367 195.249,254.612 194.295 C 253.784 193.250,252.731 192.650,249.974 191.653 C 249.322 191.417,248.317 190.820,247.740 190.326 C 246.740 189.471,244.268 188.152,243.654 188.147 C 243.494 188.145,242.665 187.521,241.811 186.759 C 240.609 185.686,239.808 185.222,238.265 184.703 C 236.666 184.166,235.983 183.760,234.823 182.657 C 233.591 181.486,233.050 181.180,231.185 180.601 C 229.410 180.049,228.797 179.718,227.963 178.856 C 225.297 176.103,218.259 175.443,216.228 177.755 C 214.627 179.579,215.198 183.613,217.230 184.834 C 217.747 185.144,218.828 186.016,219.633 186.771 C 220.437 187.527,221.256 188.144,221.453 188.144 C 222.404 188.144,225.169 189.520,226.254 190.533 C 226.986 191.217,228.147 191.927,229.253 192.368 C 230.245 192.764,231.674 193.595,232.428 194.215 C 233.260 194.899,234.570 195.624,235.759 196.060 C 237.223 196.596,238.027 197.084,238.933 197.985 C 239.945 198.991,240.513 199.306,242.353 199.880 C 244.281 200.481,244.750 200.752,246.056 202.024 C 247.353 203.286,247.818 203.557,249.548 204.060 C 251.154 204.528,251.813 204.886,252.923 205.891 C 253.819 206.702,254.949 207.393,256.148 207.864 C 257.163 208.262,258.428 208.959,258.958 209.412 C 260.017 210.316,261.459 211.101,262.951 211.583 C 266.630 212.773,266.541 218.865,262.792 222.558 C 261.781 223.553,260.659 224.726,260.298 225.165 C 259.417 226.237,256.493 226.680,251.636 226.476 C 248.036 226.325,247.643 226.210,246.018 224.827 C 245.368 224.274,244.342 223.772,243.183 223.439 C 240.190 222.580,239.359 222.217,237.927 221.141 C 236.977 220.427,235.783 219.874,234.010 219.327 C 232.369 218.820,231.050 218.226,230.306 217.659 C 228.854 216.550,227.559 215.888,225.858 215.383 C 224.179 214.886,223.616 214.588,222.128 213.414 C 221.321 212.776,220.089 212.198,218.343 211.637 C 216.679 211.103,215.171 210.407,214.123 209.689 C 213.227 209.075,211.625 208.261,210.564 207.879 C 208.382 207.095,207.641 206.667,206.662 205.625 C 205.725 204.626,201.849 204.506,201.185 205.454 C 198.447 209.364,199.102 214.360,202.554 215.886 C 203.346 216.236,204.285 216.794,204.639 217.125 C 205.512 217.941,206.972 218.644,209.467 219.452 C 210.617 219.824,212.059 220.511,212.673 220.979 C 214.202 222.144,214.972 222.512,217.600 223.331 C 219.208 223.831,220.353 224.396,221.543 225.274 C 222.514 225.991,223.948 226.752,224.948 227.080 C 227.116 227.793,228.335 228.403,229.749 229.482 C 230.522 230.072,231.662 230.551,233.480 231.050 C 236.911 231.991,237.241 232.267,237.647 234.537 C 238.063 236.867,237.858 237.297,235.815 238.387 C 234.927 238.860,233.770 239.636,233.244 240.111 C 230.729 242.383,227.417 242.942,217.912 242.698 C 207.044 242.419,204.160 242.018,201.679 240.441 C 199.943 239.338,198.776 238.960,196.217 238.669 C 192.679 238.267,192.012 237.496,192.491 234.362 C 192.746 232.688,192.827 232.541,194.165 231.314 C 196.091 229.550,196.121 229.455,196.299 224.559 C 196.556 217.502,196.001 214.471,194.114 212.639 C 193.413 211.959,192.907 211.087,192.387 209.660 C 191.483 207.182,189.486 204.893,187.132 203.639 C 186.283 203.187,185.350 202.481,185.058 202.071 C 184.225 200.901,183.033 200.326,180.758 199.995 C 177.316 199.495,176.859 198.560,176.818 191.939 C 176.801 189.212,176.211 187.321,174.899 185.787 C 174.397 185.201,173.673 183.897,173.289 182.889 C 172.179 179.969,164.713 172.938,162.723 172.938 C 161.081 172.938,159.203 172.036,157.276 170.322 C 154.654 167.990,154.480 167.609,154.127 163.402 C 153.791 159.403,153.431 158.348,152.011 157.207 C 151.451 156.756,150.658 155.849,150.250 155.191 C 149.200 153.499,146.179 150.676,144.550 149.863 C 143.791 149.485,142.627 148.648,141.964 148.004 C 139.091 145.215,124.969 145.365,123.451 148.200 C 123.298 148.486,122.544 149.075,121.775 149.509 C 121.006 149.943,120.054 150.705,119.660 151.202 C 119.266 151.698,117.745 153.312,116.280 154.787 C 113.252 157.838,113.219 157.845,111.792 155.687 C 111.338 155.002,110.583 154.178,110.114 153.857 C 109.646 153.536,108.669 152.588,107.944 151.751 C 107.219 150.915,106.208 150.014,105.697 149.751 C 105.186 149.487,104.254 148.729,103.627 148.066 C 102.194 146.552,102.032 146.494,98.162 146.118 C 90.092 145.333,84.718 146.061,81.974 148.312 C 80.031 149.906,79.172 150.128,76.840 149.640 C 74.446 149.139,74.362 149.064,73.041 146.244 C 72.275 144.608,71.673 143.697,71.038 143.213 C 70.539 142.832,69.760 141.825,69.306 140.974 C 68.751 139.932,68.084 139.142,67.263 138.552 C 66.593 138.070,65.769 137.177,65.432 136.567 C 65.095 135.957,64.414 135.201,63.918 134.887 C 63.421 134.572,62.663 134.027,62.232 133.674 C 60.288 132.085,58.825 132.843,57.086 136.340 C 56.839 136.836,56.263 137.706,55.807 138.273 C 54.449 139.960,54.346 140.272,54.660 141.739 C 54.814 142.457,55.048 142.979,55.179 142.898 C 55.692 142.580,56.421 143.117,57.325 144.480 C 57.845 145.263,58.775 146.259,59.392 146.694 C 60.161 147.236,60.826 148.056,61.507 149.301 C 62.053 150.299,63.151 151.836,63.946 152.715 C 64.742 153.594,65.661 154.790,65.989 155.374 C 66.317 155.958,67.030 156.744,67.572 157.120 C 70.527 159.167,70.444 163.351,67.371 167.271 C 65.654 169.462,65.438 170.343,65.437 175.186 C 65.435 181.060,65.783 182.715,67.394 184.499 C 67.865 185.021,68.721 186.547,69.294 187.891 C 70.118 189.820,70.568 190.525,71.431 191.237 C 72.032 191.733,73.226 192.839,74.084 193.695 C 75.659 195.265,75.681 195.277,80.035 196.801 C 80.606 197.001,81.708 197.575,82.483 198.076 C 83.258 198.578,84.484 199.279,85.209 199.635 C 87.674 200.848,87.802 201.109,88.147 205.650 C 88.502 210.335,88.574 210.566,90.185 212.242 C 90.866 212.951,91.900 214.409,92.482 215.481 C 93.714 217.751,93.872 217.906,96.263 219.212 C 97.255 219.754,98.730 220.804,99.539 221.545 C 101.272 223.131,101.287 223.136,106.443 223.438 C 112.954 223.820,114.330 224.569,115.233 228.222 C 115.486 229.245,115.852 229.802,117.010 230.928 C 117.812 231.707,118.877 232.983,119.376 233.763 C 120.618 235.701,122.784 237.672,124.765 238.667 C 125.674 239.124,126.898 239.938,127.486 240.477 C 129.015 241.878,129.883 242.058,135.954 242.237 C 143.499 242.460,144.519 242.964,145.917 247.165 C 146.276 248.246,146.768 249.114,147.303 249.613 C 147.759 250.039,148.465 250.692,148.873 251.066 C 149.280 251.439,149.890 252.115,150.229 252.567 C 150.567 253.019,151.543 253.727,152.397 254.141 C 154.529 255.174,154.897 255.556,154.897 256.741 L 154.897 257.732 164.820 257.732 L 174.742 257.732 174.742 256.713 C 174.742 255.586,175.458 254.938,178.271 253.517 C 179.475 252.910,179.719 252.632,180.685 250.774 C 181.932 248.378,182.760 247.587,184.595 247.042 C 186.772 246.396,187.121 246.494,189.210 248.343 C 190.291 249.299,192.389 249.864,195.876 250.136 C 198.875 250.370,200.898 250.905,202.577 251.905 C 205.474 253.632,206.544 253.795,216.457 254.017 C 229.551 254.311,232.654 253.940,234.929 251.809 C 235.938 250.864,236.690 250.441,238.341 249.891 C 240.230 249.262,240.587 249.036,241.642 247.801 C 242.293 247.040,243.325 246.123,243.936 245.765 C 244.608 245.372,245.319 244.652,245.732 243.947 C 247.651 240.672,251.271 237.889,253.615 237.888 C 256.324 237.886,259.588 237.390,260.438 236.850 C 262.184 235.743,263.121 235.340,265.206 234.796 C 267.254 234.263,267.490 234.128,268.814 232.742 C 269.594 231.926,270.599 231.071,271.047 230.841 C 272.312 230.192,272.861 229.279,273.351 227.015 C 273.746 225.185,273.956 224.751,275.046 223.504 C 275.776 222.670,276.405 221.646,276.567 221.028 C 277.855 216.111,277.797 216.161,282.855 215.593 C 287.043 215.122,287.743 214.883,289.304 213.392 C 289.923 212.801,291.251 212.014,292.626 211.423 C 294.910 210.441,294.919 210.433,295.928 208.647 C 296.485 207.662,297.352 206.400,297.855 205.843 C 299.206 204.348,299.927 202.526,300.131 200.094 C 300.302 198.041,301.242 196.134,302.080 196.134 C 302.212 196.134,303.334 195.679,304.574 195.122 C 306.784 194.131,310.064 193.113,312.887 192.544 C 314.977 192.122,316.946 191.115,318.435 189.707 C 319.161 189.020,320.210 188.224,320.766 187.936 C 322.000 187.300,322.256 186.894,323.085 184.270 C 323.580 182.704,323.970 181.983,324.719 181.248 C 326.701 179.306,327.269 176.628,326.980 170.586 C 326.804 166.911,326.537 166.025,325.137 164.475 L 324.192 163.430 325.363 161.676 C 326.006 160.712,326.709 159.671,326.923 159.363 C 327.138 159.055,327.974 158.491,328.781 158.109 C 329.588 157.727,330.836 156.869,331.555 156.202 C 332.273 155.535,333.613 154.418,334.533 153.721 C 336.921 151.910,341.195 147.597,342.655 145.526 C 343.437 144.415,344.172 143.663,344.630 143.503 C 345.779 143.103,345.707 140.767,344.491 139.000 C 344.013 138.305,343.358 137.219,343.037 136.587 C 340.762 132.122,340.376 132.272,332.133 140.807 C 328.952 144.100,327.347 145.559,326.110 146.282 C 325.183 146.824,324.119 147.664,323.746 148.149 C 323.306 148.719,322.385 149.343,321.134 149.919 C 320.071 150.409,318.776 151.221,318.257 151.724 L 317.313 152.638 316.324 151.850 C 315.780 151.417,314.671 150.816,313.859 150.515 C 312.770 150.111,312.061 149.612,311.153 148.609 C 310.476 147.862,309.270 146.883,308.472 146.434 C 307.675 145.984,306.339 145.008,305.503 144.265 C 304.668 143.521,303.345 142.526,302.563 142.054 C 301.781 141.581,300.865 140.792,300.528 140.300 C 300.191 139.809,299.151 138.953,298.218 138.400 C 297.284 137.846,296.135 136.922,295.663 136.345 C 295.099 135.656,294.234 135.037,293.137 134.540 C 292.219 134.123,290.923 133.303,290.257 132.716 C 289.591 132.130,288.264 131.192,287.307 130.633 C 286.350 130.074,285.567 129.523,285.567 129.410 C 285.567 128.916,283.636 127.279,282.454 126.771 C 281.743 126.465,280.781 125.769,280.312 125.221 C 279.768 124.586,278.679 123.845,277.295 123.170 C 276.060 122.567,274.562 121.578,273.809 120.867 C 273.083 120.182,271.955 119.371,271.302 119.064 C 270.532 118.702,269.803 118.072,269.230 117.274 C 268.489 116.243,268.057 115.932,266.582 115.368 C 265.608 114.996,264.185 114.171,263.402 113.525 C 262.622 112.882,261.276 112.020,260.411 111.608 C 259.250 111.057,258.602 110.534,257.943 109.618 C 256.988 108.293,256.613 108.042,254.361 107.221 C 253.570 106.933,252.445 106.288,251.862 105.788 C 251.278 105.289,249.943 104.489,248.896 104.012 C 247.661 103.449,246.682 102.787,246.112 102.128 C 244.958 100.796,244.307 100.426,242.139 99.868 C 240.539 99.456,240.189 99.247,239.041 98.014 C 237.932 96.823,237.439 96.516,235.596 95.871 C 234.413 95.457,233.047 94.796,232.559 94.402 C 230.763 92.949,230.110 92.558,228.667 92.070 C 227.855 91.795,226.261 90.937,225.124 90.163 C 223.987 89.388,222.431 88.530,221.666 88.256 C 220.902 87.982,219.721 87.260,219.043 86.651 C 218.129 85.829,217.229 85.347,215.558 84.782 C 213.463 84.074,211.604 83.091,211.600 82.689 C 211.596 82.332,209.837 81.450,207.698 80.731 C 206.172 80.218,205.010 79.615,203.964 78.794 C 200.491 76.064,195.275 76.032,189.691 78.706 C 188.628 79.215,186.946 79.818,185.954 80.047 C 179.320 81.577,178.871 81.749,177.723 83.196 C 177.307 83.720,176.334 84.661,175.561 85.286 C 174.417 86.211,173.973 86.817,173.177 88.541 C 172.427 90.165,171.912 90.894,170.977 91.658 C 170.306 92.206,169.426 93.177,169.023 93.814 C 168.619 94.452,167.726 95.380,167.038 95.876 C 166.349 96.372,165.391 97.297,164.908 97.932 C 164.411 98.585,163.393 99.443,162.561 99.911 C 161.754 100.365,160.454 101.257,159.674 101.892 C 158.772 102.627,157.620 103.257,156.511 103.620 C 155.159 104.063,154.497 104.469,153.560 105.428 C 151.904 107.125,151.840 107.148,147.366 107.723 C 145.188 108.002,142.657 108.460,141.742 108.740 C 139.178 109.523,136.766 109.524,135.921 108.741 C 133.711 106.697,133.936 101.337,136.337 98.840 C 137.052 98.096,138.659 95.035,138.660 94.416 C 138.660 94.251,139.398 93.467,140.301 92.675 C 141.629 91.509,142.048 90.945,142.493 89.724 C 142.796 88.894,143.507 87.688,144.074 87.044 C 145.036 85.951,146.384 83.493,146.389 82.822 C 146.391 82.659,147.098 81.913,147.962 81.165 C 149.042 80.229,149.716 79.389,150.122 78.470 C 150.483 77.653,151.125 76.803,151.776 76.280 C 152.638 75.587,152.998 75.008,153.675 73.223 C 154.347 71.452,154.754 70.792,155.757 69.853 C 156.442 69.211,157.290 68.106,157.642 67.397 C 157.993 66.688,158.807 65.636,159.451 65.060 C 160.272 64.324,160.979 63.286,161.818 61.580 L 163.015 59.149 165.722 57.417 C 170.114 54.605,170.573 54.409,173.722 53.993 C 177.060 53.553,179.027 53.072,181.540 52.079 C 189.238 49.037,243.649 49.033,248.803 52.074 C 250.273 52.942,251.831 53.351,256.073 53.986 C 259.169 54.449,260.844 54.844,262.560 55.514 C 270.512 58.622,287.400 58.754,292.397 55.748 C 293.441 55.120,294.215 54.834,294.781 54.866 L 295.619 54.913 295.619 53.259 C 295.619 51.777,295.516 51.448,294.633 50.094 C 294.091 49.263,293.284 48.000,292.839 47.288 C 292.395 46.576,291.699 45.674,291.292 45.284 L 290.552 44.576 289.081 45.249 C 287.646 45.906,283.200 46.571,279.510 46.680 C 275.873 46.788,265.657 45.460,263.144 44.554 C 258.627 42.923,257.015 42.497,254.425 42.249 C 250.595 41.882,246.475 41.137,241.495 39.911 C 239.156 39.335,236.140 38.764,234.794 38.642 C 231.875 38.378,206.048 38.398,201.783 38.668 M96.649 157.472 C 98.633 157.981,98.787 158.095,100.488 160.318 C 100.827 160.761,101.543 161.414,102.079 161.769 C 104.914 163.645,104.975 171.447,102.171 173.635 C 101.568 174.106,100.844 175.158,100.079 176.675 C 99.411 178.000,98.453 179.439,97.844 180.031 C 97.258 180.600,96.488 181.642,96.134 182.345 C 95.681 183.244,95.089 183.894,94.143 184.531 C 93.403 185.030,92.465 185.902,92.060 186.469 C 90.939 188.037,90.761 188.118,88.345 188.166 C 85.276 188.226,84.381 187.752,80.839 184.189 C 76.741 180.067,76.370 178.984,77.067 173.189 L 77.330 171.005 78.857 169.588 C 79.743 168.765,80.619 167.657,80.941 166.949 C 81.247 166.277,81.920 165.367,82.437 164.926 C 83.007 164.440,83.883 163.146,84.665 161.637 L 85.954 159.149 87.887 158.132 C 89.436 157.315,90.203 157.079,91.753 156.941 C 93.860 156.753,93.840 156.751,96.649 157.472 M137.336 158.100 C 139.013 158.967,141.679 161.924,142.593 163.928 C 143.078 164.993,143.783 166.198,144.160 166.604 C 144.537 167.011,144.841 167.471,144.836 167.628 C 144.804 168.630,144.051 171.166,143.531 172.026 C 143.191 172.587,142.674 173.629,142.383 174.341 C 141.992 175.295,141.491 175.913,140.481 176.685 C 139.725 177.263,138.831 178.247,138.488 178.879 C 138.146 179.510,137.353 180.492,136.726 181.062 C 135.973 181.747,135.223 182.842,134.519 184.284 C 133.932 185.486,132.948 187.009,132.332 187.668 C 131.716 188.328,130.957 189.409,130.646 190.071 C 130.335 190.732,129.778 191.461,129.409 191.690 C 128.158 192.464,127.528 193.166,126.806 194.588 C 126.410 195.367,125.633 196.411,125.080 196.907 C 124.450 197.472,123.673 198.638,123.002 200.025 C 122.306 201.465,121.628 202.471,121.066 202.900 C 120.590 203.263,119.824 204.267,119.364 205.130 C 118.886 206.027,118.026 207.115,117.360 207.667 C 116.718 208.199,115.978 209.051,115.715 209.560 C 115.152 210.651,113.573 212.110,112.942 212.122 C 112.699 212.126,111.864 212.350,111.086 212.618 L 109.671 213.107 107.549 212.492 C 103.029 211.182,100.700 209.107,99.375 205.210 C 99.041 204.230,98.601 203.109,98.397 202.719 C 97.645 201.285,100.103 194.484,101.922 192.964 C 102.530 192.455,103.386 191.403,103.825 190.625 C 104.312 189.762,105.065 188.907,105.756 188.431 C 106.827 187.695,107.165 187.198,108.058 185.052 C 108.264 184.555,108.922 183.570,109.519 182.861 C 110.115 182.152,110.992 180.812,111.465 179.883 C 112.061 178.715,112.657 177.965,113.395 177.453 C 114.044 177.004,114.858 176.047,115.468 175.019 C 116.020 174.087,116.925 172.955,117.478 172.503 C 118.133 171.968,118.797 171.023,119.380 169.797 C 119.872 168.760,120.750 167.364,121.331 166.693 C 121.912 166.022,122.747 164.798,123.187 163.972 C 123.627 163.147,124.319 162.275,124.725 162.036 C 125.131 161.796,125.794 161.190,126.198 160.689 C 128.348 158.024,128.499 157.898,129.798 157.700 C 131.729 157.405,136.479 157.657,137.336 158.100 M156.450 181.869 C 156.801 182.103,157.436 182.606,157.861 182.987 C 158.286 183.368,159.188 183.995,159.864 184.380 C 160.565 184.779,161.374 185.524,161.746 186.113 C 162.105 186.681,162.978 187.690,163.686 188.356 C 165.185 189.763,165.458 190.593,165.439 193.686 C 165.414 197.763,165.234 198.332,163.455 199.967 C 162.497 200.847,161.656 201.906,161.314 202.659 C 161.005 203.342,160.310 204.256,159.769 204.690 C 159.030 205.284,158.544 206.051,157.810 207.786 C 157.039 209.605,156.598 210.285,155.722 211.003 C 155.111 211.503,154.259 212.538,153.828 213.301 C 153.357 214.136,152.617 214.973,151.973 215.402 C 151.224 215.901,150.631 216.629,150.000 217.829 C 149.504 218.772,148.672 220.008,148.151 220.575 C 147.631 221.143,146.788 222.474,146.278 223.534 C 145.625 224.891,145.007 225.743,144.189 226.413 C 143.551 226.937,142.631 227.985,142.146 228.743 C 141.661 229.502,141.034 230.245,140.752 230.396 C 140.174 230.705,132.518 230.773,132.050 230.473 C 130.740 229.633,127.175 225.953,126.624 224.871 C 126.262 224.162,125.471 223.050,124.866 222.398 C 123.424 220.847,123.484 217.574,124.973 216.514 C 125.373 216.229,126.127 215.185,126.648 214.194 C 127.250 213.048,128.022 212.042,128.766 211.432 C 129.549 210.790,130.227 209.885,130.815 208.695 C 131.298 207.717,132.171 206.376,132.756 205.714 C 133.340 205.052,134.201 203.750,134.670 202.821 C 135.265 201.641,135.847 200.907,136.596 200.388 C 137.232 199.948,137.921 199.149,138.284 198.433 C 138.621 197.767,139.528 196.683,140.299 196.025 C 141.344 195.132,141.849 194.454,142.286 193.355 C 142.947 191.692,143.515 190.781,144.793 189.336 C 145.279 188.786,145.890 187.855,146.150 187.267 C 146.664 186.103,147.308 185.434,148.729 184.586 C 149.234 184.284,150.140 183.453,150.741 182.740 L 151.835 181.443 153.824 181.443 C 155.244 181.443,155.995 181.565,156.450 181.869 M176.330 210.816 C 177.087 211.095,178.223 211.453,178.854 211.613 C 180.060 211.918,183.436 214.868,184.147 216.237 C 186.087 219.973,185.273 226.477,182.485 229.522 C 181.959 230.096,181.153 231.256,180.693 232.100 C 180.186 233.031,179.434 233.940,178.782 234.413 C 178.101 234.906,177.397 235.774,176.864 236.779 C 176.400 237.652,175.581 238.715,175.042 239.142 C 174.414 239.639,173.719 240.612,173.107 241.852 C 171.063 245.986,167.612 247.345,161.619 246.375 C 159.318 246.002,158.817 245.709,157.818 244.149 C 157.345 243.412,156.439 242.450,155.803 242.013 C 154.187 240.901,154.066 240.551,153.923 236.574 C 153.766 232.223,153.827 231.979,155.510 230.186 C 156.421 229.215,157.157 228.074,157.739 226.729 C 158.386 225.234,158.888 224.490,159.704 223.822 C 160.306 223.328,161.124 222.323,161.521 221.587 C 161.937 220.816,162.733 219.885,163.402 219.386 C 164.209 218.785,164.855 217.963,165.525 216.682 C 167.267 213.355,169.711 211.293,172.591 210.720 C 174.962 210.249,174.777 210.244,176.330 210.816 " stroke="none" fill="#666666" fill-rule="evenodd"></path><path id="path1" d="M74.227 3.787 C 72.297 4.474,70.792 5.345,70.207 6.112 C 69.833 6.603,68.932 7.386,68.204 7.853 C 66.375 9.026,66.107 9.391,65.459 11.598 C 64.958 13.299,64.710 13.706,63.388 14.994 C 62.284 16.069,61.810 16.751,61.599 17.571 C 60.936 20.144,60.512 21.086,59.637 21.927 C 58.613 22.910,58.012 23.972,57.372 25.930 C 57.135 26.654,56.556 27.698,56.086 28.250 C 55.094 29.412,54.608 30.304,53.829 32.385 C 53.421 33.475,52.892 34.236,51.890 35.176 C 50.569 36.415,50.494 36.558,50.089 38.603 C 49.673 40.702,49.642 40.758,48.190 42.015 C 46.564 43.424,46.319 43.894,45.864 46.470 C 45.583 48.065,45.454 48.307,44.439 49.156 C 43.169 50.218,42.511 51.412,41.774 53.995 C 41.386 55.355,41.031 56.013,40.335 56.667 C 39.376 57.570,38.688 58.738,38.166 60.352 C 37.998 60.872,37.420 61.799,36.881 62.414 C 35.690 63.770,35.234 64.628,34.669 66.570 C 34.344 67.690,33.890 68.432,32.825 69.582 C 31.565 70.943,31.348 71.349,30.816 73.341 C 30.259 75.427,30.124 75.663,28.792 76.898 C 27.606 77.998,27.291 78.483,26.923 79.768 C 26.381 81.665,25.673 83.102,25.061 83.553 C 24.195 84.189,23.487 85.336,22.933 87.000 C 22.629 87.914,21.966 89.155,21.460 89.756 C 20.954 90.358,20.260 91.488,19.917 92.268 C 19.575 93.048,19.055 94.229,18.761 94.893 C 18.467 95.557,17.774 96.542,17.221 97.082 C 16.429 97.856,16.078 98.514,15.568 100.186 C 14.967 102.156,13.840 103.866,13.142 103.866 C 12.628 103.866,11.781 105.567,11.312 107.542 C 10.853 109.479,10.700 109.767,9.567 110.825 C 8.763 111.576,8.174 112.415,7.894 113.206 C 7.657 113.879,7.282 114.935,7.061 115.553 C 6.840 116.172,6.147 117.303,5.520 118.067 C 4.894 118.831,4.192 120.036,3.960 120.746 C 3.055 123.516,2.263 124.485,0.902 124.485 L 0.000 124.485 0.000 129.381 L 0.000 134.278 1.031 134.278 C 2.173 134.278,2.794 134.745,3.496 136.133 C 4.104 137.336,4.869 138.114,6.029 138.709 C 6.581 138.992,7.566 139.722,8.220 140.332 C 8.893 140.961,10.362 141.882,11.612 142.459 C 12.900 143.054,14.061 143.786,14.402 144.220 C 15.198 145.232,16.084 145.779,17.919 146.392 C 18.804 146.688,20.024 147.371,20.754 147.980 C 21.459 148.567,22.860 149.432,23.866 149.901 C 24.990 150.424,26.237 151.279,27.096 152.116 C 28.279 153.268,28.801 153.569,30.459 154.057 C 31.761 154.441,32.792 154.946,33.525 155.558 C 35.940 157.576,39.166 158.147,41.481 156.966 C 45.596 154.866,49.978 150.503,50.006 148.477 C 50.025 147.096,52.227 144.490,54.488 143.170 C 54.873 142.945,54.894 142.754,54.652 141.678 C 54.340 140.288,54.453 139.955,55.807 138.273 C 56.263 137.706,56.839 136.836,57.086 136.340 C 58.255 133.988,59.528 132.673,60.464 132.849 L 61.340 133.013 61.343 130.746 C 61.346 128.114,61.856 126.743,63.623 124.617 C 64.211 123.911,65.002 122.521,65.381 121.530 C 65.816 120.391,66.471 119.297,67.160 118.562 C 67.984 117.680,68.442 116.835,69.039 115.089 C 69.728 113.079,70.009 112.610,71.218 111.457 C 72.540 110.197,73.454 107.999,73.454 106.077 C 73.454 105.911,74.133 105.133,74.964 104.349 C 76.199 103.184,76.576 102.621,77.027 101.268 C 77.595 99.569,77.882 99.053,79.301 97.184 C 79.752 96.589,80.434 95.284,80.816 94.284 C 81.238 93.180,81.949 91.973,82.628 91.209 C 83.494 90.234,83.897 89.455,84.416 87.752 C 84.992 85.865,85.275 85.361,86.422 84.185 C 87.544 83.034,87.872 82.465,88.470 80.620 C 89.102 78.674,89.326 78.304,90.445 77.361 C 91.717 76.288,91.960 75.828,92.914 72.680 C 93.198 71.743,93.665 70.952,94.291 70.346 C 95.217 69.449,95.645 68.654,96.537 66.173 C 96.779 65.499,97.475 64.307,98.083 63.524 C 98.692 62.740,99.383 61.552,99.620 60.882 C 99.857 60.213,100.233 59.227,100.455 58.691 C 100.880 57.665,103.415 55.019,104.536 54.432 C 104.915 54.233,105.138 53.938,105.061 53.737 C 104.528 52.347,104.611 51.653,105.430 50.638 C 105.885 50.074,106.603 48.860,107.025 47.938 C 108.426 44.882,109.458 43.554,110.300 43.722 L 111.027 43.868 111.125 41.715 C 111.237 39.220,112.032 37.192,113.558 35.503 C 115.721 33.109,115.649 29.313,113.400 27.191 C 112.950 26.765,112.301 25.869,111.959 25.198 C 111.616 24.527,110.913 23.600,110.396 23.136 C 109.879 22.673,108.887 21.696,108.192 20.965 C 107.496 20.235,106.586 19.510,106.170 19.355 C 105.753 19.199,105.057 18.939,104.623 18.776 C 104.189 18.614,103.073 17.920,102.144 17.234 C 101.215 16.548,99.802 15.782,99.003 15.532 C 97.838 15.167,97.253 14.763,96.038 13.485 C 94.772 12.153,94.307 11.841,93.203 11.583 C 91.045 11.079,90.184 10.624,88.939 9.329 C 88.073 8.429,87.311 7.940,86.082 7.497 C 85.161 7.164,83.653 6.329,82.732 5.641 C 80.314 3.834,76.454 2.993,74.227 3.787 M320.381 4.011 C 319.896 4.222,318.956 4.902,318.293 5.522 C 317.438 6.322,316.643 6.780,315.566 7.093 C 312.909 7.866,312.134 8.297,310.983 9.641 C 310.024 10.761,309.580 11.047,307.958 11.590 C 306.546 12.062,305.725 12.535,304.768 13.426 C 304.059 14.086,302.610 15.031,301.546 15.526 C 300.483 16.021,299.209 16.852,298.715 17.372 C 298.016 18.110,297.347 18.463,295.688 18.969 C 294.148 19.439,293.363 19.834,292.849 20.400 C 291.626 21.746,290.824 22.520,289.641 23.495 C 288.044 24.811,286.145 31.353,286.846 33.119 C 287.016 33.544,287.490 34.863,287.902 36.051 C 288.313 37.238,288.941 38.708,289.298 39.317 C 289.927 40.391,290.848 43.917,290.603 44.313 C 290.537 44.421,290.831 44.843,291.257 45.251 C 291.683 45.659,292.395 46.576,292.839 47.288 C 293.284 48.000,294.091 49.263,294.633 50.094 C 295.511 51.441,295.619 51.782,295.619 53.230 L 295.619 54.855 296.904 55.282 C 298.436 55.791,298.952 56.439,299.779 58.892 C 300.277 60.370,300.650 60.952,301.845 62.113 C 303.231 63.461,303.323 63.632,303.718 65.577 C 304.123 67.579,304.499 68.295,305.541 69.058 C 306.949 70.088,307.387 70.845,307.851 73.055 C 308.278 75.093,308.406 75.354,309.398 76.233 C 310.810 77.484,311.210 78.131,311.851 80.208 C 312.216 81.391,312.743 82.352,313.530 83.274 C 314.186 84.042,314.963 85.366,315.344 86.364 C 315.811 87.586,316.357 88.445,317.163 89.223 C 318.092 90.121,318.436 90.721,318.950 92.344 C 319.785 94.979,320.186 95.717,321.163 96.412 C 322.082 97.067,322.736 98.405,323.221 100.621 C 323.507 101.929,323.762 102.354,325.025 103.634 C 325.878 104.497,326.629 105.536,326.814 106.105 C 327.301 107.610,327.966 108.820,328.963 110.014 C 329.463 110.612,330.196 111.980,330.593 113.054 C 331.067 114.338,331.715 115.467,332.483 116.347 C 333.330 117.317,333.782 118.144,334.123 119.346 C 334.889 122.043,335.037 122.324,336.356 123.573 C 338.299 125.412,340.772 130.998,340.430 132.776 C 340.394 132.964,340.797 133.567,341.327 134.115 C 341.856 134.663,342.590 135.706,342.957 136.434 C 343.324 137.162,343.986 138.263,344.428 138.881 C 345.077 139.788,345.257 140.334,345.361 141.716 L 345.490 143.428 346.392 143.497 C 348.244 143.640,348.466 143.779,349.083 145.177 C 349.409 145.916,349.763 146.927,349.869 147.423 C 350.259 149.244,353.233 152.656,357.051 155.662 C 359.078 157.258,359.086 157.262,361.467 157.410 C 363.825 157.557,365.233 157.103,367.496 155.463 C 368.099 155.027,369.309 154.430,370.185 154.137 C 372.085 153.503,372.798 153.046,374.026 151.675 C 374.704 150.919,375.472 150.446,376.914 149.899 C 378.202 149.410,379.237 148.806,379.917 148.147 C 380.487 147.593,381.847 146.734,382.938 146.237 C 384.030 145.741,385.329 144.941,385.825 144.461 C 386.761 143.554,389.215 142.275,390.027 142.271 C 390.534 142.268,393.307 139.877,396.233 136.920 C 397.869 135.267,398.193 135.052,399.041 135.052 L 400.000 135.052 400.000 129.124 L 400.000 123.196 398.996 123.196 C 397.521 123.196,396.652 122.099,396.032 119.455 C 395.591 117.579,395.418 117.256,394.061 115.802 C 393.157 114.832,392.502 113.873,392.390 113.354 C 391.990 111.503,391.156 109.751,390.199 108.755 C 389.593 108.124,388.964 107.077,388.612 106.110 C 388.220 105.034,387.589 104.032,386.685 103.048 C 385.570 101.834,385.229 101.222,384.686 99.453 C 384.128 97.635,383.835 97.122,382.703 95.975 C 381.510 94.768,381.313 94.400,380.775 92.389 C 380.238 90.377,380.035 89.998,378.788 88.692 C 377.994 87.858,377.260 86.797,377.071 86.208 C 376.537 84.537,375.547 82.701,374.638 81.695 C 374.171 81.177,373.466 79.910,373.072 78.878 C 372.630 77.723,371.929 76.523,371.245 75.753 C 370.491 74.904,369.999 74.026,369.710 73.012 C 369.050 70.698,368.373 69.501,367.139 68.469 C 366.081 67.585,365.973 67.375,365.560 65.397 C 365.130 63.336,365.069 63.227,363.506 61.700 C 362.378 60.598,361.818 59.826,361.635 59.123 C 361.492 58.570,361.240 57.600,361.074 56.966 C 360.871 56.186,360.341 55.345,359.436 54.367 C 358.601 53.466,357.969 52.493,357.757 51.783 C 357.315 50.307,356.392 48.598,355.302 47.243 C 354.824 46.648,354.175 45.389,353.862 44.445 C 353.436 43.167,352.984 42.422,352.089 41.522 C 351.144 40.572,350.787 39.959,350.415 38.649 C 349.639 35.918,349.466 35.591,348.193 34.460 C 346.750 33.178,346.555 32.834,346.121 30.799 C 345.679 28.724,345.306 28.039,344.099 27.083 C 343.059 26.259,342.669 25.478,341.870 22.611 C 341.550 21.465,341.172 20.844,340.221 19.905 C 339.353 19.047,338.816 18.213,338.408 17.090 C 338.088 16.210,337.341 14.923,336.742 14.221 C 335.615 12.901,335.265 12.211,334.805 10.407 C 334.443 8.987,333.700 8.099,332.256 7.357 C 331.596 7.019,330.588 6.238,330.015 5.621 C 328.370 3.852,322.867 2.932,320.381 4.011 M80.731 17.241 C 81.831 18.396,82.507 18.868,83.550 19.209 C 85.540 19.860,86.624 20.461,87.500 21.400 C 87.925 21.855,89.027 22.568,89.948 22.984 C 90.927 23.426,92.159 24.265,92.912 25.004 C 93.936 26.008,94.572 26.382,96.005 26.822 C 99.017 27.748,98.909 27.655,102.422 32.343 C 102.575 32.548,102.295 33.105,101.585 34.003 C 100.998 34.746,100.341 35.953,100.125 36.685 C 99.708 38.102,99.090 39.220,97.753 40.976 C 97.297 41.575,96.685 42.719,96.394 43.519 C 95.624 45.631,95.338 46.126,94.300 47.149 C 93.393 48.044,92.836 49.233,92.262 51.501 C 92.051 52.335,91.596 52.985,90.457 54.079 C 88.999 55.478,88.912 55.635,88.429 57.725 C 87.946 59.819,87.866 59.962,86.487 61.204 C 85.696 61.917,84.941 62.848,84.810 63.273 C 84.678 63.698,84.387 64.709,84.163 65.518 C 83.872 66.566,83.392 67.405,82.495 68.430 C 81.578 69.477,81.042 70.424,80.526 71.905 C 80.070 73.216,79.424 74.420,78.712 75.288 C 78.104 76.029,77.345 77.340,77.026 78.202 C 76.633 79.260,76.008 80.228,75.098 81.188 C 73.933 82.416,73.681 82.876,73.232 84.590 C 72.592 87.032,72.488 87.224,71.030 88.644 C 70.015 89.633,69.749 90.129,69.080 92.284 C 68.416 94.421,68.171 94.882,67.377 95.487 C 66.716 95.992,66.136 96.869,65.356 98.548 C 64.754 99.843,64.052 101.074,63.797 101.285 C 63.041 101.907,62.232 103.363,61.626 105.191 C 61.188 106.515,60.751 107.217,59.703 108.284 C 58.439 109.571,58.315 109.813,57.879 111.839 C 57.425 113.945,57.362 114.059,55.871 115.478 C 54.396 116.882,54.311 117.032,53.833 119.103 C 53.357 121.165,53.266 121.329,51.811 122.725 C 50.672 123.819,50.217 124.469,50.006 125.303 C 49.430 127.581,48.865 128.768,47.817 129.902 C 47.131 130.644,46.476 131.758,46.012 132.972 C 45.611 134.020,44.911 135.294,44.455 135.802 C 43.414 136.965,42.998 137.799,42.302 140.125 C 41.625 142.387,40.897 143.289,38.805 144.459 C 36.699 145.637,36.583 145.620,34.852 143.868 C 33.883 142.889,32.996 142.254,32.270 142.019 C 31.661 141.823,30.554 141.132,29.811 140.483 C 28.952 139.735,27.811 139.069,26.688 138.660 C 25.294 138.153,24.578 137.681,23.325 136.446 C 22.092 135.230,21.454 134.806,20.493 134.564 C 18.786 134.134,17.851 133.619,16.495 132.363 C 15.857 131.772,14.725 130.889,13.980 130.402 C 12.203 129.240,12.124 128.890,13.235 127.089 C 13.737 126.276,14.656 124.517,15.277 123.179 C 16.075 121.460,16.669 120.547,17.304 120.063 C 18.312 119.294,19.096 117.872,19.754 115.618 C 20.032 114.665,20.567 113.670,21.185 112.956 C 22.325 111.639,22.698 110.960,23.312 109.080 C 23.561 108.320,24.251 107.142,24.879 106.406 C 25.589 105.574,26.262 104.378,26.709 103.153 C 27.278 101.593,27.699 100.935,28.875 99.771 C 30.239 98.421,30.366 98.190,30.786 96.294 C 31.200 94.426,31.356 94.133,32.741 92.645 C 33.793 91.514,34.331 90.691,34.529 89.908 C 35.094 87.673,35.674 86.459,36.540 85.699 C 37.072 85.231,37.874 83.982,38.555 82.558 C 39.273 81.057,39.963 79.996,40.442 79.655 C 41.159 79.144,41.864 77.515,42.388 75.156 C 42.480 74.746,43.239 73.697,44.076 72.825 C 45.500 71.342,45.627 71.108,46.041 69.190 C 46.458 67.261,46.573 67.049,47.986 65.627 C 49.192 64.413,49.566 63.830,49.887 62.663 C 50.651 59.882,51.045 59.071,51.978 58.360 C 52.870 57.679,53.512 56.516,54.502 53.786 C 54.749 53.103,55.390 52.039,55.926 51.420 C 56.461 50.801,57.222 49.451,57.616 48.421 C 58.042 47.304,58.731 46.114,59.318 45.476 C 60.399 44.304,61.196 42.703,61.488 41.115 C 61.633 40.327,62.050 39.720,63.292 38.484 C 64.180 37.600,64.964 36.669,65.034 36.415 C 65.104 36.161,65.303 35.316,65.475 34.536 C 65.892 32.658,66.065 32.362,67.654 30.811 C 68.560 29.926,69.067 29.195,69.187 28.598 C 69.647 26.309,70.216 25.083,71.410 23.809 C 72.338 22.819,72.751 22.111,73.064 20.974 C 74.111 17.175,74.396 16.765,76.418 16.150 C 78.728 15.447,79.117 15.545,80.731 17.241 M323.710 16.110 C 325.573 16.323,325.914 16.685,326.726 19.311 C 327.333 21.273,327.574 21.684,328.877 22.980 C 329.685 23.783,330.426 24.769,330.524 25.171 C 331.199 27.931,331.561 28.733,332.702 29.993 C 333.912 31.329,334.058 31.598,335.058 34.332 C 335.354 35.142,336.054 36.358,336.613 37.035 C 337.172 37.711,337.941 39.079,338.321 40.073 C 338.787 41.294,339.406 42.300,340.226 43.170 C 341.397 44.414,341.598 44.853,342.286 47.680 C 342.507 48.587,342.903 49.153,344.103 50.275 C 345.626 51.700,345.639 51.724,346.047 53.943 C 346.410 55.922,346.561 56.273,347.367 57.019 C 349.598 59.082,349.687 59.222,350.153 61.378 C 350.579 63.349,350.687 63.550,352.066 64.917 C 353.239 66.079,353.641 66.704,354.093 68.070 C 354.403 69.007,355.042 70.225,355.512 70.776 C 356.554 71.996,357.142 73.108,357.648 74.813 C 357.910 75.697,358.441 76.539,359.322 77.470 C 360.577 78.797,361.598 81.065,361.598 82.525 C 361.598 82.826,362.264 83.688,363.169 84.560 C 364.619 85.957,364.796 86.253,365.469 88.417 C 366.107 90.470,366.354 90.911,367.468 91.979 C 368.529 92.996,368.854 93.546,369.444 95.316 C 369.946 96.825,370.475 97.816,371.278 98.758 C 371.994 99.596,372.610 100.690,372.962 101.748 C 373.351 102.915,373.891 103.828,374.763 104.791 C 375.773 105.906,376.134 106.577,376.670 108.336 C 377.317 110.456,377.536 110.791,379.433 112.558 C 380.175 113.249,380.406 113.742,380.804 115.484 C 381.249 117.434,381.383 117.682,382.750 119.069 C 383.747 120.083,384.351 120.962,384.635 121.814 C 384.865 122.503,385.538 123.705,386.131 124.485 C 388.297 127.334,388.574 128.963,387.103 130.189 C 386.530 130.666,385.386 131.668,384.560 132.416 C 383.466 133.407,382.438 134.025,380.769 134.698 C 379.352 135.270,378.073 135.996,377.413 136.604 C 376.826 137.145,375.492 137.984,374.449 138.470 C 373.405 138.956,371.972 139.838,371.263 140.429 C 370.417 141.135,369.354 141.702,368.170 142.077 C 366.691 142.547,366.128 142.894,365.046 144.005 C 363.435 145.660,363.178 145.674,361.954 144.180 C 361.422 143.531,360.486 142.656,359.875 142.235 C 358.507 141.294,358.147 140.613,357.711 138.144 C 357.379 136.260,357.329 136.172,355.750 134.665 C 354.154 133.143,354.122 133.084,353.695 130.955 C 353.281 128.886,353.203 128.735,351.894 127.495 C 350.866 126.520,350.365 125.777,349.878 124.504 C 349.522 123.572,348.719 122.186,348.094 121.424 C 347.419 120.602,346.776 119.451,346.509 118.589 C 345.838 116.416,345.207 115.312,344.201 114.545 C 343.295 113.853,343.142 113.501,342.256 110.052 C 342.031 109.178,341.593 108.541,340.482 107.473 C 339.220 106.259,338.909 105.764,338.331 104.044 C 337.821 102.528,337.350 101.699,336.418 100.673 C 335.448 99.606,335.019 98.830,334.435 97.085 C 333.903 95.495,333.377 94.491,332.593 93.573 C 331.957 92.828,331.196 91.503,330.783 90.422 C 330.357 89.307,329.670 88.122,329.075 87.477 C 328.132 86.454,326.804 83.743,326.804 82.841 C 326.804 82.612,326.061 81.653,325.153 80.709 C 323.568 79.063,323.484 78.910,323.045 76.859 C 322.631 74.923,322.485 74.628,321.481 73.702 C 320.009 72.345,319.721 71.868,318.942 69.479 C 318.452 67.980,317.982 67.120,317.136 66.179 C 316.449 65.415,315.763 64.278,315.418 63.334 C 315.103 62.468,314.284 61.062,313.599 60.208 C 312.671 59.052,312.209 58.160,311.790 56.712 C 311.302 55.023,311.039 54.579,309.782 53.322 C 308.405 51.946,308.315 51.773,307.911 49.763 C 307.463 47.530,306.966 46.666,305.592 45.732 C 304.552 45.025,304.265 44.442,303.744 41.975 C 303.344 40.079,303.273 39.958,301.830 38.704 C 300.430 37.486,300.280 37.241,299.517 34.942 L 298.702 32.482 299.719 30.458 C 300.906 28.099,301.340 27.760,304.147 27.009 C 306.062 26.496,306.326 26.344,307.306 25.179 C 308.127 24.204,308.874 23.677,310.511 22.920 C 311.686 22.377,313.130 21.518,313.721 21.012 C 314.312 20.506,315.497 19.842,316.354 19.536 C 317.575 19.100,318.256 18.625,319.501 17.340 C 320.765 16.037,321.214 15.726,321.692 15.825 C 322.023 15.893,322.931 16.021,323.710 16.110 " stroke="none" fill="#8ab721" fill-rule="evenodd"></path></g></svg>