<svg id="svg" version="1.1" xmlns="http://www.w3.org/2000/svg" xmlns:xlink="http://www.w3.org/1999/xlink" width="400" height="400" viewBox="0, 0, 400,400"><g id="svgg"><path id="path0" d="M92.600 4.065 C 80.454 5.074,77.471 5.770,74.717 8.238 C 73.776 9.081,72.205 9.879,70.415 10.423 C 68.311 11.062,67.367 11.585,66.698 12.483 C 65.547 14.025,63.620 15.950,62.058 17.118 C 61.258 17.716,60.533 18.850,59.979 20.368 C 59.512 21.651,58.439 23.536,57.595 24.557 C 54.371 28.459,53.225 38.892,54.419 53.478 C 55.122 62.063,55.381 63.049,57.564 65.437 C 59.127 67.147,59.630 68.096,60.391 70.769 C 61.153 73.444,61.609 74.304,62.959 75.611 C 63.861 76.485,65.050 78.041,65.600 79.070 C 66.183 80.160,67.351 81.466,68.400 82.200 C 69.390 82.893,70.709 84.216,71.332 85.138 C 71.971 86.086,73.190 87.183,74.132 87.658 C 75.049 88.121,76.700 89.341,77.800 90.369 C 79.533 91.987,80.275 92.362,83.351 93.170 C 86.272 93.937,87.166 94.366,88.390 95.590 C 90.119 97.319,92.533 100.719,92.533 101.425 C 92.533 102.229,95.789 102.318,121.400 102.214 C 149.092 102.101,147.864 101.963,149.769 105.396 C 150.614 106.919,150.645 107.283,150.382 112.600 C 150.156 117.163,150.210 118.321,150.674 118.855 C 152.566 121.035,152.613 121.821,152.400 147.944 L 152.200 172.488 150.842 173.622 C 149.562 174.690,149.513 174.823,149.978 175.946 C 150.279 176.673,150.433 178.594,150.372 180.869 C 150.318 182.921,150.316 186.040,150.368 187.800 C 150.420 189.560,150.342 191.309,150.194 191.687 C 150.009 192.158,150.281 192.680,151.062 193.352 L 152.200 194.331 152.310 285.065 C 152.428 383.117,152.532 377.871,150.450 379.755 C 149.854 380.294,149.780 380.740,150.023 382.304 C 150.185 383.347,150.220 386.826,150.101 390.036 L 149.883 395.873 153.002 396.136 C 157.004 396.475,242.897 396.483,246.890 396.146 L 249.901 395.891 249.850 389.446 C 249.813 384.725,249.943 382.749,250.334 382.062 C 250.804 381.238,250.771 381.020,250.064 380.262 C 249.622 379.788,248.841 378.500,248.330 377.400 L 247.400 375.400 247.600 284.942 C 247.820 185.627,247.640 192.800,249.905 192.800 C 250.312 192.800,250.391 192.591,250.168 192.100 C 249.993 191.715,249.822 189.060,249.788 186.200 C 249.754 183.340,249.610 180.190,249.470 179.200 C 249.313 178.095,249.412 176.859,249.727 176.000 C 250.219 174.658,250.189 174.556,249.020 173.544 L 247.800 172.488 247.600 147.744 C 247.386 121.304,247.370 121.577,249.312 119.022 C 249.796 118.386,249.866 117.171,249.695 112.361 C 249.379 103.438,251.313 101.150,258.484 101.965 C 261.345 102.290,306.746 102.369,307.524 102.051 C 307.592 102.023,307.540 101.826,307.408 101.614 C 307.068 101.063,308.473 98.498,310.234 96.456 C 311.911 94.511,313.756 93.593,317.600 92.793 C 319.784 92.338,320.520 91.951,322.200 90.376 C 323.300 89.344,324.951 88.121,325.868 87.658 C 326.810 87.183,328.029 86.086,328.668 85.138 C 329.291 84.216,330.600 82.899,331.577 82.213 C 332.593 81.499,333.721 80.236,334.211 79.263 C 334.682 78.327,335.887 76.715,336.888 75.681 C 338.635 73.876,339.016 73.092,339.998 69.282 C 340.279 68.191,341.148 66.783,342.377 65.426 C 344.572 63.001,344.851 61.925,345.593 53.000 C 346.686 39.847,345.542 28.247,342.838 25.063 C 341.376 23.343,340.680 22.141,339.837 19.884 C 339.290 18.419,338.614 17.592,336.967 16.375 C 335.782 15.500,334.558 14.292,334.247 13.691 C 333.415 12.082,332.456 11.384,330.000 10.601 C 328.790 10.215,326.900 9.223,325.800 8.397 C 322.617 6.006,321.464 5.595,316.078 4.933 C 301.304 3.117,287.655 4.457,283.246 8.155 C 282.060 9.150,280.513 9.914,278.467 10.513 C 275.765 11.305,275.178 11.667,272.977 13.900 C 271.621 15.275,270.310 16.400,270.063 16.400 C 269.332 16.400,258.133 27.912,257.437 29.379 C 257.084 30.121,255.876 31.499,254.751 32.441 C 253.468 33.515,252.417 34.833,251.930 35.977 C 251.503 36.979,250.370 38.610,249.412 39.600 C 248.083 40.973,247.470 42.064,246.827 44.200 C 246.111 46.577,245.661 47.302,243.852 49.000 C 242.001 50.738,241.605 51.394,240.829 54.000 C 240.163 56.237,239.544 57.407,238.395 58.600 C 237.548 59.480,236.237 61.550,235.481 63.200 C 234.724 64.850,233.553 66.718,232.877 67.352 C 232.166 68.018,231.117 69.822,230.386 71.635 C 229.394 74.096,228.745 75.076,227.356 76.215 C 226.383 77.012,225.295 78.230,224.937 78.922 C 224.081 80.577,217.653 86.945,215.949 87.827 C 215.214 88.206,213.801 89.387,212.807 90.450 C 209.009 94.512,189.659 94.454,187.000 90.372 C 186.560 89.697,185.390 88.668,184.400 88.087 C 182.232 86.814,175.967 80.670,175.072 78.939 C 174.720 78.258,173.570 76.977,172.516 76.091 C 170.968 74.791,170.415 73.958,169.636 71.762 C 169.046 70.100,168.086 68.408,167.166 67.409 C 166.337 66.510,165.038 64.431,164.278 62.788 C 163.518 61.144,162.277 59.231,161.520 58.535 C 160.462 57.563,159.934 56.548,159.235 54.142 C 158.431 51.376,158.078 50.780,156.191 49.006 C 154.420 47.341,153.885 46.496,153.045 44.032 C 152.328 41.928,151.569 40.588,150.440 39.432 C 149.564 38.534,148.498 36.979,148.071 35.977 C 147.582 34.829,146.530 33.513,145.231 32.426 C 144.097 31.476,142.887 30.137,142.543 29.449 C 142.200 28.762,141.051 27.300,139.991 26.200 C 134.048 20.033,130.793 16.958,129.100 15.909 C 128.055 15.261,127.200 14.597,127.200 14.432 C 127.200 13.797,124.190 11.164,123.221 10.952 C 120.336 10.321,118.141 9.364,116.799 8.152 C 114.334 5.924,111.478 5.317,96.800 3.896 C 96.250 3.843,94.360 3.919,92.600 4.065 M100.229 17.568 C 101.603 17.766,103.930 18.547,105.583 19.364 C 107.191 20.159,109.788 21.193,111.353 21.661 C 115.002 22.753,116.115 23.327,118.771 25.489 C 119.966 26.461,121.622 27.603,122.451 28.026 C 123.281 28.449,124.283 29.282,124.680 29.877 C 125.076 30.472,126.508 32.064,127.863 33.415 C 129.377 34.925,130.864 36.936,131.724 38.636 C 132.494 40.156,133.698 41.940,134.400 42.600 C 135.102 43.260,136.280 44.970,137.017 46.400 C 137.789 47.897,139.035 49.553,139.955 50.303 C 141.312 51.409,141.706 52.106,142.564 54.920 C 143.419 57.723,143.844 58.477,145.322 59.817 C 146.608 60.983,147.350 62.140,148.134 64.206 C 148.719 65.750,149.891 67.851,150.738 68.876 C 151.585 69.901,152.500 71.338,152.772 72.070 C 153.925 75.173,154.437 75.992,156.018 77.261 C 156.956 78.014,158.175 79.566,158.802 80.806 C 159.415 82.019,160.668 83.909,161.585 85.006 C 165.008 89.095,165.409 90.917,163.315 92.852 L 162.200 93.882 142.200 93.565 C 114.192 93.122,112.970 93.004,107.400 90.219 C 103.726 88.381,98.791 86.803,96.715 86.800 C 96.558 86.800,95.357 85.843,94.046 84.673 C 92.735 83.502,90.969 82.337,90.122 82.084 C 87.246 81.222,78.423 73.048,76.608 69.564 C 76.082 68.554,75.011 67.166,74.229 66.479 C 72.543 64.999,71.204 62.922,71.201 61.784 C 71.198 59.948,69.884 56.073,68.612 54.148 C 65.588 49.572,65.648 37.328,68.712 33.839 C 69.399 33.056,70.285 31.480,70.681 30.336 C 72.006 26.504,75.668 23.159,80.274 21.575 C 81.453 21.169,83.179 20.303,84.109 19.650 C 85.048 18.991,86.778 18.273,88.000 18.036 C 89.210 17.800,90.560 17.537,91.000 17.450 C 92.523 17.150,97.811 17.218,100.229 17.568 M312.777 18.203 C 313.974 18.573,315.524 19.312,316.221 19.843 C 316.918 20.375,318.783 21.250,320.366 21.788 C 324.911 23.334,327.698 26.034,329.361 30.503 C 329.750 31.550,330.660 33.114,331.382 33.978 C 334.077 37.204,334.363 49.994,331.816 53.400 C 330.329 55.388,329.701 56.880,329.204 59.605 C 328.523 63.335,328.132 64.157,326.197 65.917 C 325.247 66.783,324.011 68.370,323.452 69.445 C 321.540 73.121,314.219 79.925,309.952 81.992 C 308.548 82.672,306.590 84.016,305.600 84.980 C 303.962 86.574,303.500 86.788,300.473 87.349 C 297.331 87.932,295.589 88.614,291.090 91.024 C 287.756 92.810,276.839 93.575,254.000 93.623 C 247.510 93.637,241.323 93.792,240.250 93.968 C 238.439 94.266,238.204 94.204,236.947 93.100 C 234.560 91.004,234.915 89.027,238.403 84.996 C 239.296 83.965,240.496 82.193,241.068 81.060 C 241.641 79.927,243.030 78.100,244.155 77.000 C 245.559 75.627,246.420 74.355,246.902 72.941 C 247.288 71.809,248.323 70.012,249.203 68.948 C 250.082 67.883,251.281 65.750,251.866 64.206 C 252.650 62.140,253.392 60.983,254.678 59.817 C 256.157 58.477,256.581 57.723,257.437 54.916 C 258.306 52.066,258.678 51.415,260.075 50.299 C 261.172 49.423,262.149 48.059,263.078 46.108 C 263.856 44.474,264.945 42.867,265.579 42.415 C 266.198 41.974,267.453 40.173,268.370 38.412 C 269.439 36.356,270.612 34.746,271.643 33.917 C 272.527 33.207,273.864 31.771,274.615 30.726 C 275.365 29.682,276.683 28.468,277.544 28.029 C 278.404 27.590,280.334 26.247,281.833 25.046 C 283.784 23.481,285.244 22.671,286.978 22.189 C 288.310 21.819,291.290 20.690,293.600 19.680 C 299.571 17.068,307.212 16.479,312.777 18.203 M230.791 117.059 C 235.446 118.634,235.522 119.071,235.141 141.800 C 234.968 152.140,234.825 208.975,234.824 268.099 C 234.822 367.849,234.773 375.692,234.152 376.899 C 230.765 383.477,232.262 383.202,199.974 383.191 C 169.564 383.181,170.833 383.289,167.863 380.476 C 164.903 377.673,165.166 387.644,165.273 282.093 C 165.370 186.068,165.345 178.124,164.827 143.000 C 164.440 116.731,164.342 117.017,174.000 116.413 C 183.809 115.799,228.572 116.309,230.791 117.059 " stroke="none" fill="#89b71d" fill-rule="evenodd"></path><path id="path1" d="M252.929 102.586 C 249.752 104.534,248.821 108.603,249.844 116.068 L 250.088 117.847 251.912 116.923 L 253.736 116.000 314.968 116.009 C 382.944 116.019,377.615 115.812,380.524 118.549 C 383.080 120.954,383.039 120.422,382.808 147.668 L 382.600 172.336 381.650 173.348 C 379.467 175.670,380.961 175.620,315.056 175.590 C 266.566 175.567,254.505 175.459,252.661 175.031 C 249.986 174.409,249.481 174.847,249.504 177.775 C 249.616 192.073,249.742 192.731,252.252 192.034 C 253.320 191.738,270.254 191.604,306.816 191.602 C 363.917 191.600,363.334 191.580,365.400 193.629 C 366.195 194.417,366.201 195.024,366.305 285.274 L 366.410 376.126 365.585 377.831 C 364.702 379.655,362.859 381.282,360.613 382.220 C 358.062 383.286,254.695 383.068,252.585 381.992 C 250.621 380.991,250.182 381.407,249.776 384.651 C 249.551 386.457,249.862 395.595,250.159 395.893 C 250.622 396.355,375.731 395.953,376.397 395.487 C 376.822 395.189,377.546 394.468,378.005 393.884 L 378.840 392.823 378.810 293.829 L 378.780 194.835 379.890 193.620 C 381.241 192.142,385.336 191.172,388.882 191.491 C 392.820 191.845,395.264 190.505,395.794 187.702 C 395.951 186.876,396.060 169.460,396.038 149.000 C 396.006 119.280,396.105 111.294,396.534 109.285 L 397.071 106.769 395.730 105.592 C 392.781 103.003,395.949 103.154,352.910 103.544 C 314.655 103.890,309.808 103.803,308.532 102.744 C 308.034 102.331,302.809 102.217,283.053 102.190 C 269.384 102.171,257.390 102.022,256.400 101.858 C 254.861 101.604,254.358 101.710,252.929 102.586 M91.327 102.682 C 89.541 103.868,84.740 104.098,71.329 103.642 C 64.108 103.397,46.850 103.197,32.978 103.198 L 7.757 103.200 5.978 104.339 C 2.925 106.296,2.765 106.614,3.435 109.400 C 3.919 111.413,4.002 117.895,3.952 149.632 C 3.885 191.281,3.744 188.918,6.400 190.720 C 7.631 191.555,8.138 191.647,10.600 191.485 C 14.126 191.253,18.458 192.144,19.920 193.402 L 21.000 194.331 21.103 290.113 C 21.160 342.793,21.061 387.254,20.883 388.916 C 20.538 392.134,21.233 393.827,23.571 395.465 C 24.282 395.963,149.369 396.364,149.863 395.871 C 150.123 395.610,150.180 381.247,149.921 380.988 C 149.768 380.834,148.958 381.134,148.121 381.654 L 146.600 382.600 93.557 382.706 L 40.513 382.811 38.363 381.688 C 37.018 380.985,35.762 379.923,35.007 378.848 L 33.800 377.131 33.800 285.731 L 33.800 194.331 34.875 193.406 C 37.017 191.563,37.938 191.537,94.800 191.684 C 124.170 191.760,148.580 191.967,149.045 192.143 C 150.216 192.589,150.484 191.710,150.368 187.800 C 150.316 186.040,150.317 182.944,150.370 180.921 C 150.427 178.768,150.263 176.679,149.977 175.886 L 149.487 174.531 147.243 175.054 C 145.448 175.473,132.977 175.575,84.800 175.568 C 19.064 175.557,20.471 175.604,18.350 173.348 L 17.400 172.336 17.200 147.868 C 16.980 120.998,16.974 121.088,19.332 118.729 C 22.273 115.788,16.709 116.019,85.032 116.009 L 146.264 116.000 148.101 116.930 L 149.937 117.859 150.154 116.630 C 151.334 109.932,150.322 104.683,147.528 103.001 C 145.878 102.008,92.796 101.707,91.327 102.682 " stroke="none" fill="#666666" fill-rule="evenodd"></path></g></svg>