<svg id="svg" version="1.1" xmlns="http://www.w3.org/2000/svg" xmlns:xlink="http://www.w3.org/1999/xlink" width="400" height="293.33333333333337" viewBox="0, 0, 400,293.33333333333337"><g id="svgg"><path id="path0" d="M195.382 4.035 C 194.961 4.479,194.388 5.437,194.109 6.163 C 193.830 6.889,193.079 8.175,192.440 9.020 C 191.705 9.992,191.019 11.403,190.573 12.861 C 190.133 14.297,189.430 15.752,188.706 16.722 C 188.067 17.578,187.342 18.854,187.096 19.558 C 186.849 20.261,186.442 21.421,186.190 22.136 C 185.939 22.852,185.280 24.007,184.726 24.704 C 184.171 25.402,183.435 26.831,183.088 27.880 C 182.308 30.243,181.801 31.258,180.736 32.583 C 180.279 33.152,179.513 34.777,179.034 36.193 C 178.555 37.609,177.821 39.175,177.402 39.673 C 176.398 40.866,175.676 42.331,175.093 44.357 C 174.831 45.269,174.087 46.719,173.440 47.579 C 172.793 48.440,172.067 49.708,171.825 50.398 C 171.584 51.087,171.177 52.246,170.921 52.974 C 170.665 53.701,170.016 54.823,169.479 55.466 C 168.942 56.109,168.293 57.230,168.037 57.958 C 167.781 58.686,167.374 59.845,167.133 60.534 C 166.892 61.223,166.168 62.488,165.525 63.344 C 164.804 64.303,164.116 65.707,163.730 67.006 C 161.892 73.195,157.782 75.299,146.148 76.007 C 137.051 76.560,133.544 77.074,130.091 78.358 C 127.848 79.193,125.541 79.505,119.149 79.839 C 112.249 80.200,108.194 80.763,105.311 81.758 C 101.978 82.908,99.460 83.296,93.140 83.634 C 84.168 84.114,82.401 84.751,80.663 88.131 C 79.907 89.601,80.130 90.163,82.027 91.564 C 82.892 92.203,83.822 93.103,84.095 93.564 C 84.367 94.025,85.115 94.721,85.756 95.110 C 86.398 95.500,87.316 96.383,87.796 97.075 C 88.276 97.766,89.172 98.649,89.787 99.037 C 90.402 99.425,91.201 100.221,91.563 100.807 C 91.925 101.393,92.740 102.199,93.375 102.600 C 94.009 103.001,94.924 103.889,95.407 104.575 C 95.890 105.260,96.775 106.123,97.372 106.493 C 97.970 106.863,98.836 107.690,99.297 108.331 C 99.758 108.972,100.638 109.830,101.254 110.238 C 101.870 110.645,102.716 111.495,103.134 112.127 C 103.552 112.758,104.410 113.616,105.041 114.034 C 105.673 114.452,106.531 115.310,106.949 115.942 C 107.367 116.573,108.225 117.431,108.857 117.849 C 109.488 118.267,110.341 119.117,110.752 119.739 C 111.163 120.360,112.086 121.272,112.803 121.765 C 113.520 122.259,114.383 123.109,114.720 123.654 C 115.057 124.200,115.852 124.990,116.487 125.410 C 117.121 125.830,118.052 126.772,118.555 127.503 C 119.059 128.235,119.608 128.833,119.777 128.833 C 119.945 128.833,120.962 129.691,122.037 130.740 C 123.112 131.788,126.720 135.155,130.055 138.221 C 137.219 144.805,137.244 144.846,136.956 149.223 C 136.754 152.304,135.827 157.231,135.141 158.873 C 134.221 161.076,133.524 164.922,133.219 169.475 C 132.867 174.748,132.399 177.554,131.335 180.775 C 130.231 184.114,129.705 186.990,129.428 191.196 C 129.173 195.074,128.107 199.483,127.456 199.354 C 127.292 199.321,126.998 199.849,126.803 200.528 C 126.608 201.206,126.382 201.992,126.300 202.274 C 126.196 202.639,126.319 202.788,126.728 202.788 C 127.464 202.788,127.838 203.692,127.240 204.027 C 126.605 204.382,126.280 205.910,125.880 210.418 C 125.687 212.597,125.291 216.295,125.001 218.635 C 124.474 222.881,124.475 222.892,125.075 223.534 C 127.212 225.821,131.599 225.518,134.106 222.910 C 134.678 222.314,135.608 221.727,136.233 221.564 C 136.844 221.406,137.878 221.138,138.531 220.968 C 139.248 220.782,140.340 220.097,141.287 219.240 C 142.574 218.074,143.235 217.722,144.979 217.274 C 146.678 216.837,147.417 216.453,148.670 215.358 C 149.762 214.402,150.751 213.842,151.934 213.507 C 152.868 213.242,153.872 212.956,154.165 212.870 C 154.458 212.784,155.346 212.138,156.139 211.434 C 157.210 210.483,158.130 209.990,159.715 209.519 C 161.227 209.070,162.196 208.566,163.040 207.790 C 163.695 207.187,164.884 206.456,165.681 206.165 C 168.459 205.150,169.777 204.513,170.506 203.833 C 171.393 203.006,172.490 202.448,174.556 201.772 C 175.412 201.492,176.683 200.828,177.381 200.295 C 178.986 199.070,179.570 198.760,181.587 198.067 C 182.484 197.758,183.917 196.966,184.771 196.307 C 185.705 195.586,187.085 194.881,188.238 194.535 C 189.318 194.211,190.701 193.521,191.408 192.954 C 194.035 190.845,194.709 190.609,198.092 190.609 C 201.476 190.609,202.150 190.845,204.777 192.954 C 205.484 193.521,206.867 194.211,207.947 194.535 C 209.101 194.882,210.480 195.587,211.418 196.311 C 212.301 196.992,213.901 197.827,215.114 198.239 C 216.310 198.646,217.925 199.485,218.778 200.143 C 219.617 200.791,221.038 201.573,221.935 201.882 C 224.082 202.620,224.768 202.988,225.825 203.967 C 226.310 204.415,227.696 205.133,228.907 205.563 C 231.334 206.425,232.170 206.893,233.399 208.080 C 233.904 208.567,235.080 209.130,236.433 209.531 C 238.087 210.022,238.999 210.505,240.064 211.450 C 241.036 212.313,242.025 212.865,243.193 213.196 C 244.132 213.462,245.145 213.751,245.443 213.839 C 245.742 213.926,246.693 214.638,247.556 215.420 C 248.601 216.366,249.500 216.911,250.242 217.048 C 252.366 217.440,253.658 218.061,255.047 219.361 C 255.814 220.078,256.817 220.749,257.275 220.850 C 260.124 221.481,261.112 221.904,262.073 222.904 C 264.303 225.223,268.184 225.835,270.087 224.167 L 271.208 223.184 270.873 217.461 C 270.498 211.064,269.754 207.116,268.592 205.361 C 267.845 204.232,267.794 202.065,268.496 201.203 C 268.655 201.007,268.535 200.016,268.189 198.679 C 267.863 197.415,267.693 196.076,267.791 195.533 C 267.897 194.946,267.790 194.255,267.510 193.713 C 267.261 193.232,266.861 191.347,266.619 189.523 C 266.378 187.699,265.846 185.018,265.437 183.566 C 264.042 178.610,263.270 174.259,262.947 169.513 C 262.595 164.360,262.211 162.279,260.907 158.474 C 260.007 155.846,259.134 150.520,259.134 147.655 C 259.134 145.416,260.087 143.541,262.122 141.775 C 263.615 140.480,270.025 134.651,274.177 130.813 C 275.268 129.805,276.522 128.597,276.965 128.128 C 277.408 127.660,278.298 126.779,278.944 126.170 C 279.589 125.561,280.448 124.702,280.851 124.260 C 281.255 123.818,282.031 123.049,282.576 122.550 C 283.121 122.051,284.072 121.115,284.689 120.470 C 285.307 119.824,286.079 119.032,286.405 118.709 C 286.731 118.386,288.519 116.603,290.378 114.747 C 292.237 112.891,293.961 111.174,294.210 110.932 C 294.460 110.690,295.322 109.831,296.126 109.024 C 296.930 108.217,297.735 107.425,297.914 107.263 C 298.093 107.102,299.180 106.030,300.330 104.881 C 301.480 103.732,302.720 102.637,303.086 102.447 C 303.451 102.258,304.080 101.581,304.482 100.943 C 304.884 100.306,305.732 99.457,306.365 99.058 C 306.998 98.658,307.909 97.760,308.389 97.063 C 308.869 96.365,309.740 95.536,310.325 95.221 C 310.910 94.906,311.716 94.153,312.117 93.548 C 312.517 92.942,313.339 92.133,313.943 91.749 C 316.279 90.265,316.492 89.486,315.119 87.449 C 313.201 84.604,311.623 84.108,303.008 83.645 C 296.701 83.306,294.260 82.927,290.874 81.758 C 288.176 80.826,283.923 80.198,278.797 79.972 C 272.270 79.686,268.878 79.245,266.031 78.316 C 262.276 77.090,259.343 76.646,251.655 76.142 C 237.943 75.242,234.144 73.363,232.291 66.563 C 232.041 65.646,231.384 64.302,230.831 63.578 C 229.545 61.894,229.093 60.992,228.504 58.944 C 228.242 58.033,227.498 56.583,226.852 55.722 C 226.205 54.861,225.478 53.593,225.237 52.904 C 224.996 52.215,224.601 51.087,224.360 50.398 C 224.118 49.708,223.392 48.440,222.745 47.579 C 222.098 46.719,221.355 45.269,221.093 44.357 C 220.510 42.330,219.987 41.268,218.877 39.854 C 218.408 39.258,217.713 37.855,217.333 36.736 C 216.511 34.322,216.169 33.646,215.074 32.280 C 214.621 31.713,213.862 30.088,213.388 28.668 C 212.877 27.139,212.101 25.541,211.483 24.748 C 210.910 24.013,210.238 22.832,209.990 22.124 C 209.741 21.416,209.332 20.251,209.081 19.537 C 208.830 18.822,208.143 17.606,207.555 16.835 C 206.927 16.013,206.151 14.416,205.678 12.972 C 205.188 11.478,204.421 9.915,203.727 8.997 C 203.098 8.164,202.355 6.889,202.076 6.163 C 201.183 3.838,200.355 3.228,198.092 3.228 C 196.353 3.228,196.067 3.313,195.382 4.035 M201.026 31.107 C 201.397 31.627,201.768 32.796,201.934 33.968 C 202.259 36.257,202.880 37.658,203.852 38.295 C 204.731 38.871,205.240 39.917,205.709 42.113 C 206.160 44.227,206.709 45.368,207.509 45.858 C 208.424 46.418,209.171 47.832,209.405 49.450 C 209.719 51.618,210.022 52.246,211.465 53.718 C 212.639 54.916,212.816 55.284,213.213 57.361 C 213.678 59.791,213.727 59.889,215.444 61.812 C 216.306 62.777,216.628 63.485,217.035 65.318 C 217.473 67.285,217.729 67.810,218.826 68.982 C 219.875 70.104,220.209 70.753,220.678 72.586 C 221.370 75.296,221.643 75.852,222.944 77.214 C 223.695 78.001,224.095 78.820,224.503 80.405 C 225.068 82.601,226.192 84.226,227.145 84.226 C 227.407 84.226,228.538 84.672,229.658 85.217 C 233.317 86.998,234.897 87.290,243.287 87.740 C 250.658 88.136,252.736 88.439,256.493 89.670 C 260.089 90.848,261.992 91.122,269.552 91.546 C 276.318 91.926,279.186 92.317,281.856 93.222 C 283.128 93.653,284.572 93.910,285.714 93.910 C 287.427 93.910,287.595 93.973,288.425 94.918 C 290.107 96.834,289.995 97.502,287.743 98.981 C 286.951 99.501,285.967 100.424,285.555 101.033 C 285.143 101.641,284.290 102.450,283.660 102.831 C 283.029 103.211,282.167 104.033,281.744 104.656 C 281.320 105.280,280.416 106.164,279.735 106.622 C 279.053 107.080,278.294 107.845,278.047 108.322 C 277.800 108.799,276.949 109.656,276.156 110.226 C 275.362 110.796,274.431 111.718,274.087 112.275 C 273.743 112.832,272.891 113.680,272.194 114.160 C 271.496 114.640,270.638 115.498,270.286 116.067 C 269.934 116.637,269.076 117.495,268.379 117.975 C 267.681 118.455,266.819 119.320,266.462 119.897 C 266.105 120.475,265.300 121.271,264.673 121.667 C 264.046 122.063,263.146 122.921,262.673 123.574 C 262.200 124.227,261.293 125.138,260.659 125.598 C 260.024 126.057,259.213 126.843,258.857 127.344 C 258.500 127.845,257.601 128.718,256.860 129.284 C 256.118 129.850,255.203 130.767,254.826 131.322 C 254.450 131.876,253.554 132.733,252.837 133.227 C 252.119 133.721,251.301 134.516,251.019 134.993 C 250.737 135.471,249.947 136.263,249.263 136.754 C 248.412 137.365,247.773 138.177,247.234 139.329 C 246.802 140.255,246.130 141.437,245.741 141.956 L 245.034 142.899 245.775 144.721 C 246.746 147.111,247.320 150.436,247.542 154.952 C 247.747 159.127,248.334 162.517,249.296 165.081 C 250.426 168.093,250.919 170.926,251.354 176.912 C 251.778 182.738,252.276 185.443,253.668 189.495 C 255.528 194.907,255.699 201.338,254.034 203.273 L 253.356 204.061 252.357 203.315 C 251.807 202.905,250.493 202.286,249.437 201.941 C 248.380 201.595,246.833 200.800,245.998 200.172 C 245.163 199.545,243.541 198.673,242.394 198.234 C 241.246 197.796,239.700 196.973,238.957 196.406 C 237.728 195.468,237.030 195.129,233.925 193.958 C 233.375 193.752,232.361 193.093,231.671 192.496 C 230.876 191.808,229.591 191.132,228.165 190.653 C 226.607 190.129,225.527 189.540,224.661 188.741 C 223.712 187.866,222.806 187.403,220.922 186.828 C 219.055 186.259,218.096 185.771,217.070 184.868 C 216.077 183.994,215.078 183.474,213.407 182.960 C 211.595 182.404,210.811 181.974,209.702 180.926 C 208.929 180.196,207.948 179.522,207.523 179.428 C 205.057 178.886,203.717 178.268,202.494 177.109 C 199.589 174.353,196.596 174.353,193.690 177.109 C 192.469 178.268,191.126 178.887,188.665 179.427 C 188.242 179.520,187.191 180.258,186.329 181.067 C 185.467 181.877,184.639 182.539,184.489 182.539 C 183.202 182.539,180.101 183.862,178.978 184.891 C 178.012 185.776,177.099 186.249,175.274 186.807 C 173.441 187.367,172.512 187.848,171.458 188.785 C 170.448 189.681,169.449 190.215,167.835 190.720 C 166.300 191.201,165.223 191.761,164.379 192.517 C 163.564 193.247,162.285 193.926,160.568 194.541 C 158.950 195.119,157.683 195.779,157.180 196.304 C 156.386 197.132,155.529 197.571,152.842 198.521 C 152.084 198.789,151.028 199.326,150.494 199.715 C 149.960 200.103,149.222 200.641,148.854 200.910 C 148.485 201.180,147.310 201.717,146.242 202.105 C 145.174 202.493,143.935 203.070,143.487 203.389 L 142.674 203.968 142.080 203.213 C 140.927 201.746,140.770 200.665,141.141 196.717 C 141.468 193.248,141.860 191.454,143.636 185.326 C 144.216 183.322,144.504 181.305,144.827 176.963 C 145.323 170.301,145.518 169.128,146.695 165.733 C 147.882 162.307,148.423 159.309,148.641 154.952 C 148.880 150.163,149.256 147.964,150.306 145.210 L 151.168 142.951 150.125 141.435 C 149.552 140.601,149.083 139.716,149.083 139.467 C 149.083 139.061,146.782 136.518,144.149 134.014 C 142.402 132.352,135.005 125.181,134.374 124.537 C 133.417 123.560,131.405 121.565,130.594 120.788 C 130.191 120.401,129.464 119.673,128.980 119.170 C 128.496 118.667,127.638 117.809,127.073 117.263 C 126.508 116.718,125.632 115.830,125.127 115.289 C 124.622 114.749,123.763 113.895,123.219 113.392 C 122.675 112.890,121.834 112.062,121.350 111.554 C 120.554 110.718,119.537 109.697,117.264 107.449 C 116.834 107.024,115.895 106.082,115.177 105.356 C 114.459 104.629,113.664 103.837,113.409 103.595 C 113.155 103.353,112.065 102.285,110.986 101.222 C 109.907 100.159,108.536 98.997,107.939 98.640 C 105.271 97.042,107.072 93.910,110.658 93.910 C 112.013 93.910,113.202 93.693,114.492 93.209 C 116.922 92.296,119.496 91.940,126.486 91.552 C 134.135 91.127,135.846 90.883,139.591 89.686 C 143.521 88.430,145.593 88.130,153.045 87.736 C 160.070 87.366,162.177 87.065,164.414 86.117 C 165.344 85.722,166.930 85.060,167.938 84.645 C 170.404 83.630,171.261 82.659,171.713 80.365 C 171.992 78.945,172.320 78.259,173.156 77.342 C 174.564 75.798,174.822 75.272,175.506 72.555 C 175.935 70.849,176.285 70.104,176.916 69.552 C 178.184 68.444,178.640 67.561,179.179 65.181 C 179.561 63.492,179.908 62.744,180.746 61.806 C 182.457 59.890,182.507 59.790,182.967 57.384 C 183.366 55.304,183.535 54.960,184.844 53.576 C 185.746 52.622,186.356 51.678,186.479 51.045 C 187.138 47.654,187.325 47.183,188.428 46.123 C 189.669 44.931,190.286 43.672,190.611 41.673 C 190.882 40.000,191.460 38.867,192.333 38.295 C 193.305 37.658,193.926 36.257,194.251 33.968 C 194.704 30.773,195.265 30.227,198.092 30.227 C 200.321 30.227,200.422 30.258,201.026 31.107 " stroke="none" fill="#89b61e" fill-rule="evenodd"></path><path id="path1" d="M77.384 141.487 C 77.091 141.657,76.420 142.743,75.892 143.899 C 75.364 145.055,74.702 146.191,74.422 146.422 C 73.735 146.988,72.997 148.513,72.210 150.990 C 71.851 152.120,71.061 153.705,70.455 154.512 C 69.291 156.062,68.992 156.725,68.251 159.400 C 67.981 160.377,67.361 161.575,66.746 162.311 C 65.423 163.895,65.078 164.604,64.427 167.079 C 64.038 168.555,63.576 169.461,62.663 170.529 C 61.491 171.903,61.233 172.478,60.466 175.415 C 60.288 176.097,59.633 177.244,59.009 177.965 C 57.894 179.253,57.460 180.210,56.530 183.435 C 56.202 184.570,55.797 185.258,55.196 185.703 C 54.721 186.054,53.908 187.051,53.390 187.917 C 52.082 190.103,51.899 190.174,46.855 190.457 C 41.119 190.778,36.627 191.462,33.264 192.527 C 29.674 193.662,27.885 193.919,21.130 194.263 C 14.340 194.610,9.571 195.362,6.184 196.619 C 4.824 197.124,2.876 197.615,1.856 197.711 L -0.000 197.884 -0.000 200.776 L 0.000 203.668 0.954 203.669 C 1.772 203.669,2.390 204.138,5.302 206.970 C 12.659 214.127,24.605 225.727,28.346 229.347 C 38.687 239.355,38.997 239.988,36.431 245.836 C 35.065 248.947,34.670 251.048,34.187 257.750 C 33.707 264.402,33.529 265.483,32.426 268.414 C 31.356 271.256,30.603 275.461,30.381 279.824 C 30.275 281.922,29.998 284.574,29.766 285.716 C 29.371 287.660,29.382 287.904,29.932 289.504 C 30.256 290.445,30.521 291.722,30.521 292.342 L 30.521 293.470 32.869 293.470 L 35.216 293.470 35.216 292.449 C 35.216 291.284,36.263 290.569,38.919 289.920 C 40.845 289.449,41.635 289.017,42.815 287.789 C 43.621 286.951,44.291 286.627,46.336 286.086 C 48.534 285.506,49.025 285.251,50.116 284.128 C 51.123 283.093,51.811 282.702,53.593 282.152 C 55.308 281.623,56.137 281.165,57.225 280.148 C 58.352 279.093,59.095 278.695,60.927 278.163 C 62.662 277.659,63.553 277.199,64.597 276.273 C 65.581 275.398,66.659 274.821,68.367 274.252 C 69.959 273.722,71.189 273.083,72.044 272.343 C 75.746 269.139,82.692 269.217,86.336 272.504 C 87.668 273.706,88.716 274.261,90.502 274.710 C 91.276 274.905,92.716 275.676,93.794 276.471 C 94.865 277.262,96.409 278.089,97.294 278.346 C 98.164 278.599,99.764 279.414,100.848 280.156 C 101.932 280.898,103.509 281.743,104.352 282.033 C 106.256 282.688,106.986 283.073,108.291 284.112 C 108.855 284.562,110.389 285.337,111.698 285.835 C 113.007 286.333,114.595 287.183,115.228 287.725 C 115.867 288.272,117.392 289.069,118.660 289.519 C 121.628 290.573,122.377 291.166,122.377 292.464 L 122.377 293.470 125.565 293.470 L 128.753 293.470 128.995 291.489 C 129.601 286.522,129.189 283.084,127.510 279.086 C 126.567 276.841,126.238 274.757,125.764 268.011 C 125.348 262.085,124.926 259.741,123.832 257.266 C 122.886 255.128,122.421 252.379,122.065 246.809 C 121.884 243.984,121.580 240.880,121.389 239.912 C 121.041 238.147,121.093 236.805,121.771 229.995 C 122.241 225.274,121.901 224.798,118.056 224.798 C 115.873 224.798,115.823 224.815,114.926 225.856 C 114.424 226.438,113.632 227.264,113.167 227.691 C 112.702 228.117,111.826 228.977,111.221 229.602 C 109.344 231.539,108.692 232.181,107.703 233.069 L 106.746 233.928 106.891 236.773 C 107.012 239.168,107.225 240.129,108.236 242.847 C 109.732 246.866,109.990 248.310,110.356 254.732 C 110.657 260.017,111.086 262.418,112.074 264.356 C 114.110 268.347,113.663 269.817,110.306 270.161 L 108.365 270.360 106.570 268.709 C 105.582 267.801,104.628 267.058,104.450 267.058 C 103.101 267.058,100.735 265.974,99.354 264.723 C 98.074 263.564,97.450 263.238,95.671 262.803 C 93.885 262.365,93.270 262.043,91.964 260.859 C 91.102 260.079,90.032 259.360,89.586 259.262 C 87.330 258.763,85.772 258.069,84.689 257.081 C 82.981 255.523,82.542 255.357,79.945 255.290 C 77.057 255.215,74.464 255.908,73.065 257.130 C 71.804 258.233,71.110 258.587,68.583 259.417 C 67.350 259.822,66.093 260.500,65.296 261.189 C 64.587 261.803,63.307 262.534,62.451 262.814 C 60.416 263.480,58.903 264.250,58.381 264.886 C 58.150 265.167,56.893 265.892,55.587 266.497 C 54.282 267.101,52.830 268.006,52.359 268.508 C 50.780 270.192,47.511 270.769,46.377 269.562 C 45.168 268.274,45.884 259.277,47.524 255.172 C 49.045 251.364,49.524 248.016,50.091 237.249 C 50.323 232.830,50.378 232.911,40.152 222.756 C 33.779 216.427,31.180 214.041,29.945 213.383 C 27.773 212.225,27.435 211.806,26.852 209.544 L 26.362 207.643 27.241 206.857 C 27.985 206.192,28.476 206.045,30.421 205.902 C 38.398 205.316,39.758 205.118,42.685 204.112 C 46.244 202.890,53.599 201.908,59.187 201.908 C 60.108 201.908,64.486 197.127,64.847 195.727 C 65.498 193.207,65.761 192.596,66.498 191.904 C 67.699 190.776,68.308 189.567,68.828 187.282 C 69.229 185.520,69.546 184.876,70.596 183.694 C 71.359 182.835,72.005 181.748,72.196 181.002 C 72.904 178.235,73.406 177.134,74.493 175.954 C 75.264 175.117,75.840 174.065,76.282 172.686 C 77.487 168.923,77.683 168.817,80.337 170.501 C 82.562 171.913,83.159 172.833,83.605 175.534 C 83.995 177.894,84.495 179.013,85.821 180.493 C 86.457 181.203,86.966 182.290,87.438 183.949 C 87.952 185.754,88.411 186.691,89.246 187.640 C 89.984 188.478,90.580 189.601,90.995 190.934 C 91.985 194.113,92.145 194.461,93.095 195.500 C 93.586 196.038,94.424 197.407,94.956 198.542 C 96.479 201.792,96.334 201.730,103.595 202.201 C 110.058 202.621,112.071 202.963,116.138 204.337 C 120.166 205.697,120.809 205.663,122.964 203.977 C 123.529 203.535,124.478 203.082,125.074 202.971 C 126.089 202.781,126.186 202.666,126.637 201.114 C 128.482 194.768,123.342 191.037,112.106 190.566 C 106.267 190.322,104.183 189.048,102.852 184.909 C 102.556 183.987,101.877 182.815,101.237 182.121 C 100.565 181.392,99.940 180.292,99.639 179.310 C 98.645 176.059,98.263 175.232,97.274 174.183 C 96.579 173.445,96.070 172.455,95.640 171.002 C 94.949 168.671,94.008 166.842,93.053 165.978 C 92.709 165.667,92.149 164.479,91.807 163.337 C 91.037 160.764,90.562 159.806,89.354 158.389 C 88.790 157.728,88.199 156.538,87.897 155.455 C 87.281 153.250,86.750 152.167,85.689 150.948 C 85.247 150.440,84.683 149.450,84.437 148.747 C 84.190 148.044,83.759 146.821,83.479 146.030 C 82.437 143.089,79.015 140.538,77.384 141.487 M316.889 141.966 C 316.473 142.410,316.041 143.079,315.928 143.453 C 315.815 143.827,315.159 144.767,314.471 145.542 C 313.519 146.613,313.091 147.436,312.687 148.971 C 312.039 151.434,311.628 152.293,310.457 153.626 C 309.869 154.296,309.264 155.585,308.727 157.312 C 308.167 159.115,307.526 160.458,306.731 161.495 C 306.039 162.399,305.312 163.834,304.953 165.007 C 304.238 167.343,303.969 167.884,302.683 169.576 C 302.151 170.274,301.368 171.925,300.943 173.244 C 300.468 174.718,299.735 176.208,299.042 177.109 C 298.382 177.968,297.610 179.509,297.180 180.826 C 296.293 183.542,295.789 184.556,294.945 185.320 C 294.594 185.638,293.841 186.729,293.273 187.745 C 291.937 190.135,291.949 190.130,286.512 190.447 C 280.286 190.810,276.438 191.463,274.248 192.528 C 271.622 193.806,268.569 194.926,268.249 194.728 C 267.652 194.359,267.634 196.537,268.215 198.826 C 268.855 201.346,270.000 202.799,271.677 203.220 C 272.101 203.326,272.826 203.731,273.288 204.120 C 275.240 205.762,278.134 205.712,282.920 203.954 C 285.585 202.974,287.951 202.609,294.351 202.189 C 299.581 201.846,299.948 201.730,301.259 200.011 C 301.691 199.445,302.478 198.714,303.008 198.386 C 304.134 197.690,304.765 196.471,305.057 194.428 C 305.298 192.737,305.849 191.544,306.646 190.986 C 307.525 190.371,308.329 188.720,308.741 186.683 C 309.053 185.141,309.368 184.528,310.520 183.211 C 311.735 181.823,311.986 181.304,312.421 179.292 C 312.849 177.312,313.089 176.807,314.058 175.847 C 314.797 175.115,315.552 173.862,316.218 172.258 C 317.740 168.595,317.745 168.593,319.991 170.671 C 322.011 172.539,323.196 174.490,323.694 176.768 C 324.067 178.471,324.946 180.263,326.091 181.657 C 326.560 182.227,327.254 183.726,327.654 185.032 C 328.105 186.504,328.795 187.941,329.505 188.882 C 330.701 190.467,330.977 191.059,331.782 193.754 C 332.066 194.706,332.729 195.954,333.314 196.638 C 333.882 197.301,334.691 198.515,335.111 199.337 C 336.334 201.723,336.562 201.808,342.848 202.191 C 349.649 202.607,351.210 202.850,355.099 204.098 C 358.567 205.212,361.695 205.723,365.046 205.723 C 367.399 205.723,369.428 206.238,370.569 207.125 L 371.219 207.630 370.442 209.799 C 369.789 211.621,369.479 212.090,368.499 212.734 C 367.857 213.155,366.428 214.358,365.323 215.407 C 363.266 217.361,363.085 217.537,360.813 219.809 C 360.087 220.536,359.228 221.394,358.906 221.717 C 358.583 222.040,357.724 222.898,356.998 223.624 C 356.272 224.351,355.409 225.209,355.081 225.532 C 354.753 225.855,353.964 226.647,353.328 227.293 C 352.693 227.938,351.699 228.929,351.120 229.494 C 350.541 230.059,349.285 231.328,348.328 232.315 L 346.588 234.109 346.588 236.171 C 346.588 238.999,347.297 242.489,348.506 245.621 C 349.684 248.669,349.975 250.445,350.389 257.080 C 350.707 262.194,351.157 264.438,352.381 267.030 C 353.265 268.902,353.100 269.383,351.399 269.896 C 349.067 270.600,348.209 270.419,346.488 268.860 C 345.280 267.767,344.428 267.287,342.827 266.801 C 341.276 266.330,340.335 265.812,339.154 264.779 C 337.880 263.665,337.147 263.282,335.450 262.846 C 333.791 262.420,333.025 262.028,331.906 261.034 C 330.811 260.061,329.910 259.593,328.037 259.022 C 326.156 258.448,325.362 258.033,324.574 257.214 C 321.778 254.309,315.659 254.477,312.254 257.553 C 311.459 258.272,310.444 258.766,308.754 259.257 C 306.929 259.788,306.078 260.221,305.108 261.115 C 304.197 261.955,303.164 262.507,301.404 263.093 C 299.832 263.616,298.579 264.254,297.880 264.885 C 297.283 265.424,295.937 266.250,294.888 266.721 C 293.840 267.191,292.513 267.988,291.939 268.492 C 289.859 270.318,287.488 270.724,286.166 269.479 L 285.309 268.672 285.837 262.627 C 286.308 257.246,286.481 256.248,287.413 253.530 C 288.818 249.432,289.036 248.327,289.524 242.847 C 290.367 233.371,290.269 233.040,285.195 228.153 C 280.139 223.283,277.370 222.088,275.408 223.931 C 273.449 225.771,273.983 231.976,276.482 236.404 C 277.704 238.570,277.695 241.485,276.458 244.100 C 275.009 247.164,274.681 248.759,274.241 254.879 C 273.721 262.107,273.442 263.821,272.329 266.599 C 271.119 269.621,270.663 272.233,270.300 278.210 C 270.020 282.829,269.488 286.095,268.818 287.296 C 268.666 287.570,268.888 288.336,269.433 289.415 C 269.954 290.448,270.286 291.566,270.286 292.288 L 270.286 293.470 272.487 293.470 L 274.688 293.470 274.688 292.497 C 274.688 291.297,275.859 290.544,278.923 289.775 C 280.560 289.363,281.246 288.999,282.476 287.885 C 283.625 286.844,284.388 286.417,285.580 286.147 C 288.178 285.558,288.246 285.525,289.798 284.057 C 290.978 282.941,291.765 282.494,293.548 281.928 C 295.205 281.402,296.186 280.871,297.242 279.931 C 298.317 278.974,299.228 278.487,300.849 278.004 C 302.228 277.593,303.391 277.022,304.040 276.437 C 305.302 275.302,305.991 274.945,308.527 274.112 C 309.766 273.705,311.017 273.029,311.824 272.330 C 312.766 271.515,313.818 270.993,315.643 270.436 L 318.162 269.668 320.416 270.161 C 323.376 270.807,324.388 271.242,326.213 272.650 C 327.048 273.294,328.546 274.096,329.544 274.433 C 330.541 274.770,331.978 275.490,332.736 276.034 C 334.220 277.097,335.666 277.832,337.824 278.618 C 338.573 278.890,339.761 279.561,340.466 280.109 C 341.170 280.657,342.767 281.498,344.015 281.977 C 345.262 282.457,346.832 283.319,347.503 283.894 C 348.257 284.539,349.588 285.226,350.986 285.692 C 352.533 286.207,353.711 286.841,354.716 287.699 C 355.795 288.620,356.768 289.121,358.382 289.591 C 361.203 290.410,362.142 291.128,362.142 292.464 L 362.142 293.470 365.077 293.470 L 368.012 293.470 368.012 292.502 C 368.012 291.969,368.128 291.408,368.269 291.255 C 369.655 289.754,369.615 287.053,368.147 282.905 C 366.577 278.469,366.260 276.945,365.953 272.361 C 365.473 265.185,364.797 261.146,363.731 259.086 C 362.755 257.197,361.921 250.828,361.348 240.893 C 361.191 238.166,361.582 237.244,363.437 235.968 C 364.148 235.478,365.019 234.612,365.371 234.043 C 365.722 233.473,366.581 232.615,367.278 232.135 C 367.975 231.655,368.834 230.797,369.186 230.227 C 369.538 229.658,370.396 228.800,371.093 228.320 C 371.790 227.840,372.653 226.975,373.010 226.398 C 373.367 225.820,374.162 225.030,374.777 224.642 C 375.391 224.254,376.306 223.338,376.810 222.606 C 377.313 221.875,377.861 221.277,378.028 221.277 C 378.283 221.277,379.770 219.891,383.585 216.100 C 383.932 215.754,384.764 214.929,385.432 214.267 C 386.100 213.604,387.076 212.632,387.600 212.107 C 390.485 209.217,394.225 205.674,395.115 204.989 C 395.641 204.584,396.098 203.697,396.589 202.122 L 397.300 199.843 396.082 198.788 C 393.158 196.257,385.662 194.630,374.615 194.131 C 370.182 193.930,367.371 193.482,364.713 192.552 C 362.308 191.711,356.508 190.797,351.724 190.505 C 345.431 190.121,344.296 189.471,342.766 185.376 C 342.414 184.434,341.577 183.046,340.906 182.290 C 339.915 181.174,339.585 180.492,339.155 178.669 C 338.709 176.774,338.405 176.170,337.215 174.811 C 336.286 173.748,335.736 172.815,335.603 172.073 C 335.142 169.507,334.763 168.656,333.415 167.168 C 332.235 165.864,331.952 165.317,331.641 163.737 C 331.191 161.451,330.804 160.676,329.470 159.394 C 328.617 158.575,328.332 157.961,327.796 155.792 C 327.245 153.559,326.963 152.969,325.862 151.745 C 324.811 150.577,324.470 149.898,324.013 148.069 C 323.396 145.601,323.330 145.490,321.208 143.326 C 318.865 140.936,318.084 140.690,316.889 141.966 " stroke="none" fill="#666666" fill-rule="evenodd"></path></g></svg>